<?xml version="1.0" encoding="iso-8859-1"?>
<!-- Uploaded to: SVG Repo, www.svgrepo.com, Generator: SVG Repo Mixer Tools -->
<svg fill="#000000" height="800px" width="800px" version="1.1" id="Layer_1" xmlns="http://www.w3.org/2000/svg" xmlns:xlink="http://www.w3.org/1999/xlink" 
	 viewBox="0 0 509.858 509.858" xml:space="preserve">
<g>
	<g>
		<g>
			<path d="M318.929,254.932c0-35.285-28.715-64-64-64s-64,28.715-64,64s28.715,64,64,64S318.929,290.218,318.929,254.932z"/>
			<path d="M166.037,196.199L59.627,89.789C26.176,129.319,4.544,179.026,0,233.597h150.421
				C153.195,220.007,158.613,207.399,166.037,196.199z"/>
			<path d="M343.825,313.663l106.411,106.411c33.451-39.531,55.083-89.237,59.605-143.808h-150.4
				C356.668,289.855,351.249,302.484,343.825,313.663z"/>
			<path d="M150.419,276.266H0.019c4.523,54.571,26.155,104.277,59.605,143.808l106.411-106.411
				C158.611,302.484,153.193,289.855,150.419,276.266z"/>
			<path d="M89.788,450.239c39.531,33.451,89.237,55.083,143.808,59.605v-150.4c-13.589-2.773-26.219-8.192-37.397-15.616
				L89.788,450.239z"/>
			<path d="M276.262,359.444v150.4c54.571-4.523,104.299-26.155,143.808-59.605L313.66,343.828
				C302.481,351.252,289.852,356.671,276.262,359.444z"/>
			<path d="M359.437,233.597h150.421c-4.544-54.571-26.176-104.277-59.627-143.808L343.821,196.199
				C351.245,207.399,356.663,220.007,359.437,233.597z"/>
			<path d="M233.604,150.418V0.018C179.034,4.541,129.306,26.173,89.796,59.623l106.411,106.411
				C207.386,158.61,220.015,153.191,233.604,150.418z"/>
			<path d="M420.07,59.641C380.54,26.169,330.833,4.558,276.262,0.014v150.4c13.589,2.773,26.197,8.213,37.397,15.616L420.07,59.641
				z"/>
		</g>
	</g>
</g>
</svg>