<svg width="751" height="794" viewBox="0 0 751 794" fill="none" xmlns="http://www.w3.org/2000/svg">
<path d="M366.578 7.29868L293.332 289.868C292.978 291.223 292.938 292.64 293.218 294.012C293.497 295.385 294.087 296.674 294.943 297.782C295.799 298.891 296.897 299.788 298.154 300.405C299.411 301.022 300.793 301.343 302.193 301.342H448.684C450.083 301.339 451.463 301.016 452.718 300.397C453.973 299.779 455.069 298.882 455.924 297.775C456.78 296.668 457.37 295.38 457.651 294.009C457.932 292.639 457.896 291.222 457.545 289.868L384.3 7.29868C383.79 5.33687 382.643 3.59977 381.039 2.35984C379.436 1.11992 377.466 0.447266 375.439 0.447266C373.412 0.447266 371.442 1.11992 369.838 2.35984C368.235 3.59977 367.088 5.33687 366.578 7.29868Z" fill="#001F30"/>
<g style="mix-blend-mode:multiply" filter="url(#filter0_f_2_437)">
<path d="M375.529 641.832C498.98 641.832 599.058 541.755 599.058 418.304C599.058 294.852 498.98 194.775 375.529 194.775C252.077 194.775 152 294.852 152 418.304C152 541.755 252.077 641.832 375.529 641.832Z" fill="url(#paint0_radial_2_437)" fill-opacity="0.9" style="mix-blend-mode:multiply"/>
</g>
<path d="M375.541 585.679C467.981 585.679 542.918 510.742 542.918 418.303C542.918 325.863 467.981 250.926 375.541 250.926C283.102 250.926 208.165 325.863 208.165 418.303C208.165 510.742 283.102 585.679 375.541 585.679Z" fill="url(#paint1_linear_2_437)"/>
<path d="M375.541 571.925C460.384 571.925 529.164 503.145 529.164 418.301C529.164 333.458 460.384 264.678 375.541 264.678C290.697 264.678 221.917 333.458 221.917 418.301C221.917 503.145 290.697 571.925 375.541 571.925Z" fill="url(#paint2_linear_2_437)"/>
<defs>
<filter id="filter0_f_2_437" x="0.714798" y="43.4897" width="749.628" height="749.628" filterUnits="userSpaceOnUse" color-interpolation-filters="sRGB">
<feFlood flood-opacity="0" result="BackgroundImageFix"/>
<feBlend mode="normal" in="SourceGraphic" in2="BackgroundImageFix" result="shape"/>
<feGaussianBlur stdDeviation="75.6426" result="effect1_foregroundBlur_2_437"/>
</filter>
<radialGradient id="paint0_radial_2_437" cx="0" cy="0" r="1" gradientUnits="userSpaceOnUse" gradientTransform="translate(375.529 418.304) scale(223.529)">
<stop/>
<stop offset="0.47"/>
<stop offset="0.53" stop-color="#040404"/>
<stop offset="0.6" stop-color="#111111"/>
<stop offset="0.66" stop-color="#262626"/>
<stop offset="0.73" stop-color="#444444"/>
<stop offset="0.8" stop-color="#6B6B6B"/>
<stop offset="0.88" stop-color="#9A9A9A"/>
<stop offset="0.95" stop-color="#D0D0D0"/>
<stop offset="1" stop-color="white"/>
</radialGradient>
<linearGradient id="paint1_linear_2_437" x1="257.19" y1="299.964" x2="493.91" y2="536.684" gradientUnits="userSpaceOnUse">
<stop stop-color="white"/>
<stop offset="1" stop-color="#999999"/>
</linearGradient>
<linearGradient id="paint2_linear_2_437" x1="266.914" y1="309.688" x2="484.184" y2="526.958" gradientUnits="userSpaceOnUse">
<stop stop-color="#F2F2F2"/>
<stop offset="1" stop-color="#B3B3B3"/>
</linearGradient>
</defs>
</svg>
