<svg width="28" height="27" viewBox="0 0 28 27" fill="none" xmlns="http://www.w3.org/2000/svg">
<path d="M10.9579 23.1936V19.8206C10.9579 18.9596 11.661 18.2616 12.5284 18.2616H15.6988C16.1153 18.2616 16.5148 18.4259 16.8093 18.7183C17.1038 19.0106 17.2693 19.4072 17.2693 19.8206V23.1936C17.2666 23.5516 17.408 23.8958 17.6621 24.1498C17.9161 24.4038 18.2618 24.5467 18.6224 24.5467H20.7854C21.7957 24.5493 22.7654 24.1527 23.4807 23.4445C24.1959 22.7363 24.5979 21.7746 24.5979 20.7717V11.1627C24.5979 10.3526 24.2362 9.58419 23.6102 9.06445L16.252 3.23041C14.972 2.2075 13.138 2.24053 11.8962 3.30885L4.70586 9.06445C4.05033 9.56887 3.65852 10.3396 3.63916 11.1627V20.7619C3.63916 22.8522 5.34607 24.5467 7.45164 24.5467H9.56529C10.3142 24.5467 10.9229 23.9469 10.9283 23.2034L10.9579 23.1936Z" fill="#E3000F"/>
</svg>
