<svg width="32" height="32" viewBox="0 0 32 32" fill="none" xmlns="http://www.w3.org/2000/svg">
<path d="M3.66667 24.8667C3.12 24.8667 2.66667 24.4133 2.66667 23.8667V16.2667C2.6 12.6533 3.94667 9.24 6.45334 6.68C8.96 4.13334 12.32 2.73334 15.9333 2.73334C23.32 2.73334 29.3333 8.74667 29.3333 16.1333V23.7333C29.3333 24.28 28.88 24.7333 28.3333 24.7333C27.7867 24.7333 27.3333 24.28 27.3333 23.7333V16.1333C27.3333 9.85334 22.2267 4.73334 15.9333 4.73334C12.8533 4.73334 10 5.92 7.88 8.08C5.74667 10.2533 4.61334 13.1467 4.66667 16.24V23.8533C4.66667 24.4133 4.22667 24.8667 3.66667 24.8667Z" fill="white"/>
<path d="M7.92008 16.6H7.74675C4.94675 16.6 2.66675 18.88 2.66675 21.68V24.1867C2.66675 26.9867 4.94675 29.2667 7.74675 29.2667H7.92008C10.7201 29.2667 13.0001 26.9867 13.0001 24.1867V21.68C13.0001 18.88 10.7201 16.6 7.92008 16.6Z" fill="white"/>
<path d="M24.2533 16.6H24.08C21.28 16.6 19 18.88 19 21.68V24.1867C19 26.9867 21.28 29.2667 24.08 29.2667H24.2533C27.0533 29.2667 29.3333 26.9867 29.3333 24.1867V21.68C29.3333 18.88 27.0533 16.6 24.2533 16.6Z" fill="white"/>
</svg>
