<svg width="32" height="32" viewBox="0 0 32 32" fill="none" xmlns="http://www.w3.org/2000/svg">
<path d="M18.3065 4.67986L20.6532 9.37319C20.9732 10.0265 21.8265 10.6532 22.5465 10.7732L26.7999 11.4799C29.5199 11.9332 30.1599 13.9065 28.1999 15.8532L24.8932 19.1599C24.3332 19.7199 24.0265 20.7999 24.1999 21.5732L25.1465 25.6665C25.8932 28.9065 24.1732 30.1599 21.3065 28.4665L17.3199 26.1065C16.5999 25.6799 15.4132 25.6799 14.6799 26.1065L10.6932 28.4665C7.83988 30.1599 6.10655 28.8932 6.85321 25.6665L7.79988 21.5732C7.97321 20.7999 7.66655 19.7199 7.10655 19.1599L3.79988 15.8532C1.85321 13.9065 2.47988 11.9332 5.19988 11.4799L9.45321 10.7732C10.1599 10.6532 11.0132 10.0265 11.3332 9.37319L13.6799 4.67986C14.9599 2.13319 17.0399 2.13319 18.3065 4.67986Z" fill="white"/>
</svg>
