<svg width="32" height="32" viewBox="0 0 32 32" fill="none" xmlns="http://www.w3.org/2000/svg">
<path d="M19.6239 25.3302C20.1544 25.1234 20.7671 25.5755 20.6534 26.1334V26.1334C20.0001 28.6667 18.5334 29.3334 16.7334 29.3334H15.2801C13.4801 29.3334 12.0001 28.6667 11.3601 26.12V26.12C11.2504 25.5613 11.8601 25.1129 12.3903 25.3206C13.5298 25.767 14.7478 26 16.0001 26C17.2583 26 18.4825 25.7751 19.6239 25.3302Z" fill="white"/>
<path d="M20.6533 5.86669C20.7712 6.4303 20.1498 6.88922 19.6141 6.67831C18.497 6.23857 17.2783 6.00002 16 6.00002C14.7232 6.00002 13.5068 6.24153 12.3888 6.68171C11.8583 6.89059 11.2462 6.4387 11.36 5.88002V5.88002C12 3.33335 13.48 2.66669 15.28 2.66669H16.7333C18.5333 2.66669 20 3.33335 20.6533 5.86669V5.86669Z" fill="white"/>
<path d="M15.9999 7.33331C11.2133 7.33331 7.33325 11.2133 7.33325 16C7.33325 18.8 8.65325 21.28 10.7066 22.8666H10.7199C12.1866 24 14.0133 24.6666 15.9999 24.6666C18.0133 24.6666 19.8533 23.9866 21.3199 22.84H21.3333C23.3599 21.2533 24.6666 18.7733 24.6666 16C24.6666 11.2133 20.7866 7.33331 15.9999 7.33331ZM18.5733 19.1733C18.3733 19.3733 18.1199 19.4666 17.8666 19.4666C17.6133 19.4666 17.3599 19.3733 17.1599 19.1733L15.2933 17.3066C15.1066 17.12 14.9999 16.8666 14.9999 16.6V12.88C14.9999 12.3333 15.4533 11.88 15.9999 11.88C16.5466 11.88 16.9999 12.3333 16.9999 12.88V16.1866L18.5733 17.76C18.9599 18.1466 18.9599 18.7866 18.5733 19.1733Z" fill="white"/>
</svg>
