<svg width="32" height="32" viewBox="0 0 32 32" fill="none" xmlns="http://www.w3.org/2000/svg">
<path d="M21.6534 2.66669H10.3467C6.66671 2.66669 5.33337 4.00002 5.33337 7.74669V24.2534C5.33337 28 6.66671 29.3334 10.3467 29.3334H21.64C25.3334 29.3334 26.6667 28 26.6667 24.2534V7.74669C26.6667 4.00002 25.3334 2.66669 21.6534 2.66669ZM16 25.7334C14.72 25.7334 13.6667 24.68 13.6667 23.4C13.6667 22.12 14.72 21.0667 16 21.0667C17.28 21.0667 18.3334 22.12 18.3334 23.4C18.3334 24.68 17.28 25.7334 16 25.7334ZM18.6667 8.33335H13.3334C12.7867 8.33335 12.3334 7.88002 12.3334 7.33335C12.3334 6.78669 12.7867 6.33335 13.3334 6.33335H18.6667C19.2134 6.33335 19.6667 6.78669 19.6667 7.33335C19.6667 7.88002 19.2134 8.33335 18.6667 8.33335Z" fill="white"/>
</svg>
