<svg width="32" height="32" viewBox="0 0 32 32" fill="none" xmlns="http://www.w3.org/2000/svg">
<path d="M23.4133 2.66669H8.54663C5.30663 2.66669 2.66663 5.30669 2.66663 8.54669V17.2134V17.48C2.66663 20.7334 5.30663 23.36 8.54663 23.36H13.6666C14.4 23.36 15 23.96 15 24.6934V25.9867C15 26.72 14.4 27.32 13.6666 27.32H10.44C9.89329 27.32 9.43996 27.7734 9.43996 28.32C9.43996 28.8667 9.87996 29.3334 10.44 29.3334H21.5733C22.12 29.3334 22.5733 28.88 22.5733 28.3334C22.5733 27.7867 22.12 27.3334 21.5733 27.3334H18.3466C17.6133 27.3334 17.0133 26.7334 17.0133 26V24.7067C17.0133 23.9734 17.6133 23.3734 18.3466 23.3734H23.4266C26.68 23.3734 29.3066 20.7334 29.3066 17.4934V17.2267V8.56002C29.2933 5.30669 26.6533 2.66669 23.4133 2.66669Z" fill="white"/>
</svg>
