<svg width="28" height="28" viewBox="0 0 28 28" fill="none" xmlns="http://www.w3.org/2000/svg">
<path d="M25.6316 21.3849C25.6316 21.8049 25.5383 22.2366 25.3399 22.6566C25.1416 23.0766 24.8849 23.4733 24.5466 23.8466C23.9749 24.4766 23.3449 24.9316 22.6333 25.2233C21.9333 25.5149 21.1749 25.6666 20.3583 25.6666C19.1683 25.6666 17.8966 25.3866 16.5549 24.8149C15.2133 24.2433 13.8716 23.4733 12.5416 22.5049C11.1999 21.5249 9.92825 20.4399 8.71492 19.2383C7.51325 18.0249 6.42825 16.7533 5.45992 15.4233C4.50325 14.0933 3.73325 12.7633 3.17325 11.4449C2.61325 10.1149 2.33325 8.84325 2.33325 7.62992C2.33325 6.83659 2.47325 6.07825 2.75325 5.37825C3.03325 4.66659 3.47659 4.01325 4.09492 3.42992C4.84159 2.69492 5.65825 2.33325 6.52159 2.33325C6.84825 2.33325 7.17492 2.40325 7.46659 2.54325C7.76992 2.68325 8.03825 2.89325 8.24825 3.19659L10.9549 7.01159C11.1649 7.30325 11.3166 7.57159 11.4216 7.82825C11.5266 8.07325 11.5849 8.31825 11.5849 8.53992C11.5849 8.81992 11.5033 9.09992 11.3399 9.36825C11.1883 9.63659 10.9666 9.91659 10.6866 10.1966L9.79992 11.1183C9.67159 11.2466 9.61325 11.3983 9.61325 11.5849C9.61325 11.6783 9.62492 11.7599 9.64825 11.8533C9.68325 11.9466 9.71825 12.0166 9.74159 12.0866C9.95159 12.4716 10.3133 12.9733 10.8266 13.5799C11.3516 14.1866 11.9116 14.8049 12.5183 15.4233C13.1483 16.0416 13.7549 16.6133 14.3733 17.1383C14.9799 17.6516 15.4816 18.0016 15.8783 18.2116C15.9366 18.2349 16.0066 18.2699 16.0883 18.3049C16.1816 18.3399 16.2749 18.3516 16.3799 18.3516C16.5783 18.3516 16.7299 18.2816 16.8583 18.1533L17.7449 17.2783C18.0366 16.9866 18.3166 16.7649 18.5849 16.6249C18.8533 16.4616 19.1216 16.3799 19.4133 16.3799C19.6349 16.3799 19.8683 16.4266 20.1249 16.5316C20.3816 16.6366 20.6499 16.7883 20.9416 16.9866L24.8033 19.7283C25.1066 19.9383 25.3166 20.1833 25.4449 20.4749C25.5616 20.7666 25.6316 21.0583 25.6316 21.3849Z" stroke="#0F0F0E" stroke-width="1.75" stroke-miterlimit="10"/>
</svg>
