<svg width="14" height="14" viewBox="0 0 14 14" fill="none" xmlns="http://www.w3.org/2000/svg">
<path d="M9.42847 13C9.98075 13 10.4285 12.5523 10.4285 12C10.4285 11.4477 9.98075 11 9.42847 11C8.87618 11 8.42847 11.4477 8.42847 12C8.42847 12.5523 8.87618 13 9.42847 13Z" fill="white"/>
<path d="M4.85718 13C5.40946 13 5.85718 12.5523 5.85718 12C5.85718 11.4477 5.40946 11 4.85718 11C4.30489 11 3.85718 11.4477 3.85718 12C3.85718 12.5523 4.30489 13 4.85718 13Z" fill="white"/>
<path d="M2.90861 2.39429L2.79432 3.79429C2.77146 4.06286 2.98289 4.28572 3.25146 4.28572H12C12.24 4.28572 12.44 4.10286 12.4572 3.86286C12.5315 2.85143 11.76 2.02858 10.7486 2.02858H3.72575C3.66861 1.77715 3.55432 1.53715 3.37718 1.33715C3.09146 1.03429 2.69146 0.857147 2.28003 0.857147H1.28575C1.05146 0.857147 0.857178 1.05143 0.857178 1.28572C0.857178 1.52 1.05146 1.71429 1.28575 1.71429H2.28003C2.45718 1.71429 2.62289 1.78858 2.74289 1.91429C2.86289 2.04572 2.92004 2.21715 2.90861 2.39429Z" fill="white"/>
<path d="M11.8628 5.14285H3.09707C2.85707 5.14285 2.66278 5.32571 2.63993 5.56L2.43421 8.04571C2.35421 9.02285 3.11993 9.85714 4.09707 9.85714H10.4514C11.3085 9.85714 12.0628 9.15428 12.1256 8.29714L12.3142 5.62857C12.3371 5.36571 12.1314 5.14285 11.8628 5.14285Z" fill="white"/>
</svg>
