<svg width="32" height="32" viewBox="0 0 32 32" fill="none" xmlns="http://www.w3.org/2000/svg">
<g opacity="0.7">
<path d="M16 12.88V16.6L17.8667 18.4667" stroke="#0F0F0E" stroke-width="2" stroke-linecap="round" stroke-linejoin="round"/>
<path d="M7.33325 16C7.33325 11.2133 11.2133 7.33333 15.9999 7.33333C20.7866 7.33333 24.6666 11.2133 24.6666 16C24.6666 18.7733 23.3599 21.2533 21.3333 22.84H21.3199C19.8533 23.9867 18.0133 24.6667 15.9999 24.6667C14.0133 24.6667 12.1866 24 10.7199 22.8667H10.7066C8.65325 21.28 7.33325 18.8 7.33325 16Z" stroke="#0F0F0E" stroke-width="2" stroke-linecap="round" stroke-linejoin="round"/>
<path d="M10.7068 22.8667H10.7201C12.1868 24 14.0135 24.6667 16.0001 24.6667C18.0135 24.6667 19.8535 23.9867 21.3201 22.84H21.3335L20.6535 26.1333C20.0001 28.6667 18.5335 29.3333 16.7335 29.3333H15.2801C13.4801 29.3333 12.0001 28.6667 11.3601 26.12L10.7068 22.8667Z" stroke="#0F0F0E" stroke-width="2" stroke-linecap="round" stroke-linejoin="round"/>
<path d="M10.7068 9.13333H10.7201C12.1868 8 14.0135 7.33333 16.0001 7.33333C18.0135 7.33333 19.8535 8.01333 21.3201 9.16H21.3335L20.6535 5.86667C20.0001 3.33333 18.5335 2.66667 16.7335 2.66667H15.2801C13.4801 2.66667 12.0001 3.33333 11.3601 5.88L10.7068 9.13333Z" stroke="#0F0F0E" stroke-width="2" stroke-linecap="round" stroke-linejoin="round"/>
</g>
</svg>
