<svg width="18" height="18" viewBox="0 0 18 18" fill="none" xmlns="http://www.w3.org/2000/svg">
<path d="M14.265 2.61C12.81 1.155 11.385 1.1175 9.89249 2.61L8.98499 3.5175C8.90999 3.5925 8.87999 3.7125 8.90999 3.8175C9.47999 5.805 11.07 7.395 13.0575 7.965C13.0875 7.9725 13.1175 7.98 13.1475 7.98C13.23 7.98 13.305 7.95 13.365 7.89L14.265 6.9825C15.0075 6.2475 15.3675 5.535 15.3675 4.815C15.375 4.0725 15.015 3.3525 14.265 2.61Z" fill="white"/>
<path d="M11.7075 8.6476C11.49 8.5426 11.28 8.4376 11.0775 8.3176C10.9125 8.2201 10.755 8.1151 10.5975 8.0026C10.47 7.9201 10.32 7.8001 10.1775 7.6801C10.1625 7.6726 10.11 7.6276 10.05 7.5676C9.80249 7.3576 9.52499 7.0876 9.27749 6.7876C9.25499 6.7726 9.21749 6.7201 9.16499 6.6526C9.08999 6.5626 8.96249 6.4126 8.84999 6.2401C8.75999 6.1276 8.65499 5.9626 8.55749 5.7976C8.43749 5.5951 8.33249 5.3926 8.22749 5.1826C8.21161 5.14855 8.19623 5.11468 8.18132 5.081C8.07064 4.83101 7.74467 4.75793 7.55135 4.95124L3.25499 9.2476C3.1575 9.3451 3.06749 9.5326 3.04499 9.6601L2.63999 12.5326C2.56499 13.0426 2.7075 13.5226 3.0225 13.8451C3.2925 14.1076 3.66749 14.2501 4.07249 14.2501C4.16249 14.2501 4.25249 14.2426 4.34249 14.2276L7.22249 13.8226C7.35749 13.8001 7.54499 13.7101 7.63499 13.6126L11.926 9.32161C12.1206 9.12695 12.0472 8.79285 11.794 8.68481C11.7655 8.67264 11.7367 8.66025 11.7075 8.6476Z" fill="white"/>
</svg>
