<svg width="31" height="20" viewBox="0 0 31 20" fill="none" xmlns="http://www.w3.org/2000/svg">
<path d="M0.00012207 6.81812H31.0001V13.1818H0.00012207V6.81812Z" fill="#E6E7E8"/>
<path d="M26.1562 0H4.84375C1.6338 0 0 2.23864 0 5V6.81818H31V5C31 2.23864 29.3662 0 26.1562 0Z" fill="#EC1C24"/>
<path d="M0.00012207 15.0001C0.00012207 17.7614 1.63392 20.0001 4.84387 20.0001H26.1564C29.3663 20.0001 31.0001 17.7614 31.0001 15.0001V13.1819H0.00012207V15.0001Z" fill="#25333A"/>
<path fill-rule="evenodd" clip-rule="evenodd" d="M17.7497 8.36716C17.7972 8.77443 17.7962 9.18261 17.8171 9.5917C17.8568 10.3735 17.8878 11.159 17.9217 11.9431V12.0849C17.6664 11.8594 17.4325 11.6549 17.2009 11.4481C17.1946 11.4276 17.2053 11.4135 17.2208 11.3994C17.2629 11.3549 17.2479 11.3022 17.2445 11.254C17.2208 10.9153 17.214 10.5753 17.1951 10.2353C17.1699 9.74443 17.1544 9.25443 17.1234 8.76352C17.1152 8.61306 17.167 8.50488 17.3051 8.42943C17.3918 8.38125 17.4499 8.40079 17.4528 8.49534C17.4606 8.67943 17.4673 8.86306 17.478 9.04715C17.5085 9.5767 17.526 10.1072 17.5531 10.6362C17.5657 10.8822 17.5909 11.1272 17.5826 11.3722C17.5797 11.4458 17.5846 11.5176 17.5967 11.5612C17.5565 11.4076 17.5889 11.2235 17.5734 11.0399C17.5448 10.7276 17.5385 10.414 17.5245 10.1003C17.5037 9.56534 17.4707 9.03261 17.4543 8.49761C17.4504 8.3267 17.4887 8.30397 17.6669 8.36397C17.694 8.36852 17.7226 8.35216 17.7497 8.36716ZM13.9571 11.539C13.7561 11.7144 13.5541 11.8894 13.339 12.0749C13.339 11.9067 13.3332 11.7617 13.34 11.614C13.3826 10.6335 13.4286 9.65215 13.4727 8.66988C13.4775 8.56852 13.4897 8.46806 13.4993 8.3667C13.5279 8.35579 13.5478 8.39579 13.5778 8.37534C13.6057 8.35554 13.638 8.34201 13.6723 8.33579C13.7517 8.32306 13.7968 8.35852 13.7968 8.43443C13.7968 8.66761 13.7803 8.89806 13.7682 9.12806C13.7599 9.30806 13.7459 9.48806 13.741 9.66806C13.7289 10.0735 13.7042 10.4781 13.6883 10.8812C13.6781 11.1067 13.6732 11.3331 13.6592 11.5567C13.6776 11.3462 13.6776 11.1317 13.6868 10.9199C13.7178 10.2381 13.7498 9.55625 13.7822 8.87443C13.7871 8.75261 13.8011 8.62943 13.7963 8.50625C13.7943 8.46488 13.8011 8.42352 13.8476 8.4067C13.8883 8.38988 13.9198 8.4167 13.9537 8.43443C14.0825 8.50625 14.1315 8.60943 14.1252 8.75125C14.0967 9.32875 14.0699 9.90633 14.0448 10.484C14.0331 10.7435 14.0351 11.0049 14.0026 11.2649C13.9934 11.3553 13.9677 11.4462 13.9571 11.539Z" fill="#BF9200"/>
<path fill-rule="evenodd" clip-rule="evenodd" d="M13.957 11.5391C13.924 11.4548 13.9226 11.3624 13.9531 11.2773C13.9696 11.2745 13.9957 11.3159 14.0025 11.2705C14.0064 11.2295 14.019 11.1914 14.019 11.1523C14.019 10.8877 14.0388 10.6236 14.0524 10.3614C14.0718 9.98636 14.081 9.61045 14.1091 9.23682C14.1192 9.11091 14.1178 8.98363 14.1207 8.85818C14.1226 8.79045 14.1192 8.70682 14.2064 8.68682C14.2931 8.66727 14.3445 8.73409 14.3919 8.79409C14.4205 8.83045 14.4225 8.87454 14.4195 8.91909C14.3939 9.27591 14.3885 9.63227 14.3697 9.98954C14.3532 10.3359 14.3401 10.6818 14.3227 11.0295C14.3479 10.5177 14.3726 10.0055 14.3934 9.49273C14.3987 9.33136 14.4118 9.17 14.4166 9.00636C14.4205 8.87682 14.4573 8.85182 14.5973 8.86409C14.6627 8.87091 14.7257 8.88273 14.7925 8.88682C14.823 8.89773 14.8565 8.90818 14.8657 8.94273C14.8521 8.98909 14.808 8.98409 14.7727 8.985C14.6956 8.99 14.6695 9.03227 14.6908 9.09409C14.7155 9.16 14.7063 9.22772 14.7097 9.29363C14.7063 9.35363 14.7048 9.41363 14.6995 9.47363C14.6831 9.60519 14.6748 9.73754 14.6748 9.87C14.6719 10.11 14.6477 10.3514 14.6409 10.5909C14.6167 10.6793 14.6109 10.7713 14.624 10.8618C14.6303 10.8909 14.6395 10.92 14.6472 10.9491C14.6545 10.9923 14.6356 11.0314 14.6104 11.065C14.5981 11.0776 14.583 11.0877 14.5662 11.0943C14.5494 11.101 14.5313 11.1042 14.513 11.1036C14.466 11.0968 14.4457 11.1327 14.4191 11.1545L13.957 11.5391ZM17.2236 11.4318C17.2154 11.4382 17.2076 11.4436 17.2003 11.4505C17.1006 11.3632 16.9988 11.2768 16.9005 11.1877C16.8933 11.1682 16.9025 11.1527 16.9141 11.1373C16.9238 11.1205 16.9213 11.1027 16.9213 11.0841C16.9141 10.5486 16.8831 10.0164 16.8545 9.48273C16.8443 9.28863 16.8521 9.09272 16.8293 8.89909C16.8236 8.86571 16.8318 8.83155 16.8521 8.80363C16.8986 8.74182 16.9504 8.66863 17.0429 8.68954C17.1291 8.70954 17.1267 8.79363 17.1277 8.86091C17.1437 9.45273 17.1824 10.0445 17.21 10.6364C17.2197 10.8482 17.21 11.0627 17.2435 11.2741C17.2507 11.3245 17.259 11.3818 17.2236 11.4318ZM16.9175 11.7573C16.9272 11.8427 16.9645 11.8632 17.0599 11.8377C17.2076 11.7977 17.4149 11.8927 17.3849 12.0691C17.3781 12.1173 17.3912 12.1491 17.443 12.1718C17.5191 12.205 17.5462 12.2977 17.6392 12.3136C17.6528 12.3168 17.66 12.3427 17.6479 12.3514C17.5607 12.3991 17.5864 12.5141 17.5041 12.5655C17.4929 12.5736 17.4769 12.5873 17.4755 12.5991C17.4697 12.7564 17.3457 12.7845 17.2168 12.8105C16.6055 12.9355 15.986 12.9473 15.3646 12.9355C14.9063 12.9282 14.4491 12.9045 14.0006 12.8014C13.8824 12.7759 13.8073 12.7341 13.7666 12.6105C13.7343 12.5245 13.6863 12.4445 13.6247 12.3741C13.5888 12.3327 13.5985 12.3286 13.6387 12.2977C13.74 12.2205 13.879 12.1736 13.8708 12.0041C13.8645 11.8827 14.0471 11.7923 14.19 11.8368C14.283 11.8655 14.3222 11.8441 14.3324 11.7573C14.3634 11.7514 14.3755 11.7718 14.3866 11.7923C14.4031 11.825 14.3992 11.8582 14.3948 11.8927C14.389 11.908 14.3777 11.9208 14.3629 11.9291C14.3178 11.9491 14.2733 11.9373 14.2302 11.9255C14.1992 11.9159 14.1609 11.9023 14.1333 11.9332C14.0989 11.9736 14.1512 11.9855 14.1657 12.0109C14.1735 12.0231 14.1768 12.0373 14.1754 12.0514C14.1682 12.075 14.1473 12.0873 14.127 12.0986C14.0568 12.1136 13.9986 12.1432 13.9676 12.2105C13.9536 12.2432 13.9168 12.2609 13.8829 12.2823C13.7879 12.3445 13.7787 12.3936 13.8494 12.4773C13.8625 12.4941 13.8838 12.5105 13.8882 12.5305C13.9168 12.6641 14.0272 12.6868 14.1449 12.7086C14.5416 12.7805 14.9446 12.8123 15.3495 12.8145C15.7123 12.8177 16.0737 12.8241 16.4355 12.7927C16.6918 12.7705 16.9485 12.7464 17.1984 12.6868C17.272 12.6695 17.3268 12.6427 17.3447 12.5668C17.3529 12.5318 17.38 12.5027 17.4038 12.4741C17.4672 12.4005 17.4634 12.3445 17.3844 12.2914C17.3304 12.2623 17.2856 12.2202 17.2546 12.1695C17.2231 12.1109 17.163 12.1191 17.103 12.1268C16.9398 12.1527 16.7823 12.1968 16.6201 12.2264C16.5988 12.2236 16.5847 12.2127 16.5726 12.195C16.5614 12.1788 16.5548 12.1602 16.5534 12.1409C16.5521 12.1217 16.556 12.1024 16.5648 12.085C16.5735 12.0691 16.5877 12.0564 16.605 12.0491C16.7804 12.1164 16.9301 12.0091 17.0943 11.9905C17.117 11.9873 17.1296 11.9709 17.1272 11.9514C17.119 11.9218 17.0938 11.9136 17.0628 11.9177C17.0071 11.9236 16.9523 11.955 16.8933 11.9327C16.8777 11.9245 16.8655 11.9117 16.8584 11.8964C16.8493 11.8623 16.8515 11.8265 16.8647 11.7936C16.8748 11.7727 16.8865 11.7518 16.9194 11.7573" fill="#BF9200"/>
<path fill-rule="evenodd" clip-rule="evenodd" d="M16.9235 11.168L16.9002 11.1848C16.8295 11.1567 16.7951 11.0785 16.7157 11.0608C16.7078 11.0666 16.6985 11.0705 16.6886 11.072C16.6786 11.0735 16.6685 11.0726 16.659 11.0694C16.614 11.0417 16.598 11.0035 16.6004 10.9553C16.6048 10.9253 16.6183 10.8976 16.6232 10.8662C16.6382 10.7787 16.6334 10.6892 16.6091 10.6035C16.5995 10.3417 16.5733 10.0821 16.5723 9.81939C16.5723 9.73257 16.5859 9.6403 16.5307 9.56075C16.5113 9.54814 16.4962 9.53065 16.4871 9.5103C16.5074 9.37984 16.5355 9.25075 16.5525 9.11893C16.566 9.0103 16.5699 9.00484 16.4561 8.9853C16.4265 8.9803 16.3946 8.9803 16.3829 8.94484C16.3917 8.90848 16.427 8.89939 16.4585 8.88712C16.5307 8.88121 16.6028 8.86757 16.675 8.86121C16.7845 8.85121 16.8252 8.88075 16.8315 8.98439C16.8421 9.19121 16.8494 9.39666 16.8586 9.60257C16.8872 10.113 16.8998 10.6267 16.9327 11.138C16.9327 11.1489 16.9269 11.1589 16.9235 11.168Z" fill="#BF9200"/>
<path fill-rule="evenodd" clip-rule="evenodd" d="M16.6712 11.0591C16.6867 11.0591 16.7012 11.0604 16.7162 11.0604L16.8073 11.405C16.8203 11.4254 16.8189 11.4432 16.7947 11.4563C16.7767 11.465 16.7525 11.4332 16.7361 11.465C16.6576 11.6082 16.6876 11.7413 16.8281 11.8427C16.847 11.855 16.8668 11.865 16.8756 11.8882C16.8842 11.8955 16.8932 11.9023 16.9027 11.9086C16.9017 11.9591 16.8567 11.9627 16.8242 11.9709C16.7395 11.9873 16.6576 12.0127 16.5704 12.0073C16.5399 12.0072 16.5096 12.0133 16.4818 12.025C16.3084 12.0568 16.133 12.055 15.9586 12.0491C15.9281 12.0473 15.8923 12.0445 15.8826 12.0827C15.8744 12.1191 15.9058 12.1309 15.9364 12.1391C16.0139 12.1636 16.0947 12.1545 16.1732 12.1586C16.2168 12.1609 16.2652 12.1468 16.2992 12.1882C16.3045 12.245 16.2565 12.2477 16.2163 12.2541C16.1669 12.2609 16.1168 12.2618 16.0671 12.2568C15.9674 12.2513 15.8763 12.2686 15.8022 12.3386C15.7926 12.3494 15.7803 12.3577 15.7663 12.3627C15.6879 12.3877 15.622 12.305 15.5217 12.3604C15.4622 12.3945 15.3687 12.2918 15.3231 12.215C15.3186 12.1994 15.3179 12.1831 15.3212 12.1673C15.3285 12.1318 15.391 12.1182 15.3672 12.0754C15.3415 12.0313 15.2902 12.0532 15.2514 12.0491C15.1657 12.0409 15.0742 12.0854 14.9972 12.0227C14.9928 11.9504 15.0713 11.96 15.1066 11.9245C15.128 11.9075 15.1547 11.8975 15.1827 11.8959C15.2001 11.8959 15.2151 11.9018 15.2292 11.9118C15.2422 11.9236 15.2563 11.9395 15.2762 11.9377C15.3963 11.9263 15.4946 11.9654 15.5847 12.0336C15.607 12.0504 15.6336 12.0577 15.6578 12.0382C15.7542 11.9686 15.8613 11.9273 15.9887 11.9359C16.0017 11.9359 16.0124 11.92 16.024 11.9109C16.0371 11.9013 16.0526 11.8952 16.0691 11.8932C16.1538 11.9245 16.2139 11.9218 16.2575 11.8259C16.2958 11.74 16.3466 11.7477 16.4571 11.8404C16.5346 11.7395 16.5341 11.7182 16.4406 11.5895C16.3873 11.6309 16.3878 11.7282 16.2987 11.7273C16.2158 11.7273 16.1979 11.6468 16.1495 11.6036C16.1044 11.6518 16.1398 11.7495 16.0386 11.7623C15.9911 11.7332 15.9872 11.69 15.9954 11.6441C16.0318 11.5463 16.026 11.4468 16.0153 11.3477C16.0189 11.3314 16.0261 11.3161 16.0366 11.3027C16.0875 11.2463 16.0754 11.1736 16.0938 11.1086C16.1102 11.0527 16.1083 10.9741 16.1921 10.9673C16.2667 10.9627 16.2996 11.03 16.336 11.08C16.3459 11.093 16.3521 11.1082 16.3539 11.1241C16.3486 11.08 16.3694 11.0241 16.4023 10.9741C16.4454 10.9095 16.5258 10.9154 16.5849 10.9841C16.6092 11.0127 16.6198 11.0573 16.6712 11.0591Z" fill="#BF9200"/>
<path fill-rule="evenodd" clip-rule="evenodd" d="M15.1613 11.9727C15.1138 12.0127 15.0475 11.9777 14.9981 12.0123C14.9307 12.0877 14.8518 12.02 14.7791 12.0268C14.7462 12.0209 14.7171 12.005 14.6837 12.0073C14.5956 12.0127 14.5118 11.9873 14.427 11.9709C14.3936 11.9627 14.348 11.9595 14.3461 11.9086C14.3557 11.9024 14.3647 11.8956 14.3732 11.8882C14.3815 11.865 14.4018 11.8554 14.4207 11.8427C14.5597 11.7413 14.5922 11.6082 14.5142 11.4663C14.4963 11.4354 14.473 11.465 14.4541 11.4568C14.4289 11.4436 14.4289 11.4259 14.4415 11.4054C14.4522 11.3018 14.5127 11.2091 14.5127 11.1041C14.5185 11.092 14.5276 11.0816 14.5389 11.0738C14.5503 11.066 14.5636 11.0611 14.5776 11.0595C14.6125 11.0595 14.6328 11.0391 14.6483 11.0113C14.6774 10.9618 14.7186 10.9223 14.7849 10.93C14.8498 10.9377 14.86 10.9945 14.8799 11.0418C14.8852 11.0536 14.8852 11.0695 14.8978 11.0795C14.906 11.0813 14.9104 11.0773 14.9162 11.0704C14.9583 11.0268 14.9884 10.9523 15.0654 10.9691C15.1526 10.9877 15.1439 11.0732 15.1594 11.1377C15.172 11.1891 15.1691 11.2459 15.2214 11.2823C15.2339 11.2931 15.2426 11.3072 15.2466 11.3227C15.2252 11.435 15.2097 11.545 15.2659 11.6541C15.2693 11.6959 15.2587 11.7313 15.2214 11.7568C15.1056 11.7609 15.1492 11.65 15.0993 11.605C14.9608 11.7741 14.939 11.7741 14.8145 11.5954C14.7205 11.6927 14.7176 11.7154 14.7825 11.8382C14.8179 11.8395 14.829 11.8045 14.8528 11.7895C14.9022 11.7573 14.9564 11.755 14.9811 11.8045C15.0165 11.8873 15.0896 11.9273 15.1613 11.9727ZM15.2964 7.94407C15.3178 7.81498 15.3551 7.68862 15.3468 7.55726C15.3454 7.51376 15.3327 7.47124 15.3097 7.43344C15.2868 7.39564 15.2543 7.3637 15.2151 7.34044C15.1915 7.32878 15.1652 7.32285 15.1385 7.32317C15.0978 7.31907 15.0455 7.40544 15.0194 7.31907C15.0084 7.28586 15.0078 7.25041 15.0175 7.21686C15.0272 7.18331 15.0468 7.15302 15.0741 7.12953C15.0882 7.11726 15.109 7.10589 15.125 7.1068C15.3555 7.1218 15.588 7.03726 15.8181 7.13135C15.9387 7.18226 16.0128 7.25544 16.0211 7.38135C16.0312 7.40317 16.0346 7.42362 16.009 7.43726C15.9721 7.43726 15.9523 7.41271 15.9407 7.3868C15.9 7.2918 15.8147 7.28453 15.7416 7.32498C15.5924 7.41044 15.4781 7.35453 15.3686 7.26498C15.3234 7.2305 15.2716 7.20443 15.216 7.18817C15.3168 7.21089 15.3996 7.2768 15.4737 7.34771C15.527 7.3968 15.5449 7.45089 15.4805 7.5168C15.404 7.59362 15.449 7.70271 15.4175 7.79407C15.3933 7.8618 15.4117 7.94953 15.3134 7.9818C15.2945 7.97453 15.2872 7.96271 15.2964 7.94407ZM16.177 8.36726C16.1998 8.41998 16.2492 8.41044 16.2943 8.40817C16.504 8.40089 16.6881 8.32271 16.8692 8.23407C16.8896 8.22226 16.9002 8.2318 16.908 8.24862C16.906 8.30862 16.8547 8.33408 16.8091 8.35953C16.7324 8.40056 16.6501 8.43174 16.5645 8.45226C16.4623 8.47998 16.3635 8.51998 16.2662 8.5468C16.133 8.58498 15.9794 8.65998 15.8283 8.56862C15.7881 8.54498 15.7484 8.53908 15.6999 8.5668C15.589 8.63317 15.5231 8.60044 15.4926 8.47226C15.4949 8.46483 15.4988 8.45793 15.504 8.45199C15.5093 8.44604 15.5158 8.44118 15.5231 8.43771C15.666 8.43498 15.6699 8.43271 15.668 8.28998C15.668 8.25271 15.6612 8.21726 15.6655 8.18135C15.6801 8.11226 15.6839 8.04226 15.683 7.97271C15.6825 7.93317 15.6747 7.89317 15.7145 7.86544C15.7915 7.86271 15.7832 7.91862 15.7866 7.96271C15.7949 8.08498 15.7832 8.2068 15.8113 8.32862C15.822 8.37817 15.8394 8.41726 15.9097 8.44362C15.852 8.29841 15.8135 8.14714 15.7949 7.99317C15.7915 7.96044 15.7857 7.92907 15.7876 7.89635C15.7891 7.85226 15.7915 7.79908 15.853 7.79908C15.9005 7.79817 15.9223 7.84271 15.9252 7.88498C15.9295 7.9418 15.946 7.99726 15.9523 8.05498C15.9625 8.15226 15.9857 8.2468 16.0288 8.33635C16.0477 8.37317 16.0685 8.42498 16.1305 8.37817C16.1446 8.36726 16.1591 8.36089 16.177 8.36726Z" fill="#BF9200"/>
<path fill-rule="evenodd" clip-rule="evenodd" d="M15.2963 7.94398C15.3035 7.95443 15.3103 7.96443 15.319 7.97443C15.3679 8.0208 15.336 8.06989 15.321 8.11489C15.2861 8.21989 15.2154 8.30807 15.1582 8.40443C15.2357 8.38671 15.2662 8.32943 15.2895 8.26943C15.3335 8.15807 15.3762 8.0458 15.3926 7.92489C15.3951 7.91625 15.3926 7.90352 15.397 7.89489C15.4212 7.84807 15.4091 7.7658 15.4861 7.77262C15.5733 7.78034 15.5346 7.85625 15.5317 7.90443C15.5183 8.09579 15.4585 8.28176 15.3568 8.44807C15.3428 8.46989 15.3282 8.48943 15.3263 8.51625C15.3006 8.53852 15.3006 8.56625 15.3074 8.5958C15.2653 8.64489 15.2202 8.66171 15.1848 8.59489C15.1616 8.55034 15.1335 8.56262 15.0986 8.57125C15.0303 8.58807 14.9698 8.57943 14.9238 8.52398C14.8913 8.48671 14.8448 8.48171 14.7978 8.4758C14.6758 8.45898 14.5583 8.42057 14.4515 8.36262C14.4011 8.33898 14.3454 8.31352 14.3411 8.24852C14.3488 8.23171 14.3595 8.22171 14.3803 8.23398C14.5566 8.3208 14.7363 8.39489 14.9412 8.41034C15.0095 8.41398 15.0526 8.39716 15.0909 8.34034C15.1742 8.21443 15.2381 8.0808 15.2963 7.94398Z" fill="#BF9200"/>
<path fill-rule="evenodd" clip-rule="evenodd" d="M14.3805 8.2318C14.3703 8.23771 14.3611 8.24453 14.3504 8.25226C14.301 8.28862 14.2565 8.2618 14.2109 8.24271C14.1096 8.19953 14.0021 8.17073 13.8917 8.15726C13.7605 8.14044 13.6631 8.19862 13.6103 8.31453C13.5909 8.3609 13.5667 8.40817 13.5401 8.45089C13.4868 8.43862 13.5328 8.38499 13.4994 8.36499C13.5488 8.13771 13.6912 8.04226 13.9334 8.07362C14.0952 8.09453 14.2434 8.14635 14.3805 8.2318ZM16.8987 8.25453C16.8898 8.24664 16.8799 8.23977 16.8692 8.23408C17.0193 8.14044 17.1835 8.08635 17.3608 8.06999C17.5686 8.05044 17.7047 8.15726 17.7498 8.36726L17.727 8.43726C17.6684 8.41726 17.6592 8.36135 17.6393 8.3168C17.5836 8.19862 17.4834 8.14044 17.3463 8.16044C17.2397 8.1751 17.1359 8.20371 17.0377 8.24544C16.9927 8.26408 16.9477 8.29044 16.8987 8.25453ZM16.177 8.36726C16.1688 8.37554 16.1612 8.38435 16.1542 8.39362C16.0976 8.39271 16.0748 8.3559 16.0593 8.31408C16.0079 8.19827 15.98 8.07449 15.977 7.94908C15.9871 7.90635 16.0007 7.86317 16.0462 7.83862C16.0748 8.01771 16.099 8.19771 16.177 8.36726Z" fill="#BF9200"/>
<path fill-rule="evenodd" clip-rule="evenodd" d="M16.0475 7.84082C16.0373 7.87718 16.0513 7.92036 16.0228 7.95491C15.9535 7.879 15.937 7.51309 16.001 7.43355C16.0073 7.41627 16.0145 7.40082 16.0218 7.38354C16.0693 7.53491 16.0494 7.68718 16.0475 7.84264M14.4413 11.4045C14.449 11.4185 14.4558 11.4345 14.4611 11.4495C14.5265 11.5326 14.4844 11.594 14.4166 11.6504C14.3778 11.654 14.3909 11.6176 14.3764 11.6031C14.3943 11.5358 14.4064 11.4658 14.4413 11.4045ZM16.7871 11.4499C16.7934 11.4354 16.7997 11.4195 16.807 11.4049C16.8418 11.4663 16.8544 11.5363 16.8719 11.604C16.8583 11.6181 16.8719 11.6545 16.8317 11.6513C16.7639 11.5949 16.7217 11.5331 16.7871 11.4499Z" fill="#BF9200"/>
<path fill-rule="evenodd" clip-rule="evenodd" d="M14.377 11.6041C14.3857 11.6191 14.3925 11.635 14.4012 11.6518C14.4463 11.7182 14.4419 11.7719 14.3528 11.8009C14.3451 11.7864 14.3397 11.7719 14.332 11.7569C14.3475 11.7064 14.362 11.655 14.377 11.6041ZM16.8493 11.6523C16.8565 11.6355 16.8633 11.6196 16.872 11.6046C16.8866 11.655 16.9016 11.7069 16.9176 11.7578C16.9093 11.7723 16.904 11.7869 16.8963 11.8019C16.8071 11.7719 16.8028 11.7187 16.8493 11.6523ZM14.7185 9.60912C14.6899 9.56185 14.6846 9.50958 14.6735 9.45821C14.6381 9.40367 14.6701 9.35094 14.6769 9.29685C14.6987 9.39185 14.7209 9.48776 14.7418 9.58367C14.7345 9.59231 14.7345 9.60821 14.7185 9.60912ZM14.6236 10.775C14.6337 10.7528 14.642 10.7309 14.6512 10.71C14.6706 10.7191 14.6594 10.7419 14.6706 10.7537C14.657 10.8209 14.6434 10.8914 14.6076 10.9532C14.6003 10.9296 14.595 10.905 14.5868 10.8796C14.6052 10.8469 14.5805 10.8 14.6236 10.775ZM14.999 8.92685C14.9515 8.93276 14.9055 8.94094 14.8595 8.94867C14.8348 8.94094 14.8096 8.93503 14.7858 8.92821C14.8362 8.90912 14.89 8.90867 14.9442 8.9064C14.967 8.90185 14.9941 8.88412 14.999 8.92685ZM14.1634 12.0414C14.253 12.0591 14.3451 12.0682 14.4298 12.0987C14.5693 12.1464 14.6386 12.0837 14.688 11.9759C14.7171 11.9723 14.7427 11.9746 14.766 11.9928C14.7975 12.0159 14.844 12.0218 14.8546 12.0687C14.8667 12.1287 14.9147 12.1419 14.9718 12.1355C15.0862 12.15 15.1995 12.165 15.3162 12.1532C15.3221 12.1542 15.3277 12.1562 15.3327 12.1593C15.3377 12.1623 15.342 12.1663 15.3453 12.1709V12.2082C15.2154 12.224 15.0839 12.2243 14.9539 12.2091C14.8328 12.1946 14.7519 12.2278 14.7025 12.3528C14.6652 12.1578 14.5112 12.1441 14.3577 12.12C14.2743 12.1087 14.1905 12.0978 14.114 12.06C14.131 12.0546 14.147 12.0473 14.1634 12.0414ZM16.5611 11.9773C16.5528 12.0223 16.6168 12.0232 16.6202 12.0605L16.5979 12.0841C16.5737 12.1037 16.5228 12.1018 16.5247 12.1446C16.5291 12.1782 16.5742 12.1714 16.5964 12.1891L16.6192 12.2123C16.596 12.255 16.5712 12.2973 16.5402 12.355C16.4986 12.2337 16.4158 12.1909 16.2976 12.2105C16.2123 12.175 16.1242 12.2014 16.0375 12.1937C15.9919 12.19 15.945 12.2 15.9043 12.1732C15.9793 12.1023 16.0767 12.1387 16.1629 12.1369C16.2671 12.1328 16.3678 12.1546 16.4158 12.0346C16.4245 12.0137 16.4618 12.0105 16.4831 11.9955C16.5044 11.9759 16.532 11.9728 16.5611 11.9773ZM16.5805 10.7537C16.57 10.7216 16.5598 10.6895 16.5499 10.6573C16.5301 10.6428 16.5078 10.6332 16.4957 10.6114C16.4175 10.442 16.3659 10.2629 16.3426 10.0796C16.3402 10.0582 16.345 10.0378 16.3387 10.0155C16.4022 9.8514 16.4913 9.69458 16.5136 9.51776C16.5247 9.52549 16.5373 9.5314 16.549 9.53912C16.5877 9.63367 16.5698 9.73412 16.5742 9.83231C16.5858 10.1219 16.5877 10.4128 16.6299 10.6991C16.6245 10.7273 16.6197 10.7546 16.5805 10.7537ZM16.3911 8.94912C16.3015 8.95003 16.2191 8.92458 16.1343 8.90594C16.1377 8.86276 16.1668 8.88049 16.1896 8.88412C16.2806 8.89867 16.3736 8.91367 16.4632 8.9264C16.4394 8.93472 16.4154 8.9423 16.3911 8.94912Z" fill="#BF9200"/>
<path fill-rule="evenodd" clip-rule="evenodd" d="M16.6 10.7104C16.6087 10.7313 16.6179 10.754 16.6276 10.7754C16.6707 10.8004 16.646 10.8472 16.6639 10.8808C16.6561 10.9054 16.6508 10.9299 16.644 10.9545C16.6077 10.8913 16.5961 10.8227 16.5801 10.754C16.5859 10.7395 16.5937 10.7254 16.6 10.7104ZM16.0429 10.7772C15.9766 10.8995 15.9005 11.019 15.9499 11.1654C15.962 11.1845 15.949 11.2054 15.9533 11.2249C15.9916 11.3618 16.0327 11.4995 16.0405 11.6431C16.0304 11.6821 16.0317 11.723 16.0444 11.7613C16.103 11.8013 16.1219 11.8495 16.0647 11.9049C16.0577 11.9128 16.0509 11.9208 16.0444 11.929C16.0056 11.9331 15.9722 11.954 15.9325 11.9499C15.855 11.9408 15.7857 11.9136 15.7789 11.8327C15.7688 11.7204 15.7513 11.6077 15.7402 11.4954C15.7412 11.4268 15.7261 11.3599 15.7242 11.2918C15.7155 11.2672 15.7198 11.2395 15.7097 11.2172C15.7129 11.2243 15.715 11.2318 15.716 11.2395C15.716 11.2677 15.7261 11.2927 15.7286 11.3218C15.7421 11.4172 15.7261 11.5177 15.761 11.6118C15.76 11.6836 15.7775 11.7545 15.7741 11.8277C15.7726 11.924 15.7024 11.9977 15.6191 11.9936C15.5406 11.9908 15.4757 11.919 15.4747 11.8277C15.4733 11.7495 15.4859 11.6699 15.4927 11.5922C15.5193 11.5036 15.5111 11.4122 15.5212 11.3218C15.5251 11.2736 15.5479 11.2272 15.5426 11.1786C15.546 11.2236 15.5319 11.2654 15.5217 11.3081C15.5271 11.3704 15.5062 11.4318 15.5091 11.4936C15.4941 11.6031 15.481 11.7117 15.4728 11.8227C15.4665 11.9017 15.3934 11.9518 15.3052 11.9504C15.2699 11.9495 15.2398 11.9318 15.2054 11.9295L15.1846 11.9054C15.1289 11.8499 15.1459 11.8022 15.2045 11.7618C15.2137 11.7245 15.2219 11.6845 15.2316 11.6472C15.2229 11.5499 15.2185 11.4536 15.2597 11.3604C15.2699 11.3336 15.2597 11.3195 15.2282 11.3204C15.221 11.313 15.2144 11.3051 15.2083 11.2968C15.2476 11.2395 15.2868 11.1818 15.3265 11.1258C15.3455 11.0839 15.3561 11.0391 15.358 10.9936C15.3595 10.9163 15.3687 10.8395 15.4006 10.7658C15.4138 10.7392 15.4366 10.7177 15.4651 10.7054C15.6249 10.8145 15.6249 10.8145 15.7852 10.7031C15.8115 10.7164 15.8331 10.7366 15.8472 10.7613C15.8703 10.8161 15.8845 10.8739 15.8894 10.9327C15.8902 10.8504 15.9174 10.7702 15.9674 10.7027C15.9789 10.6897 15.9955 10.6816 16.0134 10.6799C16.055 10.6863 16.0773 10.709 16.0792 10.7486C16.0739 10.7663 16.0652 10.7804 16.0429 10.7772Z" fill="#BF9200"/>
<path fill-rule="evenodd" clip-rule="evenodd" d="M16.038 11.3449C16.0003 11.2995 15.963 11.2535 15.9242 11.2081C15.9324 11.1931 15.9407 11.1795 15.9494 11.1654C15.9954 11.2126 16.0298 11.2649 16.0603 11.3213L16.038 11.3449ZM15.4379 8.44809C15.5314 8.35082 15.5314 8.224 15.5522 8.10491C15.573 7.99173 15.5808 7.87764 15.5939 7.75854C15.6428 7.77445 15.6297 7.80173 15.6283 7.82264C15.6147 8.00673 15.5958 8.19082 15.5391 8.36854C15.5309 8.39627 15.5188 8.42309 15.5309 8.45264C15.5222 8.46036 15.5159 8.46855 15.5081 8.47491H15.4636C15.4379 8.48173 15.4316 8.47082 15.4379 8.44809ZM15.7155 8.22718C15.6825 8.07991 15.6999 7.93264 15.6927 7.77264C15.7561 7.80491 15.7343 7.84036 15.7353 7.869C15.6956 7.98673 15.7285 8.10854 15.7155 8.22718Z" fill="#BF9200"/>
<path fill-rule="evenodd" clip-rule="evenodd" d="M15.4379 8.448C15.4463 8.45737 15.4552 8.46632 15.4646 8.47482C15.4161 8.52027 15.3624 8.55572 15.2994 8.57982C15.2694 8.56027 15.2713 8.53982 15.2994 8.52027C15.3575 8.51663 15.3929 8.47391 15.4379 8.448ZM14.9991 8.92663C14.9811 8.91982 14.9623 8.91391 14.9443 8.90618C15.0838 8.86891 15.2219 8.83345 15.3619 8.79709C15.3856 8.788 15.3929 8.79618 15.3929 8.818C15.2666 8.86854 15.1344 8.90501 14.9991 8.92663ZM15.9402 8.84754C15.8488 8.82975 15.7635 8.7912 15.6917 8.73527C15.6941 8.72163 15.7063 8.72073 15.7169 8.71663L15.9712 8.82345C15.9736 8.84573 15.9673 8.85754 15.9402 8.84754Z" fill="#BF9200"/>
<path fill-rule="evenodd" clip-rule="evenodd" d="M15.3928 8.81766C15.3827 8.81039 15.3724 8.80342 15.3618 8.79675L15.5793 8.69312C15.5845 8.69483 15.5892 8.69754 15.5932 8.70106C15.5972 8.70458 15.6004 8.70884 15.6026 8.71357C15.5425 8.76812 15.4674 8.79402 15.3928 8.81766ZM15.9402 8.84766L15.9712 8.82402C16.0434 8.84402 16.1175 8.86493 16.1892 8.88402C16.1712 8.89221 16.1523 8.89812 16.1339 8.90584C16.0681 8.89221 15.9998 8.88039 15.9402 8.84766Z" fill="#BF9200"/>
<path fill-rule="evenodd" clip-rule="evenodd" d="M15.602 8.71347C15.5933 8.70665 15.5875 8.69983 15.5787 8.69302C15.6422 8.61029 15.6727 8.69029 15.7163 8.71665L15.6911 8.73529C15.6625 8.72756 15.6407 8.69074 15.602 8.71347ZM15.9256 10.4862C15.9478 10.4176 15.9527 10.3489 15.9527 10.2771C15.9507 9.86711 15.9527 9.45847 15.9507 9.04847C15.9507 9.00802 15.9716 8.96211 15.9256 8.92711C15.9193 8.92438 15.9168 8.92165 15.9193 8.91756C15.9212 8.91347 15.9231 8.91165 15.9256 8.91165C16.1096 8.9462 16.2888 9.00438 16.4802 9.00438C16.5305 9.00529 16.533 9.03574 16.5315 9.07074C16.5073 9.61029 16.3194 10.0871 15.9256 10.4862ZM15.3211 8.92665C15.2663 8.9362 15.275 8.97802 15.275 9.0112C15.275 9.45393 15.2775 9.89756 15.2731 10.3403C15.2731 10.3853 15.3065 10.4203 15.3017 10.4639C14.9922 10.1494 14.8217 9.77302 14.7461 9.35711C14.7287 9.26165 14.7262 9.16347 14.718 9.06574C14.7127 9.0212 14.7301 9.00165 14.7805 9.00165C14.9587 8.99802 15.1288 8.94756 15.2993 8.90711C15.3235 8.8962 15.3259 8.90893 15.3211 8.92665ZM14.672 10.7535C14.6662 10.7387 14.6597 10.7241 14.6526 10.7098C14.7301 10.3462 14.7219 9.97711 14.7204 9.60847L14.7437 9.58347C14.7994 9.72711 14.8561 9.86983 14.9118 10.0126C14.9244 10.0353 14.9108 10.0557 14.9142 10.0776C14.8861 10.2612 14.8367 10.4398 14.7572 10.6112C14.7466 10.633 14.7233 10.6426 14.7044 10.6562C14.6933 10.6889 14.6831 10.7226 14.672 10.7535ZM16.0428 10.7771C16.0505 10.7694 16.0563 10.7612 16.0641 10.7535C16.1581 10.7248 16.1275 10.653 16.1275 10.593C16.1256 10.5307 16.0757 10.533 16.0292 10.5298C16.021 10.5278 16.0137 10.5233 16.0084 10.5171C16.0031 10.5109 16 10.5033 15.9997 10.4953C16.1212 10.343 16.236 10.1835 16.3353 10.0153C16.345 10.0289 16.3547 10.0439 16.3649 10.0576C16.3321 10.172 16.3103 10.289 16.3 10.4071C16.2879 10.5635 16.3639 10.6253 16.5218 10.5971C16.5305 10.6157 16.5388 10.6362 16.547 10.6571C16.4613 10.7898 16.4613 10.7898 16.3339 10.6735C16.3068 10.6489 16.2777 10.6248 16.2351 10.5876L16.1828 10.958L16.0428 10.7771Z" fill="#BF9200"/>
<path fill-rule="evenodd" clip-rule="evenodd" d="M14.7021 10.6559L14.7264 10.5972C14.8339 10.6391 14.8983 10.585 14.9535 10.5095C14.9792 10.4791 14.9908 10.4377 15.0306 10.4191C15.0601 10.4141 15.0921 10.4154 15.1153 10.3904C15.1217 10.386 15.1293 10.3834 15.1372 10.3829C15.1451 10.3824 15.153 10.3841 15.1599 10.3877C15.1836 10.4154 15.217 10.4359 15.2248 10.475C15.2244 10.4847 15.2207 10.4942 15.2141 10.5018C15.1802 10.525 15.1274 10.5259 15.1114 10.5718C15.0843 10.5986 15.0834 10.6495 15.0276 10.6463C15.0151 10.6318 15.0339 10.5709 14.9807 10.6163C14.9395 10.6486 14.901 10.6837 14.8654 10.7213C14.8058 10.7868 14.7603 10.7991 14.7312 10.6995C14.7259 10.6836 14.7128 10.6704 14.7021 10.6559Z" fill="#BF9200"/>
<path fill-rule="evenodd" clip-rule="evenodd" d="M15.0401 10.4299C15.0275 10.4663 15.0144 10.5013 15.0033 10.5385C14.9669 10.5254 14.9548 10.4949 14.9524 10.4613C14.9391 10.3262 14.9159 10.1921 14.8831 10.0599C14.8914 10.0435 14.9011 10.029 14.9093 10.0122C14.9626 10.0999 15.0173 10.1854 15.0706 10.2731C15.076 10.281 15.079 10.2901 15.0793 10.2994C15.0667 10.3308 15.0682 10.3635 15.0691 10.3967C15.0653 10.4122 15.058 10.424 15.0401 10.4299ZM15.2082 10.4817C15.213 10.4776 15.2183 10.4763 15.2237 10.4735C15.3046 10.5508 15.385 10.6263 15.4639 10.704C15.466 10.7298 15.459 10.7555 15.4441 10.7772C15.385 10.7549 15.3477 10.6885 15.2711 10.704C15.2561 10.6988 15.2437 10.6886 15.2363 10.6754C15.2508 10.6076 15.1641 10.5526 15.2082 10.4817ZM15.9991 10.4954C16.0053 10.4988 16.0106 10.5035 16.0146 10.509C16.0447 10.5704 16.0282 10.6304 16.0127 10.6908L15.9904 10.7149C15.9154 10.6967 15.8616 10.7449 15.8039 10.7781C15.7851 10.7549 15.7841 10.7285 15.7826 10.7026C15.8543 10.634 15.9284 10.5649 15.9991 10.4954ZM15.3234 10.4954C15.4242 10.519 15.4775 10.589 15.5216 10.6699C15.4411 10.6272 15.3825 10.5613 15.3234 10.4954ZM15.6896 8.82036C15.6199 8.77217 15.5705 8.85399 15.5065 8.84399C15.5647 8.81399 15.6078 8.68854 15.6896 8.82036ZM15.5438 10.6681C15.6044 10.729 15.663 10.6935 15.7211 10.6631C15.7046 10.7108 15.6698 10.749 15.6199 10.749C15.5831 10.7476 15.5458 10.7144 15.5438 10.6681Z" fill="#BF9200"/>
<path fill-rule="evenodd" clip-rule="evenodd" d="M15.0644 10.309C15.0654 10.2963 15.0678 10.2854 15.0698 10.2736C15.0993 10.3117 15.1274 10.3495 15.1584 10.3876C15.1502 10.3954 15.1424 10.4036 15.1352 10.4122C15.0766 10.4158 15.0678 10.3717 15.0518 10.3363C15.0532 10.3263 15.0576 10.3168 15.0644 10.309ZM15.7862 10.6045C15.8133 10.5626 15.8293 10.5067 15.9014 10.5186C15.869 10.5554 15.8409 10.5963 15.7862 10.6045ZM15.9257 8.90991V8.92582C15.8845 8.91446 15.8346 8.91628 15.8133 8.86719C15.8547 8.86962 15.8941 8.88462 15.9257 8.90991ZM15.3212 8.92673C15.3144 8.92082 15.3071 8.91401 15.2994 8.9081C15.3333 8.88037 15.372 8.86719 15.4151 8.89037C15.3904 8.91764 15.3541 8.91992 15.3212 8.92673ZM15.2533 10.6658L15.2751 10.6899C15.3391 10.754 15.3439 10.8372 15.3589 10.9163C15.3672 10.9495 15.3638 10.9845 15.3904 11.0136C15.3895 11.0617 15.3541 11.0913 15.3255 11.1258C15.2989 11.0054 15.279 10.8836 15.2059 10.7772C15.1841 10.7831 15.1744 10.7695 15.1676 10.7513C15.1676 10.6972 15.187 10.6613 15.2533 10.6658Z" fill="#BF9200"/>
<path fill-rule="evenodd" clip-rule="evenodd" d="M15.1831 10.7513L15.2064 10.7772C15.1691 10.8291 15.1289 10.9241 15.0795 10.9145C15.0097 10.8986 15.0552 10.8009 15.0364 10.7422C15.0267 10.7113 15.0301 10.6777 15.0267 10.6463C15.0393 10.61 15.0528 10.5736 15.0654 10.5391C15.1221 10.5622 15.1168 10.6118 15.1168 10.6577C15.1168 10.7036 15.1303 10.7377 15.1831 10.7513ZM16.474 12.6268C16.4406 12.6332 16.4004 12.6477 16.3945 12.5963C16.3911 12.5491 16.4236 12.5222 16.4604 12.5009C16.5277 12.4627 16.519 12.5472 16.565 12.5672C16.5723 12.4913 16.6624 12.455 16.6358 12.3722C16.6338 12.3672 16.6532 12.3518 16.6663 12.3463C16.6697 12.3445 16.6886 12.3554 16.6895 12.3613C16.6949 12.4432 16.799 12.435 16.8247 12.4968C16.8305 12.5127 16.8571 12.5186 16.862 12.5077C16.9099 12.4227 16.9816 12.4582 17.0562 12.4786C17.0436 12.4191 17.032 12.3713 17.0218 12.3241C17.0116 12.2768 16.9947 12.2363 16.9298 12.2609C16.9022 12.2713 16.8818 12.26 16.8789 12.2368C16.8716 12.2068 16.9051 12.2082 16.9249 12.2027C17.0189 12.18 17.0586 12.2263 17.077 12.3059C17.0906 12.3782 17.0756 12.4813 17.2165 12.4309C17.2238 12.4277 17.2446 12.4436 17.2504 12.4545C17.2601 12.4741 17.2354 12.4832 17.2262 12.4822C17.1012 12.475 17.0218 12.6154 16.8867 12.5727C16.8634 12.5668 16.8532 12.5809 16.8455 12.6004C16.8121 12.6768 16.7724 12.6868 16.7002 12.6291C16.6343 12.5772 16.5728 12.6072 16.5282 12.6672C16.4841 12.6809 16.5011 12.6286 16.474 12.6268ZM15.0644 12.7409C15.1574 12.7104 15.2175 12.6736 15.1657 12.5863C15.1492 12.5582 15.1599 12.5322 15.1894 12.5241C15.2165 12.5145 15.2219 12.5427 15.2316 12.5622C15.2412 12.5822 15.248 12.6068 15.2776 12.5986C15.3081 12.5918 15.2974 12.5645 15.296 12.5445C15.2936 12.52 15.2819 12.4904 15.3144 12.4768C15.3522 12.4622 15.3522 12.5027 15.3706 12.5163C15.4263 12.5518 15.4907 12.5295 15.5503 12.535C15.6036 12.5432 15.6675 12.5295 15.6476 12.615C15.698 12.6086 15.6946 12.5686 15.7217 12.5545C15.7527 12.5391 15.7925 12.5145 15.8157 12.5391C15.837 12.5627 15.8351 12.6068 15.8351 12.6427C15.8361 12.6827 15.7997 12.6827 15.7687 12.6841C15.713 12.685 15.6568 12.6745 15.6195 12.7372C15.6016 12.7663 15.5619 12.7645 15.5285 12.7386C15.4108 12.6518 15.3124 12.6486 15.1996 12.7272C15.1671 12.7509 15.1318 12.7563 15.0644 12.7409ZM14.9201 12.6613C14.9414 12.5509 14.9622 12.4663 14.9564 12.3786C14.9545 12.3482 14.9656 12.325 14.9942 12.325C15.0426 12.325 15.0199 12.3613 15.0165 12.3809C15.0049 12.4704 14.9903 12.5591 14.9744 12.6486C14.9681 12.6791 14.9438 12.6995 14.9128 12.7086C14.8823 12.7168 14.8625 12.7004 14.8441 12.6795C14.7714 12.5868 14.661 12.5609 14.5563 12.6191C14.5215 12.6386 14.4885 12.6536 14.4367 12.6368C14.5074 12.6004 14.5588 12.5591 14.5258 12.4786C14.5195 12.4636 14.5331 12.4391 14.5534 12.4359C14.5781 12.4309 14.582 12.4545 14.5844 12.4722C14.5898 12.5045 14.5946 12.5372 14.6377 12.545C14.6585 12.5486 14.6769 12.5486 14.691 12.5345C14.7026 12.5209 14.6857 12.5104 14.6769 12.4991C14.6125 12.405 14.7457 12.4322 14.7656 12.3818C14.7816 12.3445 14.8334 12.3809 14.8344 12.4132C14.8363 12.4545 14.9671 12.4968 14.8382 12.5386C14.8605 12.5736 14.8838 12.6068 14.9201 12.6613ZM14.0812 12.2127C14.134 12.1804 14.1931 12.1722 14.2304 12.1909C14.2604 12.2068 14.2236 12.255 14.2144 12.2895C14.2124 12.2963 14.209 12.3032 14.2086 12.3109C14.2013 12.3554 14.1427 12.4191 14.1984 12.4432C14.2812 12.4759 14.2376 12.3786 14.2691 12.3536C14.2827 12.3445 14.3011 12.3413 14.3267 12.3313C14.3243 12.3554 14.3253 12.3691 14.3234 12.3827C14.3146 12.4209 14.273 12.4691 14.3485 12.485C14.4193 12.5009 14.4067 12.4582 14.4067 12.4159C14.4071 12.3841 14.4483 12.3804 14.4784 12.3791C14.4808 12.3841 14.4846 12.3877 14.4837 12.3909C14.4343 12.5827 14.4662 12.5641 14.2647 12.5186C14.209 12.5072 14.1543 12.4909 14.0991 12.475C14.0705 12.4686 14.0298 12.4722 14.0264 12.4341C14.0245 12.3941 14.0531 12.3686 14.0928 12.3532C14.1147 12.3483 14.135 12.3384 14.1519 12.3245C14.1998 12.2727 14.1746 12.2272 14.0812 12.2127ZM15.9673 12.6859C15.8743 12.6632 15.9116 12.6004 15.9441 12.5736C16.0075 12.525 16.0085 12.4722 15.9828 12.4113C15.9688 12.3772 15.9843 12.3595 16.0114 12.3554C16.0448 12.3518 16.039 12.3832 16.0419 12.4027C16.0497 12.4572 16.0545 12.51 16.0623 12.5636C16.0647 12.5927 16.0656 12.6277 16.1121 12.6159C16.1461 12.6072 16.1533 12.5854 16.1388 12.5572C16.1276 12.5322 16.1141 12.5054 16.1514 12.4963C16.2018 12.485 16.1901 12.5286 16.1989 12.5527C16.2294 12.6459 16.1819 12.6768 16.0894 12.6713C16.0535 12.7127 16.0075 12.6795 15.9673 12.6859ZM16.2085 12.7409C16.2807 12.6745 16.3316 12.6254 16.255 12.5586C16.2328 12.5413 16.2526 12.5077 16.2783 12.4968C16.3054 12.4872 16.3122 12.5163 16.3248 12.5341C16.3887 12.6327 16.3635 12.6982 16.2085 12.7409ZM15.0741 12.3272C15.1095 12.345 15.141 12.3541 15.1255 12.3913C15.0969 12.4559 15.0969 12.5245 15.0906 12.5909C15.0887 12.6141 15.0906 12.6491 15.0519 12.6418C15.0121 12.635 15.032 12.6027 15.0354 12.5809C15.0393 12.5372 15.0456 12.4954 15.0519 12.4532C15.0586 12.4141 15.0644 12.3754 15.0741 12.3272Z" fill="#BF9200"/>
<path fill-rule="evenodd" clip-rule="evenodd" d="M16.0864 12.6927C16.1096 12.7008 16.1334 12.7186 16.1159 12.7395C16.0864 12.7708 16.0399 12.7454 16.0011 12.7508C15.9759 12.7558 15.9716 12.7254 15.991 12.7045C16.0195 12.6845 16.0534 12.6899 16.0864 12.6927ZM16.4739 12.6268C16.4918 12.6404 16.5078 12.6545 16.5272 12.6668C16.5059 12.7127 16.4686 12.7172 16.4211 12.7095C16.4317 12.6754 16.4996 12.6768 16.4739 12.6268ZM15.9387 12.4045C15.9333 12.4249 15.9212 12.4295 15.9067 12.4249C15.898 12.4227 15.8878 12.4108 15.8878 12.4063C15.8888 12.3886 15.9028 12.3813 15.9202 12.3868C15.928 12.3895 15.9338 12.3981 15.9387 12.4045ZM15.9449 12.4904C15.9357 12.5008 15.9256 12.5131 15.9101 12.5049C15.8965 12.4968 15.8854 12.4858 15.8951 12.4708C15.9028 12.4572 15.9139 12.4468 15.9299 12.4572C15.943 12.4627 15.9527 12.474 15.9449 12.4904ZM17.1743 12.5608C17.1675 12.5808 17.1535 12.5849 17.1375 12.5836C17.1229 12.5818 17.105 12.5754 17.1152 12.5568C17.1205 12.5472 17.136 12.539 17.1486 12.5372C17.1661 12.5354 17.1728 12.5486 17.1743 12.5608ZM14.1295 12.5345C14.1208 12.5508 14.1097 12.5608 14.0927 12.5531C14.0849 12.5486 14.0767 12.5363 14.0791 12.5281C14.0825 12.5149 14.0971 12.5068 14.1126 12.5149C14.1208 12.5177 14.1252 12.5286 14.1295 12.5345ZM14.3562 12.5945C14.3451 12.6013 14.3373 12.6108 14.33 12.6118C14.3116 12.6154 14.301 12.6027 14.3068 12.5886C14.3097 12.5813 14.3233 12.5749 14.332 12.5749C14.3383 12.5754 14.3451 12.5863 14.3562 12.5945ZM14.3906 11.9954C14.4237 11.9877 14.4583 11.9879 14.4912 11.9959C14.5242 12.0039 14.5546 12.0195 14.5795 12.0413C14.5097 12.0518 14.4492 12.029 14.3906 11.9954ZM14.115 11.9181C14.1457 11.9098 14.1784 11.9099 14.2091 11.9186C14.2397 11.9272 14.2671 11.9439 14.2879 11.9668C14.2274 11.9772 14.176 11.9554 14.115 11.9181ZM16.6701 12.0349C16.7238 11.9954 16.7892 11.9863 16.8546 11.9836C16.8565 11.9927 16.8604 12.0013 16.8628 12.0104L16.6797 12.0608L16.6701 12.0349ZM16.9466 11.9727C17.0009 11.9195 17.0556 11.9077 17.1341 11.9122C17.1096 11.9347 17.0801 11.9518 17.0476 11.9623C17.0152 11.9728 16.9807 11.9763 16.9466 11.9727ZM14.9529 12.1713H15.3235C15.2022 12.2027 15.0742 12.2027 14.9529 12.1713ZM15.5294 11.2986C15.523 11.2994 15.5167 11.3005 15.5105 11.3018L15.54 11.1077C15.556 11.1931 15.5637 11.2477 15.5294 11.2986ZM15.6979 11.2322V11.1331C15.726 11.1599 15.7144 11.1863 15.7192 11.2108C15.7304 11.2336 15.7173 11.2358 15.6979 11.2322Z" fill="#BF9200"/>
<path fill-rule="evenodd" clip-rule="evenodd" d="M15.698 11.2321C15.7048 11.2247 15.7119 11.2176 15.7193 11.2107C15.7277 11.2203 15.7335 11.2317 15.7363 11.2439C15.7391 11.2561 15.7387 11.2687 15.7352 11.2807C15.7288 11.2874 15.7218 11.2936 15.7144 11.2993C15.6955 11.2807 15.6941 11.2561 15.698 11.2321ZM15.0595 12.0943C14.9914 12.1082 14.921 12.1096 14.8522 12.0984C14.9249 12.0452 14.9845 12.0434 15.0595 12.0943ZM15.3071 12.1052C15.2577 12.1271 15.2044 12.1239 15.1482 12.1271C15.1564 12.0848 15.1845 12.0871 15.2102 12.0871C15.2397 12.1011 15.279 12.0766 15.3071 12.1052Z" fill="#BF9200"/>
<path fill-rule="evenodd" clip-rule="evenodd" d="M15.307 12.1053C15.2736 12.1003 15.2383 12.1053 15.2102 12.0871C15.2489 12.0848 15.2862 12.0826 15.3235 12.0826C15.3337 12.0826 15.3463 12.0921 15.3284 12.1012C15.323 12.1053 15.3143 12.103 15.307 12.1053ZM16.3799 12.0876C16.3193 12.108 16.2536 12.1113 16.191 12.0971C16.2584 12.0371 16.3179 12.0607 16.3799 12.0876ZM16.0428 12.0871C16.0661 12.0826 16.0854 12.0917 16.113 12.118C16.0567 12.1303 15.9976 12.1259 15.944 12.1053C15.9726 12.0767 16.0113 12.1012 16.0428 12.0871Z" fill="#BF9200"/>
<path fill-rule="evenodd" clip-rule="evenodd" d="M16.0427 12.0873C16.0122 12.1055 15.9773 12.1005 15.9439 12.1055C15.9342 12.1005 15.8921 12.1032 15.925 12.0873C15.9546 12.0705 16.0015 12.085 16.0427 12.0873ZM15.0643 10.3237C15.0391 10.3414 15.0498 10.3677 15.041 10.3896C15.0246 10.3605 15.0134 10.33 15.0289 10.3C15.0352 10.2855 15.0531 10.3018 15.0643 10.3091V10.3237ZM14.7732 12.4455C14.7829 12.4555 14.793 12.4614 14.795 12.4696C14.8051 12.4918 14.7848 12.4918 14.7712 12.49C14.7635 12.49 14.7514 12.4777 14.7523 12.4714C14.7533 12.4632 14.7635 12.4555 14.7732 12.4455Z" fill="#BF9200"/>
</svg>
