<svg width="200px" height="205px" viewBox="0 0 200 205" fill="none" xmlns="http://www.w3.org/2000/svg" transform="rotate(0) scale(1, 1)">
<g id="Group">
<path id="Vector" d="M52.124 8.1406C53.8443 9.8444 55.6569 11.448 57.6729 12.7886C67.9563 19.6284 98.5528 36.086 147.08 29.36C207.712 20.9561 198.817 81.9188 190.092 98.1663C181.368 114.414 149.281 144.198 146.586 159.121C143.891 174.044 155.423 214.804 128.402 202.573C101.381 190.342 85.771 161.695 50.3037 165.025C14.8364 168.354 -10.2257 152.638 5.47429 124.558C21.1743 96.4778 39.9449 78.3577 15.9865 47.0801C-7.30687 16.6723 31.9284 -11.8604 52.124 8.1406Z" fill="#a3f9c777"/>
<g id="Group_2">
<path id="Vector_2" d="M113.647 39.6428C113.197 39.1901 112.94 38.5811 112.929 37.9431C112.918 37.3051 113.154 36.6876 113.588 36.2195L129.586 18.9519C129.813 18.7074 130.086 18.5111 130.391 18.375C130.695 18.239 131.024 18.1658 131.357 18.16C131.691 18.1543 132.022 18.216 132.331 18.3414C132.64 18.4669 132.92 18.6535 133.155 18.8901L134.536 20.2808C134.771 20.5174 134.956 20.7991 135.079 21.1089C135.202 21.4187 135.261 21.7502 135.253 22.0836C135.245 22.4169 135.17 22.7452 135.032 23.0486C134.893 23.352 134.695 23.6244 134.449 23.8493L117.07 39.7261C116.599 40.1566 115.98 40.3883 115.342 40.3727C114.704 40.3572 114.097 40.0957 113.647 39.6428Z" fill="#1c754b"/>
<path id="Vector_3" d="M103.521 33.7569C103.138 33.5874 102.836 33.2766 102.677 32.8895C102.519 32.5024 102.516 32.069 102.669 31.6797L108.331 17.3206C108.411 17.1173 108.532 16.9322 108.685 16.7766C108.839 16.621 109.022 16.498 109.225 16.4151C109.427 16.3322 109.644 16.291 109.862 16.2941C110.081 16.2972 110.297 16.3445 110.497 16.433L111.671 16.9538C111.871 17.0424 112.051 17.1705 112.2 17.3304C112.349 17.4903 112.465 17.6787 112.539 17.8843C112.614 18.0898 112.646 18.3083 112.633 18.5266C112.621 18.7449 112.565 18.9585 112.468 19.1545L105.632 32.9928C105.447 33.368 105.123 33.657 104.73 33.7994C104.336 33.9419 103.903 33.9266 103.521 33.7569Z" fill="#1c754b"/>
<path id="Vector_4" d="M93.2178 36.1038C91.913 36.3388 90.604 35.2192 90.2498 33.5659L83.9705 4.21018C83.5959 2.45584 84.4359 0.787323 85.8201 0.537843L87.749 0.190642C89.133 -0.0585582 90.5031 1.21264 90.763 2.98714L95.1139 32.6899C95.3589 34.3634 94.5226 35.8689 93.2178 36.1038Z" fill="#1c754b"/>
<path id="Vector_5" d="M194.712 63.7307L167.018 60.1607C166.552 60.1109 166.081 60.2045 165.67 60.4289C165.258 60.6534 164.924 60.998 164.714 61.4169L157.35 75.9571L126.524 137.608C126.196 138.259 125.647 138.772 124.976 139.055C124.304 139.338 123.553 139.373 122.858 139.152L39.188 112.445C38.9572 112.372 38.7122 112.354 38.4732 112.393C38.2342 112.433 38.008 112.528 37.8132 112.672C37.6183 112.816 37.4605 113.005 37.3526 113.221C37.2447 113.438 37.1898 113.678 37.1925 113.92L37.2309 117.394C37.2356 117.878 37.3926 118.347 37.6795 118.735C37.9665 119.124 38.3687 119.412 38.829 119.559L127.354 147.815C128.341 148.13 129.227 148.7 129.923 149.468C130.618 150.236 131.098 151.174 131.315 152.187L131.344 152.325C132.114 156.555 127.946 160.027 123.838 158.78L26.7673 127.756C26.2694 127.598 25.8404 127.274 25.5515 126.839C25.2626 126.404 25.131 125.883 25.1784 125.362L32.7754 42.4028C32.8136 41.9751 32.9413 41.5601 33.1503 41.185C33.3592 40.8098 33.6447 40.4828 33.9883 40.2251C34.3318 39.9674 34.7257 39.7849 35.1444 39.6893C35.5631 39.5938 35.9972 39.5873 36.4185 39.6704L152.708 62.4194L160.198 47.5341C160.414 47.1134 160.754 46.7692 161.172 46.5479C161.59 46.3267 162.066 46.239 162.536 46.2968L196.449 50.6396C196.75 50.6774 197.04 50.7745 197.303 50.9252C197.566 51.076 197.797 51.2774 197.981 51.5179C198.166 51.7583 198.301 52.033 198.379 52.3261C198.457 52.6191 198.476 52.9247 198.434 53.2251L197.278 61.755C197.198 62.3564 196.883 62.9017 196.402 63.2719C195.921 63.642 195.314 63.8069 194.712 63.7307Z" fill="#61b586"/>
<path id="Vector_6" d="M37.4646 98.2413L46.9404 101.266L56.0299 55.1741L41.4827 52.9404L37.4646 98.2413Z" fill="#a3f9c777"/>
<path id="Vector_7" d="M111.813 121.972L121.289 124.997L145.794 73.3842L135.357 70.856L111.813 121.972Z" fill="#a3f9c777"/>
<path id="Vector_8" d="M75.3676 110.339L84.1145 113.131L102.851 64.4965L88.5361 61.5339L75.3676 110.339Z" fill="#a3f9c777"/>
<path id="Vector_9" d="M64.2806 57.0044L78.5951 59.9669L65.8919 107.315L56.4163 104.29L64.2806 57.0044Z" fill="#a3f9c777"/>
<path id="Vector_10" d="M126.377 68.793L112.063 65.8303L94.3191 116.388L103.066 119.18L126.377 68.793Z" fill="#a3f9c777"/>
<path id="Vector_11" d="M39.2932 157.708C45.4205 157.708 50.3876 152.741 50.3876 146.613C50.3876 140.486 45.4205 135.519 39.2932 135.519C33.1659 135.519 28.1987 140.486 28.1987 146.613C28.1987 152.741 33.1659 157.708 39.2932 157.708Z" fill="#82d7a6"/>
<path id="Vector_12" d="M108.539 179.81C114.666 179.81 119.633 174.843 119.633 168.715C119.633 162.588 114.666 157.621 108.539 157.621C102.412 157.621 97.4446 162.588 97.4446 168.715C97.4446 174.843 102.412 179.81 108.539 179.81Z" fill="#82d7a6"/>
<path id="Vector_13" d="M199.694 50.1805L170.466 46.5214C170.304 46.5011 170.156 46.616 170.136 46.778L168.365 60.9285C168.344 61.0905 168.459 61.2383 168.621 61.2586L197.849 64.9177C198.011 64.938 198.159 64.8231 198.179 64.6611L199.95 50.5106C199.971 50.3486 199.856 50.2008 199.694 50.1805Z" fill="#82d7a6"/>
</g>
</g>
</svg>