<svg width="235px" height="200px" viewBox="0 0 235 200" fill="none" xmlns="http://www.w3.org/2000/svg" transform="rotate(0) scale(1, 1)">
<path d="M159.03 8.74797C159.03 8.74797 127.068 49.2335 75.929 25.0846C24.7902 0.935692 -26.3487 66.2797 17.6876 106.054C61.7239 145.829 18.631 167.685 48.5475 192.061C82.5496 219.767 112.152 163.585 139.142 176.37C198.71 204.587 242.84 193.417 232.897 160.744C215.442 103.393 193.123 99.6624 210.168 69.831C227.214 39.9995 189.593 -22.026 159.03 8.74797Z" fill="#a3f9bf54"/>
<path d="M117.111 95.2849V180.223L51.1638 151.738L51.4784 67.1077L117.111 95.2849Z" fill="#1c7544"/>
<path d="M117.112 95.3357V180.274L182.738 152.773V67.3787L117.112 95.3357Z" fill="#82d79e"/>
<path d="M117.111 95.285L183.058 67.6631L117.629 38.6602L51.1638 66.9726L117.111 95.285Z" fill="#409561"/>
<path d="M33.1546 82.1245L99.5218 114.338C99.7001 114.425 99.902 114.451 100.096 114.411C100.291 114.372 100.467 114.27 100.597 114.121L117.111 95.2847L51.1636 66.9724L33.0069 80.5863C32.8827 80.6794 32.7846 80.8028 32.7219 80.9447C32.6592 81.0867 32.6341 81.2424 32.6489 81.3968C32.6638 81.5513 32.718 81.6993 32.8066 81.8268C32.8951 81.9542 33.015 82.0567 33.1546 82.1245Z" fill="#61b57f"/>
<path d="M183.058 67.6631L201.373 84.2219C201.485 84.3229 201.57 84.4502 201.62 84.5922C201.67 84.7343 201.684 84.8866 201.66 85.0354C201.637 85.1842 201.576 85.3247 201.485 85.4442C201.393 85.5638 201.273 85.6585 201.135 85.7199L135.586 114.974C135.411 115.052 135.216 115.073 135.029 115.033C134.841 114.993 134.671 114.894 134.543 114.752L117.111 95.285L183.058 67.6631Z" fill="#61b57f"/>
<path d="M117.628 38.6602L183.241 67.6631L192.677 65.4761C192.863 65.433 193.03 65.3326 193.155 65.189C193.28 65.0454 193.357 64.866 193.374 64.6763C193.391 64.4867 193.348 64.2964 193.251 64.1326C193.154 63.9688 193.008 63.8399 192.833 63.7641L132.92 37.8041C132.789 37.7473 132.647 37.7223 132.504 37.7313L117.628 38.6602Z" fill="#61b57f"/>
<path d="M117.629 38.66L52.3838 67.1076L44.136 65.7216C43.945 65.686 43.7706 65.5899 43.6385 65.4475C43.5064 65.3051 43.4236 65.1239 43.4024 64.9308C43.3812 64.7377 43.4227 64.5429 43.5207 64.3752C43.6188 64.2075 43.7682 64.0758 43.9468 63.9996L105.34 37.5414C105.476 37.4838 105.623 37.4601 105.77 37.4724L117.629 38.66Z" fill="#61b57f"/>
<path d="M185.63 167.03C194.627 167.03 201.92 159.737 201.92 150.741C201.92 141.744 194.627 134.451 185.63 134.451C176.634 134.451 169.341 141.744 169.341 150.741C169.341 159.737 176.634 167.03 185.63 167.03Z" fill="#1c7544" stroke="#ffffff" stroke-width="33" stroke-miterlimit="10"/>
<path d="M190.44 142.1C188.63 142.1 187.01 142.98 186 144.33C184.99 142.98 183.37 142.1 181.56 142.1C178.49 142.1 176 144.6 176 147.69C176 148.88 176.19 149.98 176.52 151C178.1 156 182.97 158.99 185.38 159.81C185.72 159.93 186.28 159.93 186.62 159.81C189.03 158.99 193.9 156 195.48 151C195.81 149.98 196 148.88 196 147.69C196 144.6 193.51 142.1 190.44 142.1Z" fill="#1c7544"/>
</svg>