<svg width="88" height="93" viewBox="0 0 88 93" fill="none" xmlns="http://www.w3.org/2000/svg">
<g opacity="0.1">
<path d="M65.7892 3.41974C63.1292 1.80489 59.7569 2.08989 57.4295 4.13239C55.0545 6.12729 54.2943 9.45239 55.5294 12.3022C63.8419 31.825 61.6568 41.1348 59.6143 44.9347C57.4295 48.9249 53.9143 49.9697 52.4893 50.2075C48.6418 50.9197 45.7443 43.3199 45.6968 43.2723C44.7943 40.6123 42.3718 38.7598 39.5694 38.5223C36.7192 38.3324 34.1068 39.7098 32.7294 42.1799C20.1418 65.1222 16.8167 86.6399 22.8969 106.21C31.7794 134.9 57.7617 148.295 58.8544 148.865C59.8517 149.387 60.992 149.625 62.0368 149.625C63.7943 149.625 65.457 149.007 66.7868 147.82C68.9719 145.872 69.7793 142.785 68.7817 140.03C66.5969 134.092 62.7494 116.897 70.7294 108.49C75.6217 103.36 79.0419 98.6572 81.3693 94.6199C100.464 124.64 90.2518 134.045 90.0619 134.282C90.0144 134.282 90.0144 134.33 89.9668 134.33C86.7369 136.562 85.9767 140.98 88.1618 144.21C90.3945 147.44 94.7644 148.295 98.0419 146.11C98.0419 146.062 98.0895 146.062 98.1367 146.015C121.27 129.817 132.669 111.055 132.004 90.1549C130.579 43.5573 68.4492 5.03489 65.7892 3.41974Z" fill="#C32B43"/>
</g>
</svg>
