<svg width="71" height="71" viewBox="0 0 71 71" fill="none" xmlns="http://www.w3.org/2000/svg">
<g opacity="0.1">
<path d="M30.7309 1.59761C29.4884 0.843298 27.9132 0.976423 26.826 1.93049C25.7166 2.86232 25.3616 4.41549 25.9385 5.74667C29.8213 14.8658 28.8006 19.2145 27.8466 20.9895C26.826 22.8533 25.1841 23.3414 24.5185 23.4524C22.7212 23.7851 21.3678 20.2352 21.3456 20.213C20.9241 18.9705 19.7925 18.1051 18.4835 17.9942C17.1522 17.9055 15.9319 18.5489 15.2885 19.7027C9.40877 30.4192 7.8556 40.4702 10.6957 49.6114C14.8447 63.0126 26.9812 69.2695 27.4916 69.5357C27.9575 69.7799 28.4901 69.8908 28.9781 69.8908C29.7991 69.8908 30.5757 69.6024 31.1969 69.0477C32.2176 68.1379 32.5947 66.6958 32.1287 65.4089C31.1082 62.6355 29.311 54.6036 33.0385 50.6764C35.3237 48.2802 36.9213 46.0835 38.0085 44.1977C46.9279 58.2202 42.1575 62.6133 42.0688 62.7242C42.0466 62.7242 42.0466 62.7464 42.0244 62.7464C40.5157 63.7893 40.1606 65.8527 41.1813 67.3614C42.2241 68.8702 44.2654 69.2695 45.7963 68.249C45.7963 68.2268 45.8185 68.2268 45.8406 68.2046C56.646 60.6386 61.971 51.8746 61.6603 42.112C60.9947 20.3461 31.9734 2.35205 30.7309 1.59761Z" fill="#C32B43"/>
</g>
</svg>
