<svg width="32" height="32" viewBox="0 0 32 32" fill="none" xmlns="http://www.w3.org/2000/svg">
<g opacity="0.7">
<path d="M7.28006 24.6533V20.76C7.28006 19.4667 8.2934 18.3067 9.7334 18.3067C11.0267 18.3067 12.1867 19.32 12.1867 20.76V24.5067C12.1867 27.1067 10.0267 29.2667 7.42673 29.2667C4.82673 29.2667 2.66673 27.0933 2.66673 24.5067V16.2933C2.52006 8.8 8.44006 2.73333 15.9334 2.73333C23.4267 2.73333 29.3334 8.8 29.3334 16.1467V24.36C29.3334 26.96 27.1734 29.12 24.5734 29.12C21.9734 29.12 19.8134 26.96 19.8134 24.36V20.6133C19.8134 19.32 20.8267 18.16 22.2667 18.16C23.5601 18.16 24.7201 19.1733 24.7201 20.6133V24.6533" stroke="#0F0F0E" stroke-width="2" stroke-linecap="round" stroke-linejoin="round"/>
</g>
</svg>
