<svg width="32" height="32" viewBox="0 0 32 32" fill="none" xmlns="http://www.w3.org/2000/svg">
<g opacity="0.7">
<path d="M26.6667 9.33333V22.6667C26.6667 28 25.3334 29.3333 20 29.3333H12C6.66671 29.3333 5.33337 28 5.33337 22.6667V9.33333C5.33337 4 6.66671 2.66667 12 2.66667H20C25.3334 2.66667 26.6667 4 26.6667 9.33333Z" stroke="#0F0F0E" stroke-width="2" stroke-linecap="round" stroke-linejoin="round"/>
<path d="M18.6667 7.33333H13.3334" stroke="#0F0F0E" stroke-width="2" stroke-linecap="round" stroke-linejoin="round"/>
<path d="M15.9999 25.4667C17.1413 25.4667 18.0666 24.5414 18.0666 23.4C18.0666 22.2586 17.1413 21.3333 15.9999 21.3333C14.8585 21.3333 13.9332 22.2586 13.9332 23.4C13.9332 24.5414 14.8585 25.4667 15.9999 25.4667Z" stroke="#0F0F0E" stroke-width="2" stroke-linecap="round" stroke-linejoin="round"/>
</g>
</svg>
