<svg width="254" height="230" viewBox="0 0 254 230" fill="none" xmlns="http://www.w3.org/2000/svg">
<path d="M131.044 227.824C185.215 227.824 229.132 183.906 229.132 129.542C229.132 75.1771 185.021 31.2598 131.044 31.2598C76.8724 31.2598 32.9551 75.1771 32.9551 129.542C32.9551 183.906 76.8724 227.824 131.044 227.824Z" fill="#F1F3F9" stroke="#D6DCE8" stroke-width="3.86937" stroke-miterlimit="10"/>
<path d="M221.973 65.3117C226.354 65.3117 229.905 61.7603 229.905 57.3795C229.905 52.9986 226.354 49.4473 221.973 49.4473C217.592 49.4473 214.041 52.9986 214.041 57.3795C214.041 61.7603 217.592 65.3117 221.973 65.3117Z" fill="#F1F3F9"/>
<path d="M233.582 34.3557C236.574 34.3557 238.999 31.9304 238.999 28.9386C238.999 25.9468 236.574 23.5215 233.582 23.5215C230.59 23.5215 228.165 25.9468 228.165 28.9386C228.165 31.9304 230.59 34.3557 233.582 34.3557Z" fill="#F1F3F9"/>
<path d="M24.8292 78.8538C27.821 78.8538 30.2463 76.4284 30.2463 73.4367C30.2463 70.4449 27.821 68.0195 24.8292 68.0195C21.8374 68.0195 19.4121 70.4449 19.4121 73.4367C19.4121 76.4284 21.8374 78.8538 24.8292 78.8538Z" fill="#F1F3F9"/>
<path d="M54.6238 229.373C60.18 229.373 64.6842 224.869 64.6842 219.312C64.6842 213.756 60.18 209.252 54.6238 209.252C49.0677 209.252 44.5635 213.756 44.5635 219.312C44.5635 224.869 49.0677 229.373 54.6238 229.373Z" fill="#F1F3F9"/>
<path d="M252 156.148C252 180.997 231.905 201.092 206.84 201.092C206.408 201.092 202.735 201.092 175.725 201.092C156.927 201.092 126.892 201.092 78.9231 201.092H56.019C25.9844 201.74 2 177.755 2 148.801C2 119.631 26.2005 95.4304 56.6672 96.9429C82.8124 15.2662 202.519 26.7182 212.674 111.204C235.146 114.013 252 133.028 252 156.148Z" fill="white" stroke="#D6DCE8" stroke-width="3.86937" stroke-miterlimit="10"/>
<path d="M212.025 111.421C210.297 111.205 208.568 111.205 206.839 111.205C197.98 111.205 189.553 113.798 182.423 118.336" fill="white"/>
<path d="M212.025 111.421C210.297 111.205 208.568 111.205 206.839 111.205C197.98 111.205 189.553 113.798 182.423 118.336" stroke="#D6DCE8" stroke-width="3.86937" stroke-miterlimit="10" stroke-linecap="round"/>
<path d="M56.6677 96.9414C54.0748 104.72 52.7783 112.931 52.7783 121.574C52.7783 125.031 52.9944 128.272 53.4265 131.514" fill="white"/>
<path d="M56.6677 96.9414C54.0748 104.72 52.7783 112.931 52.7783 121.574C52.7783 125.031 52.9944 128.272 53.4265 131.514" stroke="#D6DCE8" stroke-width="3.86937" stroke-miterlimit="10" stroke-linecap="round" stroke-linejoin="round"/>
<path d="M111.538 123.177L115.32 119.387C116.423 118.281 116.423 116.386 115.32 115.28C114.217 114.175 112.326 114.175 111.223 115.28L107.441 119.071L103.66 115.28C102.557 114.175 100.666 114.175 99.5626 115.28C98.4596 116.386 98.4596 118.281 99.5626 119.387L103.344 123.177L99.5626 126.967C98.4596 128.073 98.4596 129.968 99.5626 131.074C100.193 131.705 100.823 131.863 101.611 131.863C102.399 131.863 103.029 131.547 103.66 131.074L107.441 127.283L111.223 131.074C111.854 131.705 112.484 131.863 113.272 131.863C114.06 131.863 114.69 131.547 115.32 131.074C116.423 129.968 116.423 128.073 115.32 126.967L111.538 123.177Z" fill="#AAB2C5"/>
<path d="M151.654 123.177L155.856 119.387C157.082 118.281 157.082 116.386 155.856 115.28C154.631 114.175 152.53 114.175 151.304 115.28L147.102 119.071L142.9 115.28C141.675 114.175 139.573 114.175 138.348 115.28C137.122 116.386 137.122 118.281 138.348 119.387L142.55 123.177L138.348 126.967C137.122 128.073 137.122 129.968 138.348 131.074C139.048 131.705 139.749 131.863 140.624 131.863C141.499 131.863 142.2 131.547 142.9 131.074L147.102 127.283L151.304 131.074C152.004 131.705 152.705 131.863 153.58 131.863C154.456 131.863 155.156 131.547 155.856 131.074C157.082 129.968 157.082 128.073 155.856 126.967L151.654 123.177Z" fill="#AAB2C5"/>
<path fill-rule="evenodd" clip-rule="evenodd" d="M42.1188 46.8358C42.5723 45.0518 44.3861 43.9732 46.1702 44.4267L58.7846 47.6331C60.5686 48.0866 61.6473 49.9004 61.1938 51.6844C60.7403 53.4685 58.9265 54.5471 57.1425 54.0936L44.528 50.8871C42.744 50.4337 41.6654 48.6198 42.1188 46.8358Z" fill="#A2ABBE"/>
<path fill-rule="evenodd" clip-rule="evenodd" d="M52.8371 11.3603C54.3601 10.3265 56.4328 10.7231 57.4666 12.2462L72.5464 34.4622C73.5802 35.9852 73.1836 38.0579 71.6606 39.0917C70.1375 40.1255 68.0648 39.7289 67.031 38.2059L51.9513 15.9899C50.9175 14.4668 51.3141 12.3941 52.8371 11.3603Z" fill="#A2ABBE"/>
<path fill-rule="evenodd" clip-rule="evenodd" d="M80.8111 1.34223C82.6168 0.984819 84.3704 2.1589 84.7278 3.96461L89.9413 30.3041C90.2987 32.1098 89.1246 33.8634 87.3189 34.2208C85.5132 34.5782 83.7596 33.4041 83.4022 31.5984L78.1888 5.2589C77.8313 3.45319 79.0054 1.69964 80.8111 1.34223Z" fill="#A2ABBE"/>
<rect x="106.474" y="149.275" width="44.4978" height="5.80406" rx="2.90203" fill="#AAB2C5"/>
<path d="M133.56 151.211H141.298V160.884C141.298 163.021 139.566 164.754 137.429 164.754C135.292 164.754 133.56 163.021 133.56 160.884V151.211Z" fill="#AAB2C5"/>
<path d="M235.313 66.21C234.488 69.686 233.251 73.0283 231.739 76.1032C227.752 83.3225 221.84 89.2049 214.416 92.8145C206.717 96.6916 197.643 98.0285 188.432 96.2905C166.985 91.8787 153.099 71.5577 157.636 50.5682C162.173 29.5788 182.932 16.076 204.517 20.4878C212.216 22.0921 218.953 25.7017 224.59 30.9157C233.938 40.274 237.925 53.5094 235.313 66.21Z" fill="#D6DCE8" stroke="#AAB2C5" stroke-width="3.86937" stroke-miterlimit="10"/>
<path d="M189.684 39.3406L189.685 39.3561L189.686 39.3716L191.257 58.8565C191.418 61.5725 193.529 64.1503 196.437 64.1503C199.345 64.1503 201.457 61.5725 201.618 58.8564L203.189 39.3716L203.19 39.3539L203.191 39.3362C203.452 35.1362 200.651 31.2606 196.437 31.2606C192.202 31.2606 189.422 35.2822 189.684 39.3406Z" fill="white" stroke="#AAB2C5" stroke-width="3.86937"/>
<path d="M196.437 69.954C192.682 69.954 189.666 72.9698 189.666 76.7254C189.666 80.4809 192.682 83.4968 196.437 83.4968C200.193 83.4968 203.209 80.4809 203.209 76.7254C203.209 72.9698 200.193 69.954 196.437 69.954Z" fill="white" stroke="#AAB2C5" stroke-width="3.86937"/>
</svg>
