<svg width="20" height="20" viewBox="0 0 20 20" fill="none" xmlns="http://www.w3.org/2000/svg">
<path d="M17.0084 5.79995V7.32495C17.0084 7.85828 16.7584 8.35828 16.325 8.66662L7.15837 15.3833C6.5667 15.8166 5.75837 15.8166 5.17503 15.375L3.97503 14.475C3.43337 14.0666 2.9917 13.1833 2.9917 12.5083V5.79995C2.9917 4.86662 3.70837 3.83328 4.58337 3.50828L9.1417 1.79995C9.6167 1.62495 10.3834 1.62495 10.8584 1.79995L15.4167 3.50828C16.2917 3.83328 17.0084 4.86662 17.0084 5.79995Z" fill="#0F0F0E"/>
<path d="M15.6833 10.2834C16.2333 9.88335 17.0083 10.275 17.0083 10.9584V12.525C17.0083 13.2 16.5667 14.075 16.025 14.4834L11.4667 17.8917C11.0667 18.1834 10.5333 18.3334 9.99999 18.3334C9.46665 18.3334 8.93332 18.1834 8.53332 17.8834L7.84165 17.3667C7.39165 17.0334 7.39165 16.3584 7.84999 16.025L15.6833 10.2834Z" fill="#0F0F0E"/>
</svg>
