<svg width="18" height="19" viewBox="0 0 18 19" fill="none" xmlns="http://www.w3.org/2000/svg">
<path d="M16.3479 13.695C14.1982 13.3408 13.2347 11.1438 13.1949 11.0506L13.1908 11.0418C13.1297 10.9419 13.0912 10.8299 13.078 10.7137C13.0647 10.5974 13.0771 10.4796 13.1141 10.3686C13.2585 10.0284 13.7361 9.8768 14.0526 9.77633C14.1316 9.75129 14.2064 9.72758 14.265 9.70433C14.8371 9.47837 14.9534 9.24446 14.9505 9.0879C14.9355 8.99026 14.8917 8.89931 14.8247 8.82669C14.7578 8.75407 14.6706 8.70307 14.5745 8.68022L14.5703 8.67862C14.4853 8.64448 14.3946 8.6271 14.303 8.62744C14.2224 8.62606 14.1424 8.64193 14.0684 8.67399C13.845 8.78695 13.6015 8.85477 13.3519 8.87358C13.2081 8.87701 13.0676 8.82998 12.9548 8.74064C12.9616 8.6132 12.9698 8.48173 12.9786 8.3428L12.9816 8.29382C13.1258 7.28333 13.0644 6.25411 12.8009 5.26796C12.4903 4.55991 11.9781 3.95903 11.3281 3.5403C10.6781 3.12157 9.91923 2.90353 9.14611 2.91341C9.04554 2.91446 8.94494 2.9154 8.84431 2.91624C8.07231 2.90671 7.3146 3.12479 6.66579 3.54326C6.01698 3.96174 5.50581 4.56206 5.19611 5.26928C4.93268 6.25455 4.87113 7.28292 5.01516 8.29258C5.02486 8.44194 5.03386 8.59137 5.04216 8.74086C4.91787 8.83825 4.7618 8.88595 4.60431 8.87467C4.33929 8.86333 4.07987 8.79483 3.84381 8.67385C3.78592 8.64827 3.72311 8.63574 3.65983 8.63714C3.52949 8.63201 3.40081 8.66776 3.29179 8.73939C3.18278 8.81103 3.09889 8.91495 3.05187 9.03662C2.99044 9.35958 3.45155 9.59354 3.73188 9.70427C3.79113 9.7278 3.86555 9.75138 3.94419 9.77628C4.26046 9.87666 4.7385 10.0283 4.88283 10.3687C4.91986 10.4797 4.93218 10.5975 4.91894 10.7138C4.90569 10.8301 4.86721 10.9421 4.80616 11.042L4.80213 11.0507C4.59489 11.5019 4.32494 11.9216 4.00027 12.2973C3.41036 13.031 2.57556 13.5274 1.64915 13.6952C1.60537 13.7024 1.5658 13.7255 1.53805 13.7602C1.5103 13.7948 1.49633 13.8384 1.49882 13.8827C1.50079 13.9163 1.50866 13.9492 1.52207 13.98C1.6539 14.2883 2.31573 14.5429 3.43593 14.7157C3.54066 14.7319 3.58498 14.9027 3.64614 15.1824C3.67058 15.2943 3.69589 15.4106 3.73119 15.5305C3.74271 15.5837 3.77359 15.6307 3.81784 15.6625C3.86208 15.6942 3.91652 15.7083 3.9706 15.7021C4.07795 15.6961 4.18458 15.6808 4.28929 15.6564C4.56541 15.5962 4.84696 15.5643 5.12956 15.5613C5.33257 15.5618 5.5352 15.579 5.73541 15.6126C6.15843 15.7197 6.5519 15.9208 6.88666 16.2007C7.45165 16.6832 8.16168 16.963 8.90394 16.9957C8.92925 16.9957 8.95452 16.9948 8.979 16.9927C9.00986 16.9942 9.05042 16.9957 9.09294 16.9957C9.8356 16.9628 10.546 16.6828 11.1114 16.2002C11.4458 15.9205 11.8389 15.7197 12.2615 15.6127C12.4618 15.5791 12.6644 15.562 12.8675 15.5614C13.1499 15.5628 13.4314 15.5926 13.7078 15.6505C13.8126 15.6734 13.9193 15.6869 14.0265 15.6908H14.0441C14.0948 15.6948 14.1454 15.6803 14.1862 15.6497C14.227 15.6192 14.2552 15.5749 14.2657 15.525C14.3005 15.4066 14.326 15.294 14.3511 15.179C14.4117 14.9008 14.456 14.7308 14.5611 14.7146C15.6816 14.5415 16.3434 14.2873 16.4744 13.9806C16.488 13.9496 16.4961 13.9164 16.4982 13.8825C16.5006 13.8382 16.4867 13.7946 16.4589 13.76C16.4312 13.7254 16.3916 13.7022 16.3479 13.695Z" fill="white"/>
</svg>
