<svg width="20" height="20" viewBox="0 0 20 20" fill="none" xmlns="http://www.w3.org/2000/svg">
<path d="M15.9189 12.3201C15.6599 12.5711 15.5409 12.9341 15.5999 13.2901L16.4889 18.2101C16.5639 18.6271 16.3879 19.0491 16.0389 19.2901C15.6969 19.5401 15.2419 19.5701 14.8689 19.3701L10.4399 17.0601C10.2859 16.9781 10.1149 16.9341 9.93988 16.9291H9.66888C9.57488 16.9431 9.48288 16.9731 9.39888 17.0191L4.96888 19.3401C4.74988 19.4501 4.50188 19.4891 4.25888 19.4501C3.66688 19.3381 3.27188 18.7741 3.36888 18.1791L4.25888 13.2591C4.31788 12.9001 4.19888 12.5351 3.93988 12.2801L0.328876 8.78008C0.0268758 8.48708 -0.0781242 8.04708 0.0598758 7.65008C0.193876 7.25408 0.535876 6.96508 0.948876 6.90008L5.91888 6.17908C6.29688 6.14008 6.62888 5.91008 6.79888 5.57008L8.98888 1.08008C9.04088 0.980076 9.10788 0.888076 9.18888 0.810076L9.27888 0.740076C9.32588 0.688076 9.37988 0.645076 9.43988 0.610076L9.54888 0.570076L9.71888 0.500076H10.1399C10.5159 0.539076 10.8469 0.764076 11.0199 1.10008L13.2389 5.57008C13.3989 5.89708 13.7099 6.12408 14.0689 6.17908L19.0389 6.90008C19.4589 6.96008 19.8099 7.25008 19.9489 7.65008C20.0799 8.05108 19.9669 8.49108 19.6589 8.78008L15.9189 12.3201Z" fill="#F5BE00"/>
</svg>
