<svg width="18" height="18" viewBox="0 0 18 18" fill="none" xmlns="http://www.w3.org/2000/svg">
<path d="M7.73192 1.90286C8.13106 0.674443 9.86894 0.674441 10.2681 1.90286L11.3948 5.37061C11.5733 5.91997 12.0853 6.29192 12.6629 6.29192H16.3091C17.6007 6.29192 18.1378 7.94474 17.0928 8.70394L14.143 10.8471C13.6757 11.1867 13.4801 11.7885 13.6586 12.3378L14.7853 15.8056C15.1845 17.034 13.7785 18.0555 12.7336 17.2963L9.78371 15.1531C9.3164 14.8136 8.6836 14.8136 8.21629 15.1531L5.26644 17.2963C4.22149 18.0555 2.81552 17.034 3.21465 15.8056L4.34139 12.3378C4.51989 11.7885 4.32435 11.1867 3.85703 10.8471L0.907187 8.70394C-0.137765 7.94474 0.399269 6.29192 1.6909 6.29192H5.33711C5.91474 6.29192 6.42669 5.91997 6.60518 5.37061L7.73192 1.90286Z" fill="white"/>
</svg>
