<svg width="18" height="19" viewBox="0 0 18 19" fill="none" xmlns="http://www.w3.org/2000/svg">
<g clip-path="url(#clip0_83_3765)">
<path d="M17.1886 1.32072L0.672734 7.80508C0.358526 7.92845 0.347114 8.36891 0.654482 8.50837L4.30567 10.1652C4.40457 10.2102 4.47966 10.295 4.51221 10.3986L6.07871 15.3838C6.15784 15.6355 6.46218 15.7331 6.67289 15.5743L9.39957 13.5201C9.52978 13.422 9.70787 13.4174 9.84301 13.5085L14.4161 16.5936C14.6442 16.7475 14.9552 16.617 15.0052 16.3464L17.7038 1.74563C17.7582 1.45093 17.4676 1.21121 17.1886 1.32072ZM7.18042 10.8723L6.68772 13.6732L5.41588 9.66286L14.1354 4.25087L7.18042 10.8723ZM2.92288 11.6038C2.78226 11.4631 2.55445 11.4631 2.4138 11.6038L0.396722 13.6207C0.256106 13.7613 0.256106 13.9891 0.396722 14.1297C0.537338 14.2704 0.765146 14.2704 0.905801 14.1297L2.92288 12.1128C3.06349 11.9722 3.06349 11.7444 2.92288 11.6038ZM3.95806 15.9839L1.94116 18.0008C1.80051 18.1414 1.80051 18.3692 1.94116 18.5099C2.08177 18.6505 2.30958 18.6505 2.4502 18.5099L4.46713 16.4929C4.60775 16.3523 4.60775 16.1245 4.46713 15.9839C4.32648 15.8433 4.09867 15.8433 3.95806 15.9839Z" fill="white"/>
<path d="M9.82423 15.9839L7.80715 18.0008C7.6665 18.1414 7.6665 18.3692 7.80715 18.5099C7.94777 18.6505 8.17557 18.6505 8.31619 18.5099L10.3333 16.4929C10.4739 16.3523 10.4739 16.1245 10.3333 15.9839C10.1927 15.8433 9.96485 15.8433 9.82423 15.9839Z" fill="white"/>
<path d="M17.1859 1.32096L0.670048 7.80532C0.35584 7.92869 0.344428 8.36915 0.651796 8.50862L4.30299 10.1655C4.40188 10.2104 4.47698 10.2952 4.50952 10.3988L6.07602 15.384C6.15516 15.6357 6.4595 15.7333 6.6702 15.5746L9.39688 13.5203C9.52709 13.4222 9.70518 13.4176 9.84033 13.5088L14.4134 16.5939C14.6415 16.7478 14.9525 16.6172 15.0025 16.3467L17.7011 1.74587C17.7555 1.45118 17.4649 1.21145 17.1859 1.32096ZM7.17773 10.8726L6.68504 13.6734L5.4132 9.6631L14.1328 4.25111L7.17773 10.8726ZM2.9202 11.604C2.77958 11.4634 2.55177 11.4634 2.41112 11.604L0.394036 13.6209C0.25342 13.7616 0.25342 13.9894 0.394036 14.13C0.534652 14.2706 0.76246 14.2706 0.903116 14.13L2.9202 12.113C3.06081 11.9724 3.06081 11.7446 2.9202 11.604ZM3.95537 15.9841L1.93848 18.001C1.79782 18.1416 1.79782 18.3695 1.93848 18.5101C2.07909 18.6507 2.3069 18.6507 2.44752 18.5101L4.46445 16.4932C4.60506 16.3525 4.60506 16.1247 4.46445 15.9841C4.3238 15.8435 4.09599 15.8435 3.95537 15.9841Z" fill="white"/>
<path d="M9.8213 15.9841L7.80422 18.001C7.66357 18.1416 7.66357 18.3695 7.80422 18.5101C7.94484 18.6507 8.17264 18.6507 8.31326 18.5101L10.3304 16.4932C10.471 16.3525 10.471 16.1247 10.3304 15.9841C10.1897 15.8435 9.96192 15.8435 9.8213 15.9841Z" fill="white"/>
</g>
<defs>
<clipPath id="clip0_83_3765">
<rect width="18" height="18" fill="white" transform="translate(0 0.95459)"/>
</clipPath>
</defs>
</svg>
