<svg width="251" height="272" viewBox="0 0 251 272" fill="none" xmlns="http://www.w3.org/2000/svg">
<path d="M127.92 233.163C184.768 233.163 230.785 187.345 230.785 130.697C230.785 74.0491 184.818 28.1816 127.92 28.1816C71.2724 28.1816 25.1055 73.9992 25.1055 130.647C25.1055 187.295 71.0727 233.163 127.92 233.163Z" fill="#F1F3F9" stroke="#D6DCE8" stroke-width="1.23838" stroke-miterlimit="10" stroke-linejoin="round"/>
<path d="M240.218 247.987C261.33 226.127 246.008 189.043 215.213 189.043C201.188 189.043 189.16 197.328 183.62 209.257C178.729 209.556 174.187 211.104 164.355 217.592L162.758 182.455H150.679L149.681 204.316C145.738 201.271 141.945 201.621 139.3 201.82L139.949 201.72L138.901 180.109H118.787L117.539 205.813C114.145 203.218 113.097 204.466 112.049 204.466C110.003 204.466 108.056 205.015 106.409 205.913L105.311 182.405H93.2328L92.3843 201.022C86.8942 197.778 80.4558 195.881 73.6181 195.881C65.333 195.881 57.6967 198.626 51.5079 203.218C24.6063 190.441 -4.9405 215.246 3.04512 243.994L22.3604 256.372C21.9112 256.672 21.462 256.971 21.0128 257.27L22.3604 256.372C16.1216 262.212 34.6383 245.342 39.6792 247.638C40.0785 248.536 40.4777 249.385 40.9269 250.233L40.0785 247.887C40.6275 248.337 40.9269 249.085 40.9269 250.233C40.9269 250.233 40.9269 250.283 40.9768 250.283C35.9858 250.533 31.2943 251.73 27.002 253.777L43.0731 250.882C56.7984 253.827 132.063 264.158 132.213 265.456L131.115 263.409C131.564 263.459 132.063 263.509 132.562 263.559C135.008 267.153 138.601 269.948 142.794 271.295C139.4 269.548 136.555 266.953 134.508 263.759C151.029 265.356 172.54 264.258 180.426 263.409C187.663 264.707 195.249 263.06 201.438 258.568C202.736 257.62 203.983 256.522 205.131 255.324C212.768 255.274 226.792 257.47 226.593 254.076L240.368 256.522C236.475 254.725 232.282 253.527 227.791 253.128L240.218 247.987ZM200.34 256.572C200.39 256.422 200.44 256.322 200.59 256.172L200.34 256.572Z" fill="white"/>
<path d="M106.409 205.913L105.311 182.455H93.2323L92.3838 201.022" fill="white"/>
<path d="M106.409 205.913L105.311 182.455H93.2323L92.3838 201.022" stroke="#AAB2C5" stroke-width="1.23838" stroke-miterlimit="10" stroke-linecap="round" stroke-linejoin="round"/>
<path d="M164.404 218.49L162.757 182.455H150.679L149.681 204.366" fill="white"/>
<path d="M164.404 218.49L162.757 182.455H150.679L149.681 204.366" stroke="#AAB2C5" stroke-width="1.23838" stroke-miterlimit="10" stroke-linecap="round" stroke-linejoin="round"/>
<path d="M139.948 201.671L138.85 180.109H118.786L117.538 205.464L117.588 205.863" fill="white"/>
<path d="M139.948 201.671L138.85 180.109H118.786L117.538 205.464L117.588 205.863" stroke="#AAB2C5" stroke-width="1.23838" stroke-miterlimit="10" stroke-linecap="round" stroke-linejoin="round"/>
<path d="M31.3438 238.303C33.0906 237.704 34.9373 237.305 36.8838 237.105" stroke="#AAB2C5" stroke-width="1.23838" stroke-miterlimit="10" stroke-linecap="round" stroke-linejoin="round"/>
<path d="M136.753 172.422H120.283L116.889 174.718C116.19 175.217 115.791 175.965 115.791 176.814V179.06H141.744V176.914C141.744 176.015 141.295 175.217 140.546 174.768L136.753 172.422Z" fill="white" stroke="#AAB2C5" stroke-width="1.23838" stroke-miterlimit="10" stroke-linecap="round" stroke-linejoin="round"/>
<path d="M142.843 180.11C142.843 180.659 142.394 181.108 141.845 181.108H115.492C114.943 181.108 114.494 180.659 114.494 180.11C114.494 179.561 114.943 179.111 115.492 179.111H141.845C142.394 179.111 142.843 179.561 142.843 180.11Z" fill="white" stroke="#AAB2C5" stroke-width="1.23838" stroke-miterlimit="10" stroke-linecap="round" stroke-linejoin="round"/>
<path d="M85.4956 33.2229H85.0964C84.4475 33.2229 83.9484 32.7238 83.9484 32.075V31.6757C83.9484 31.1766 83.5491 30.7773 83.05 30.7773C82.5509 30.7773 82.1517 31.1766 82.1517 31.6757V32.075C82.1517 32.7238 81.6526 33.2229 81.0037 33.2229H80.6044C80.1053 33.2229 79.7061 33.6222 79.7061 34.1213C79.7061 34.6204 80.1053 35.0197 80.6044 35.0197H81.0037C81.6526 35.0197 82.1517 35.5188 82.1517 36.1676V36.5669C82.1517 37.066 82.5509 37.4653 83.05 37.4653C83.5491 37.4653 83.9484 37.066 83.9484 36.5669V36.1676C83.9484 35.5188 84.4475 35.0197 85.0964 35.0197H85.4956C85.9947 35.0197 86.394 34.6204 86.394 34.1213C86.394 33.6721 85.9947 33.2229 85.4956 33.2229Z" fill="#D6DDE8"/>
<path d="M60.0415 17.3022H59.6921C59.193 17.3022 58.7438 16.9029 58.7438 16.3539V16.0045C58.7438 15.6052 58.3944 15.2559 57.9952 15.2559C57.5959 15.2559 57.2465 15.6052 57.2465 16.0045V16.3539C57.2465 16.853 56.8472 17.3022 56.2982 17.3022H55.9488C55.5496 17.3022 55.2002 17.6515 55.2002 18.0508C55.2002 18.4501 55.5496 18.7995 55.9488 18.7995H56.2982C56.7973 18.7995 57.2465 19.1988 57.2465 19.7478V20.0971C57.2465 20.4964 57.5959 20.8458 57.9952 20.8458C58.3944 20.8458 58.7438 20.4964 58.7438 20.0971V19.7478C58.7438 19.2487 59.1431 18.7995 59.6921 18.7995H60.0415C60.4408 18.7995 60.7901 18.4501 60.7901 18.0508C60.7901 17.6515 60.4408 17.3022 60.0415 17.3022Z" fill="#D6DDE8"/>
<path d="M29.0483 122.863H28.6989C28.1998 122.863 27.7507 122.463 27.7507 121.914V121.565C27.7507 121.166 27.4013 120.816 27.002 120.816C26.6027 120.816 26.2533 121.166 26.2533 121.565V121.914C26.2533 122.414 25.8541 122.863 25.3051 122.863H24.9557C24.5564 122.863 24.207 123.212 24.207 123.611C24.207 124.011 24.5564 124.36 24.9557 124.36H25.3051C25.8042 124.36 26.2533 124.759 26.2533 125.308V125.658C26.2533 126.057 26.6027 126.406 27.002 126.406C27.4013 126.406 27.7507 126.057 27.7507 125.658V125.308C27.7507 124.809 28.1499 124.36 28.6989 124.36H29.0483C29.4476 124.36 29.797 124.011 29.797 123.611C29.797 123.162 29.4476 122.863 29.0483 122.863Z" fill="#D6DDE8"/>
<path d="M111.2 2.37922H110.85C110.351 2.37922 109.902 1.97994 109.902 1.43093V1.13146C109.902 0.732184 109.553 0.382812 109.153 0.382812C108.754 0.382812 108.405 0.732184 108.405 1.13146V1.48084C108.405 1.97994 108.005 2.42913 107.456 2.42913H107.107C106.708 2.42913 106.358 2.7785 106.358 3.17778C106.358 3.57706 106.708 3.92643 107.107 3.92643H107.456C107.956 3.92643 108.405 4.32571 108.405 4.87473V5.2241C108.405 5.62338 108.754 5.97275 109.153 5.97275C109.553 5.97275 109.902 5.62338 109.902 5.2241V4.77491C109.902 4.2758 110.301 3.82661 110.85 3.82661H111.2C111.599 3.82661 111.948 3.47724 111.948 3.07796C111.948 2.72859 111.649 2.37922 111.2 2.37922Z" fill="#D6DDE8"/>
<path d="M242.314 61.5737H241.965C241.465 61.5737 241.016 61.1744 241.016 60.6254V60.276C241.016 59.8767 240.667 59.5273 240.268 59.5273C239.868 59.5273 239.519 59.8767 239.519 60.276V60.6254C239.519 61.1245 239.12 61.5737 238.571 61.5737H238.221C237.822 61.5737 237.473 61.923 237.473 62.3223C237.473 62.7216 237.822 63.071 238.221 63.071H238.571C239.07 63.071 239.519 63.4702 239.519 64.0193V64.3686C239.519 64.7679 239.868 65.1173 240.268 65.1173C240.667 65.1173 241.016 64.7679 241.016 64.3686V64.0193C241.016 63.5202 241.416 63.071 241.965 63.071H242.314C242.713 63.071 243.063 62.7216 243.063 62.3223C243.063 61.923 242.713 61.5737 242.314 61.5737Z" fill="#D6DDE8"/>
<path d="M214.614 169.878H214.264C213.765 169.878 213.316 169.479 213.316 168.93V168.581C213.316 168.181 212.966 167.832 212.567 167.832C212.168 167.832 211.819 168.181 211.819 168.581V168.93C211.819 169.429 211.419 169.878 210.87 169.878H210.621C210.221 169.878 209.872 170.228 209.872 170.627C209.872 171.026 210.221 171.376 210.621 171.376H210.97C211.469 171.376 211.918 171.775 211.918 172.324V172.673C211.918 173.073 212.268 173.422 212.667 173.422C213.066 173.422 213.416 173.073 213.416 172.673V172.324C213.416 171.825 213.815 171.376 214.364 171.376H214.713C215.113 171.376 215.462 171.026 215.462 170.627C215.362 170.228 215.013 169.878 214.614 169.878Z" fill="#D6DDE8"/>
<path d="M25.7543 177.464H25.4548C24.9557 177.464 24.5065 177.065 24.5065 176.516V176.167C24.5065 175.767 24.1571 175.418 23.7579 175.418C23.3586 175.418 23.0092 175.767 23.0092 176.167V176.516C23.0092 177.015 22.6099 177.464 22.0609 177.464H21.7115C21.3123 177.464 20.9629 177.814 20.9629 178.213C20.9629 178.612 21.3123 178.962 21.7115 178.962H22.0609C22.56 178.962 23.0092 179.361 23.0092 179.91V180.259C23.0092 180.659 23.3586 181.008 23.7579 181.008C24.1571 181.008 24.5065 180.659 24.5065 180.259V179.91C24.5065 179.411 24.9058 178.962 25.4548 178.962H25.8042C26.2035 178.962 26.5528 178.612 26.5528 178.213C26.5029 177.814 26.1535 177.464 25.7543 177.464Z" fill="#D6DDE8"/>
<path d="M182.771 88.5745H182.372C181.723 88.5745 181.224 88.0754 181.224 87.4266V87.0273C181.224 86.5282 180.825 86.1289 180.325 86.1289C179.826 86.1289 179.427 86.5282 179.427 87.0273V87.4266C179.427 88.0754 178.928 88.5745 178.279 88.5745H177.88C177.381 88.5745 176.981 88.9738 176.981 89.4729C176.981 89.972 177.381 90.3713 177.88 90.3713H178.279C178.928 90.3713 179.427 90.8704 179.427 91.5192V91.9185C179.427 92.4176 179.826 92.8169 180.325 92.8169C180.825 92.8169 181.224 92.4176 181.224 91.9185V91.5192C181.224 90.8704 181.723 90.3713 182.372 90.3713H182.771C183.27 90.3713 183.669 89.972 183.669 89.4729C183.669 88.9738 183.27 88.5745 182.771 88.5745Z" fill="#D6DDE8"/>
<path d="M194.1 157.299H193.701C193.052 157.299 192.553 156.8 192.553 156.151V155.752C192.553 155.253 192.154 154.854 191.655 154.854C191.156 154.854 190.756 155.253 190.756 155.752V156.151C190.756 156.8 190.257 157.299 189.608 157.299H189.159C188.66 157.299 188.261 157.698 188.261 158.198C188.261 158.697 188.66 159.096 189.159 159.096H189.558C190.207 159.096 190.706 159.595 190.706 160.244V160.643C190.706 161.142 191.106 161.541 191.605 161.541C192.104 161.541 192.503 161.142 192.503 160.643V160.244C192.503 159.595 193.002 159.096 193.651 159.096H194.05C194.549 159.096 194.949 158.697 194.949 158.198C194.999 157.698 194.599 157.299 194.1 157.299Z" fill="#D6DDE8"/>
<path d="M237.822 87.1271H237.572C237.173 87.1271 236.874 86.8276 236.874 86.4283V86.2287C236.874 85.9292 236.624 85.6797 236.325 85.6797C236.025 85.6797 235.776 85.9292 235.776 86.2287V86.4783C235.776 86.8775 235.476 87.177 235.077 87.177H234.827C234.528 87.177 234.278 87.4265 234.278 87.726C234.278 88.0255 234.528 88.275 234.827 88.275H235.077C235.476 88.275 235.776 88.5745 235.776 88.9738V89.2233C235.776 89.5228 236.025 89.7723 236.325 89.7723C236.624 89.7723 236.874 89.5228 236.874 89.2233V88.9738C236.874 88.5745 237.173 88.275 237.572 88.275H237.822C238.121 88.275 238.371 88.0255 238.371 87.726C238.371 87.3766 238.121 87.1271 237.822 87.1271Z" fill="#D6DDE8"/>
<path d="M214.464 99.5045H214.264C213.965 99.5045 213.715 99.2549 213.715 98.9555V98.7558C213.715 98.5063 213.516 98.3066 213.266 98.3066C213.017 98.3066 212.817 98.5063 212.817 98.7558V98.9555C212.817 99.2549 212.567 99.5045 212.268 99.5045H212.068C211.819 99.5045 211.619 99.7041 211.619 99.9537C211.619 100.203 211.819 100.403 212.068 100.403H212.268C212.567 100.403 212.817 100.652 212.817 100.952V101.152C212.817 101.401 213.017 101.601 213.266 101.601C213.516 101.601 213.715 101.401 213.715 101.152V100.952C213.715 100.652 213.965 100.403 214.264 100.403H214.464C214.714 100.403 214.913 100.203 214.913 99.9537C214.913 99.7041 214.714 99.5045 214.464 99.5045Z" fill="#D6DDE8"/>
<path d="M166.651 35.3697H166.451C166.151 35.3697 165.902 35.1202 165.902 34.8207V34.6211C165.902 34.3715 165.702 34.1719 165.453 34.1719C165.203 34.1719 165.004 34.3715 165.004 34.6211V34.8207C165.004 35.1202 164.754 35.3697 164.454 35.3697H164.255C164.005 35.3697 163.806 35.5694 163.806 35.8189C163.806 36.0685 164.005 36.2681 164.255 36.2681H164.454C164.754 36.2681 165.004 36.5177 165.004 36.8171V37.0168C165.004 37.2663 165.203 37.4659 165.453 37.4659C165.702 37.4659 165.902 37.2663 165.902 37.0168V36.8171C165.902 36.5177 166.151 36.2681 166.451 36.2681H166.651C166.9 36.2681 167.1 36.0685 167.1 35.8189C167.05 35.5694 166.9 35.3697 166.651 35.3697Z" fill="#D6DDE8"/>
<path d="M216.111 33.7232H215.912C215.612 33.7232 215.363 33.4737 215.363 33.1742V32.9746C215.363 32.725 215.163 32.5254 214.914 32.5254C214.664 32.5254 214.464 32.725 214.464 32.9746V33.1742C214.464 33.4737 214.215 33.7232 213.915 33.7232H213.716C213.466 33.7232 213.267 33.9229 213.267 34.1724C213.267 34.422 213.466 34.6216 213.716 34.6216H213.915C214.215 34.6216 214.464 34.8712 214.464 35.1706V35.3703C214.464 35.6198 214.664 35.8195 214.914 35.8195C215.163 35.8195 215.363 35.6198 215.363 35.3703V35.1706C215.363 34.8712 215.612 34.6216 215.912 34.6216H216.111C216.361 34.6216 216.561 34.422 216.561 34.1724C216.561 33.9229 216.361 33.7232 216.111 33.7232Z" fill="#D6DDE8"/>
<path d="M15.7717 75.2475H15.5221C15.1229 75.2475 14.7735 74.8981 14.7735 74.4989V74.2493C14.7735 73.8999 14.5239 73.6504 14.1746 73.6504C13.8252 73.6504 13.5756 73.8999 13.5756 74.2493V74.4989C13.5756 74.8981 13.2263 75.2475 12.827 75.2475H12.5774C12.2281 75.2475 11.9785 75.4971 11.9785 75.8464C11.9785 76.1958 12.2281 76.4454 12.5774 76.4454H12.827C13.2263 76.4454 13.5756 76.7947 13.5756 77.194V77.4436C13.5756 77.7929 13.8252 78.0425 14.1746 78.0425C14.5239 78.0425 14.7735 77.7929 14.7735 77.4436V77.194C14.7735 76.7947 15.1229 76.4454 15.5221 76.4454H15.7717C16.1211 76.4454 16.3706 76.1958 16.3706 75.8464C16.3706 75.547 16.0711 75.2475 15.7717 75.2475Z" fill="#D6DDE8"/>
<path d="M64.3342 147.07H64.0846C63.6854 147.07 63.336 146.72 63.336 146.321V146.072C63.336 145.722 63.0864 145.473 62.7371 145.473C62.3877 145.473 62.1381 145.722 62.1381 146.072V146.321C62.1381 146.72 61.7888 147.07 61.3895 147.07H61.1399C60.7906 147.07 60.541 147.319 60.541 147.669C60.541 148.018 60.7906 148.268 61.1399 148.268H61.3895C61.7888 148.268 62.1381 148.617 62.1381 149.016V149.266C62.1381 149.615 62.3877 149.865 62.7371 149.865C63.0864 149.865 63.336 149.615 63.336 149.266V149.016C63.336 148.617 63.6854 148.268 64.0846 148.268H64.3342C64.6836 148.268 64.9331 148.018 64.9331 147.669C64.9331 147.319 64.6336 147.07 64.3342 147.07Z" fill="#D6DDE8"/>
<path d="M247.504 171.923H247.255C246.855 171.923 246.506 171.574 246.506 171.175V170.925C246.506 170.576 246.256 170.326 245.907 170.326C245.558 170.326 245.308 170.576 245.308 170.925V171.175C245.308 171.574 244.959 171.923 244.559 171.923H244.31C243.96 171.923 243.711 172.173 243.711 172.522C243.711 172.872 243.96 173.121 244.31 173.121H244.559C244.959 173.121 245.308 173.471 245.308 173.87V174.119C245.308 174.469 245.558 174.718 245.907 174.718C246.256 174.718 246.506 174.469 246.506 174.119V173.87C246.506 173.471 246.855 173.121 247.255 173.121H247.504C247.853 173.121 248.103 172.872 248.103 172.522C248.103 172.223 247.804 171.923 247.504 171.923Z" fill="#D6DDE8"/>
<path d="M10.8308 43.4559H10.6311C10.2817 43.4559 10.0322 43.2063 10.0322 42.8569V42.6573C10.0322 42.4078 9.83256 42.1582 9.53309 42.1582C9.28354 42.1582 9.03399 42.3578 9.03399 42.6573V42.8569C9.03399 43.2063 8.78444 43.4559 8.43507 43.4559H8.23543C7.98588 43.4559 7.73633 43.6555 7.73633 43.955C7.73633 44.2045 7.93597 44.4541 8.23543 44.4541H8.48498C8.83435 44.4541 9.0839 44.7036 9.0839 45.053V45.2526C9.0839 45.5022 9.28354 45.7517 9.583 45.7517C9.83256 45.7517 10.0821 45.5521 10.0821 45.2526V45.053C10.0821 44.7036 10.3317 44.4541 10.681 44.4541H10.8807C11.1302 44.4541 11.3798 44.2544 11.3798 43.955C11.3299 43.6555 11.0803 43.4559 10.8308 43.4559Z" fill="#D6DDE8"/>
<path d="M29.6462 20.9461H29.4465C29.0972 20.9461 28.8476 20.6966 28.8476 20.3472V20.1475C28.8476 19.898 28.648 19.6484 28.3485 19.6484C28.099 19.6484 27.8494 19.8481 27.8494 20.1475V20.3472C27.8494 20.6966 27.5999 20.9461 27.2505 20.9461H27.0509C26.8013 20.9461 26.5518 21.1457 26.5518 21.4452C26.5518 21.6948 26.7514 21.9443 27.0509 21.9443H27.2505C27.5999 21.9443 27.8494 22.1939 27.8494 22.5432V22.7429C27.8494 22.9924 28.0491 23.242 28.3485 23.242C28.5981 23.242 28.8476 23.0423 28.8476 22.7429V22.5432C28.8476 22.1939 29.0972 21.9443 29.4465 21.9443H29.6462C29.8957 21.9443 30.1453 21.7447 30.1453 21.4452C30.1453 21.1457 29.9456 20.9461 29.6462 20.9461Z" fill="#D6DDE8"/>
<path d="M3.04452 118.819H2.84488C2.49551 118.819 2.24596 118.57 2.24596 118.22V118.021C2.24596 117.771 2.04632 117.521 1.74686 117.521C1.4973 117.521 1.24775 117.721 1.24775 118.021V118.22C1.24775 118.57 0.998203 118.819 0.648832 118.819H0.499102C0.249551 118.819 0 119.019 0 119.318C0 119.568 0.199641 119.817 0.499102 119.817H0.698742C1.04811 119.817 1.29766 120.067 1.29766 120.416V120.616C1.29766 120.865 1.4973 121.115 1.79677 121.115C2.04632 121.115 2.29587 120.915 2.29587 120.616V120.416C2.29587 120.067 2.54542 119.817 2.89479 119.817H3.09443C3.34398 119.817 3.59353 119.618 3.59353 119.318C3.54362 119.019 3.34398 118.819 3.04452 118.819Z" fill="#D6DDE8"/>
<path d="M76.3132 58.827H76.1135C75.7642 58.827 75.5146 58.5774 75.5146 58.228V58.0284C75.5146 57.7788 75.315 57.5293 75.0155 57.5293C74.766 57.5293 74.5164 57.7289 74.5164 58.0284V58.228C74.5164 58.5774 74.2669 58.827 73.9175 58.827H73.7179C73.4683 58.827 73.2188 59.0266 73.2188 59.3261C73.2188 59.5756 73.4184 59.8252 73.7179 59.8252H73.9175C74.2669 59.8252 74.5164 60.0747 74.5164 60.4241V60.6237C74.5164 60.8733 74.7161 61.1228 75.0155 61.1228C75.2651 61.1228 75.5146 60.9232 75.5146 60.6237V60.4241C75.5146 60.0747 75.7642 59.8252 76.1135 59.8252H76.3132C76.5627 59.8252 76.8123 59.6255 76.8123 59.3261C76.8123 59.0266 76.5627 58.827 76.3132 58.827Z" fill="#D6DDE8"/>
<path d="M62.8874 117.022H62.6878C62.3384 117.022 62.0888 116.773 62.0888 116.423V116.224C62.0888 115.974 61.8892 115.725 61.5897 115.725C61.3402 115.725 61.0906 115.924 61.0906 116.224V116.423C61.0906 116.773 60.8411 117.022 60.4917 117.022H60.2921C60.0425 117.022 59.793 117.222 59.793 117.521C59.793 117.771 59.9926 118.02 60.2921 118.02H60.4917C60.8411 118.02 61.0906 118.27 61.0906 118.619V118.819C61.0906 119.069 61.2903 119.318 61.5897 119.318C61.8393 119.318 62.0888 119.118 62.0888 118.819V118.619C62.0888 118.27 62.3384 118.02 62.6878 118.02H62.8874C63.1369 118.02 63.3865 117.821 63.3865 117.521C63.3366 117.222 63.1369 117.022 62.8874 117.022Z" fill="#D6DDE8"/>
<path d="M149.032 14.1583C147.485 14.1583 146.237 12.9105 146.237 11.3633C146.237 9.81611 147.485 8.56836 149.032 8.56836C150.579 8.56836 151.827 9.81611 151.827 11.3633C151.827 12.9105 150.53 14.1583 149.032 14.1583ZM149.032 10.1156C148.334 10.1156 147.735 10.6646 147.735 11.4132C147.735 12.1619 148.284 12.7109 149.032 12.7109C149.731 12.7109 150.33 12.1619 150.33 11.4132C150.33 10.6646 149.731 10.1156 149.032 10.1156Z" fill="#D6DDE8"/>
<path d="M51.5079 44.9024C49.9606 44.9024 48.7129 43.6547 48.7129 42.1075C48.7129 40.5603 49.9606 39.3125 51.5079 39.3125C53.0551 39.3125 54.3028 40.5603 54.3028 42.1075C54.3028 43.6547 53.0052 44.9024 51.5079 44.9024ZM51.5079 40.8597C50.8091 40.8597 50.2102 41.4087 50.2102 42.1574C50.2102 42.906 50.7592 43.455 51.5079 43.455C52.2565 43.455 52.8055 42.906 52.8055 42.1574C52.8055 41.4087 52.2066 40.8597 51.5079 40.8597Z" fill="#D6DDE8"/>
<path d="M171.84 22.8426C170.742 22.8426 169.794 21.9443 169.794 20.7963C169.794 19.6484 170.692 18.75 171.84 18.75C172.938 18.75 173.887 19.6484 173.887 20.7963C173.887 21.9443 172.938 22.8426 171.84 22.8426ZM171.84 19.848C171.341 19.848 170.892 20.2473 170.892 20.7963C170.892 21.3453 171.291 21.7446 171.84 21.7446C172.339 21.7446 172.789 21.3453 172.789 20.7963C172.789 20.2473 172.339 19.848 171.84 19.848Z" fill="#D6DDE8"/>
<path d="M186.814 185.1C185.716 185.1 184.768 184.202 184.768 183.054C184.768 181.956 185.666 181.008 186.814 181.008C187.912 181.008 188.86 181.906 188.86 183.054C188.81 184.202 187.912 185.1 186.814 185.1ZM186.814 182.156C186.315 182.156 185.866 182.555 185.866 183.104C185.866 183.603 186.265 184.052 186.814 184.052C187.313 184.052 187.762 183.653 187.762 183.104C187.762 182.555 187.313 182.156 186.814 182.156Z" fill="#D6DDE8"/>
<path d="M107.106 182.504H91.0852C90.7359 182.504 90.4863 182.255 90.4863 181.906C90.4863 181.556 90.7359 181.307 91.0852 181.307H107.106C107.456 181.307 107.705 181.556 107.705 181.906C107.705 182.255 107.406 182.504 107.106 182.504Z" fill="#AAB2C5" stroke="#AAB2C5" stroke-width="1.23838" stroke-miterlimit="10" stroke-linecap="round" stroke-linejoin="round"/>
<path d="M106.308 178.661C106.757 178.961 107.057 179.46 107.057 179.959V181.257H91.2852V179.909C91.2852 179.41 91.5347 178.911 91.934 178.612L93.9803 177.214H94.0302V171.574H104.062V177.314L106.308 178.661Z" fill="#D6DCE8" stroke="#AAB2C5" stroke-width="1.23838" stroke-miterlimit="10" stroke-linecap="round" stroke-linejoin="round"/>
<path opacity="0.3" d="M107.006 180.009V181.307H102.365V180.009C102.365 179.46 102.265 178.961 102.065 178.711L101.167 177.314V171.574H104.062V177.314L106.308 178.711C106.757 178.961 107.006 179.46 107.006 180.009Z" fill="#AAB2C5"/>
<path d="M100.119 44.4528C99.5202 43.9038 98.5719 43.9038 97.973 44.4528C95.0283 46.9483 90.4365 55.7824 90.4365 65.1655V175.417C90.4365 176.465 91.285 177.264 92.2832 177.264H99.0211H105.809C106.857 177.264 107.656 176.415 107.656 175.417V65.1655C107.705 55.7824 103.064 46.9982 100.119 44.4528Z" fill="#F1F3FA" stroke="#AAB2C5" stroke-width="1.23838" stroke-miterlimit="10"/>
<path opacity="0.3" d="M107.706 65.1667V175.418C107.706 176.466 106.857 177.315 105.809 177.315H101.018C101.317 177.315 101.567 176.466 101.567 175.418V65.1667C101.567 55.7836 100.219 46.9994 99.3708 44.454C99.2709 44.2044 99.1711 44.0547 99.0713 44.0547C99.4706 44.0547 99.8199 44.2044 100.119 44.454C103.064 46.9994 107.706 55.7836 107.706 65.1667Z" fill="#AAB2C5"/>
<path d="M99.0709 44.0547C98.9711 44.0547 98.9212 44.2044 98.8713 44.454C98.2724 46.9994 97.3241 55.7836 97.3241 65.1667V175.418C97.3241 176.466 97.4738 177.315 97.7234 177.315H94.4792C93.7805 177.315 93.2314 176.466 93.2314 175.418V65.1667C93.2314 55.7836 96.3758 46.9994 98.3722 44.454C98.5219 44.2044 98.8214 44.0547 99.0709 44.0547Z" fill="white"/>
<path d="M130.464 16.0045C129.017 15.3058 126.871 15.3058 125.423 16.0045C118.586 19.4483 107.655 35.5693 107.655 48.3962C107.655 62.9201 107.655 170.576 107.655 170.576H127.919H148.182C148.182 170.576 148.182 62.9201 148.182 48.3962C148.182 35.6192 137.302 19.4982 130.464 16.0045Z" fill="#D6DCE8" stroke="#AAB2C5" stroke-width="1.23838" stroke-miterlimit="10" stroke-linecap="round" stroke-linejoin="round"/>
<path opacity="0.5" d="M148.182 48.4466C148.182 62.9704 148.182 170.627 148.182 170.627H136.354C136.354 170.627 136.354 62.9704 136.354 48.4466C136.354 35.6197 131.812 19.4987 128.967 16.0549C128.668 15.7055 128.268 15.5059 127.919 15.5059C128.817 15.5059 129.716 15.7055 130.414 16.0549C137.302 19.4987 148.182 35.6197 148.182 48.4466Z" fill="#AAB2C5"/>
<path d="M127.919 15.5059C127.62 15.5059 127.32 15.7055 127.121 16.0549C124.875 19.4987 121.381 35.6197 121.381 48.4466C121.381 62.9704 121.381 170.627 121.381 170.627H112.996C112.996 170.627 112.996 62.9704 112.996 48.4466C112.996 35.6197 121.032 19.4987 126.122 16.0549C126.622 15.6556 127.27 15.5059 127.919 15.5059Z" fill="white"/>
<path d="M130.464 16.0045C129.017 15.3058 126.871 15.3058 125.423 16.0045C118.586 19.4483 107.655 35.5693 107.655 48.3962C107.655 62.9201 107.655 170.576 107.655 170.576H127.919H148.182C148.182 170.576 148.182 62.9201 148.182 48.3962C148.182 35.6192 137.302 19.4982 130.464 16.0045Z" stroke="#AAB2C5" stroke-width="1.23838" stroke-miterlimit="10" stroke-linecap="round" stroke-linejoin="round"/>
<path d="M118.735 57.7285H148.182" stroke="#AAB2C5" stroke-width="1.23838" stroke-miterlimit="10" stroke-linecap="round" stroke-linejoin="round"/>
<path d="M115.691 57.7285H115.841" stroke="#AAB2C5" stroke-width="1.23838" stroke-miterlimit="10" stroke-linecap="round" stroke-linejoin="round"/>
<path d="M107.655 57.7285H112.746" stroke="#AAB2C5" stroke-width="1.23838" stroke-miterlimit="10" stroke-linecap="round" stroke-linejoin="round"/>
<path d="M117.288 79.3906H148.182" stroke="#AAB2C5" stroke-width="1.23838" stroke-miterlimit="10" stroke-linecap="round" stroke-linejoin="round"/>
<path d="M107.655 79.3906H112.946" stroke="#AAB2C5" stroke-width="1.23838" stroke-miterlimit="10" stroke-linecap="round" stroke-linejoin="round"/>
<path d="M99.5205 66.6621H107.706" stroke="#AAB2C5" stroke-width="1.23838" stroke-miterlimit="10" stroke-linecap="round" stroke-linejoin="round"/>
<path d="M96.127 66.6621H96.676" stroke="#AAB2C5" stroke-width="1.23838" stroke-miterlimit="10" stroke-linecap="round" stroke-linejoin="round"/>
<path d="M90.4365 66.6621H93.9801" stroke="#AAB2C5" stroke-width="1.23838" stroke-miterlimit="10" stroke-linecap="round" stroke-linejoin="round"/>
<path d="M96.9746 89.4727H107.705" stroke="#AAB2C5" stroke-width="1.23838" stroke-miterlimit="10" stroke-linecap="round" stroke-linejoin="round"/>
<path d="M93.6807 89.4727H94.1299" stroke="#AAB2C5" stroke-width="1.23838" stroke-miterlimit="10" stroke-linecap="round" stroke-linejoin="round"/>
<path d="M90.4365 106.74H107.705" stroke="#AAB2C5" stroke-width="1.23838" stroke-miterlimit="10" stroke-linecap="round" stroke-linejoin="round"/>
<path d="M100.119 44.4528C99.5202 43.9038 98.5719 43.9038 97.973 44.4528C95.0283 46.9483 90.4365 55.7824 90.4365 65.1655V175.417C90.4365 176.465 91.285 177.264 92.2832 177.264H99.0211H105.809C106.857 177.264 107.656 176.415 107.656 175.417V65.1655C107.705 55.7824 103.064 46.9982 100.119 44.4528Z" stroke="#AAB2C5" stroke-width="1.23838" stroke-miterlimit="10"/>
<path d="M164.852 182.504H148.831C148.482 182.504 148.232 182.255 148.232 181.906C148.232 181.556 148.482 181.307 148.831 181.307H164.852C165.202 181.307 165.451 181.556 165.451 181.906C165.451 182.255 165.152 182.504 164.852 182.504Z" fill="#AAB2C5" stroke="#AAB2C5" stroke-width="1.23838" stroke-miterlimit="10" stroke-linecap="round" stroke-linejoin="round"/>
<path d="M164.054 178.661C164.503 178.961 164.803 179.46 164.803 179.959V181.257H149.031V179.909C149.031 179.41 149.281 178.911 149.68 178.612L151.726 177.214H151.776V171.574H161.808V177.314L164.054 178.661Z" fill="#D6DCE8" stroke="#AAB2C5" stroke-width="1.23838" stroke-miterlimit="10" stroke-linecap="round" stroke-linejoin="round"/>
<path opacity="0.3" d="M164.753 180.009V181.307H160.61V180.009C160.61 179.46 160.461 178.961 160.261 178.711L159.213 177.314V171.574H161.808V177.314L164.054 178.711C164.503 178.961 164.753 179.46 164.753 180.009Z" fill="#AAB2C5"/>
<path d="M157.865 44.4528C157.266 43.9038 156.318 43.9038 155.719 44.4528C152.774 46.9483 148.183 55.7824 148.183 65.1655V175.417C148.183 176.465 149.031 177.264 150.029 177.264H156.767H163.505C164.553 177.264 165.352 176.415 165.352 175.417V65.1655C165.452 55.7824 160.81 46.9982 157.865 44.4528Z" fill="#F1F3FA" stroke="#AAB2C5" stroke-width="1.23838" stroke-miterlimit="10"/>
<path opacity="0.3" d="M165.452 65.1667V175.418C165.452 176.466 164.603 177.315 163.555 177.315H158.764C159.063 177.315 159.313 176.466 159.313 175.418V65.1667C159.313 55.7836 157.965 46.9994 157.117 44.454C157.017 44.2044 156.917 44.0547 156.817 44.0547C157.217 44.0547 157.566 44.2044 157.865 44.454C160.81 46.9994 165.452 55.7836 165.452 65.1667Z" fill="#AAB2C5"/>
<path d="M156.817 44.0547C156.717 44.0547 156.667 44.2044 156.617 44.454C156.018 46.9994 155.07 55.7836 155.07 65.1667V175.418C155.07 176.466 155.22 177.315 155.469 177.315H152.225C151.527 177.315 150.978 176.466 150.978 175.418V65.1667C150.978 55.7836 154.122 46.9994 156.118 44.454C156.318 44.2044 156.567 44.0547 156.817 44.0547Z" fill="white"/>
<path d="M155.07 66.6621H165.452" stroke="#AAB2C5" stroke-width="1.23838" stroke-miterlimit="10" stroke-linecap="round" stroke-linejoin="round"/>
<path d="M148.183 66.6621H151.726" stroke="#AAB2C5" stroke-width="1.23838" stroke-miterlimit="10" stroke-linecap="round" stroke-linejoin="round"/>
<path d="M155.969 89.4727H165.452" stroke="#AAB2C5" stroke-width="1.23838" stroke-miterlimit="10" stroke-linecap="round" stroke-linejoin="round"/>
<path d="M148.183 89.4727H151.876" stroke="#AAB2C5" stroke-width="1.23838" stroke-miterlimit="10" stroke-linecap="round" stroke-linejoin="round"/>
<path d="M148.183 106.74H165.452" stroke="#AAB2C5" stroke-width="1.23838" stroke-miterlimit="10" stroke-linecap="round" stroke-linejoin="round"/>
<path d="M157.865 44.4528C157.266 43.9038 156.318 43.9038 155.719 44.4528C152.774 46.9483 148.183 55.7824 148.183 65.1655V175.417C148.183 176.465 149.031 177.264 150.029 177.264H156.767H163.505C164.553 177.264 165.352 176.415 165.352 175.417V65.1655C165.452 55.7824 160.81 46.9982 157.865 44.4528Z" stroke="#AAB2C5" stroke-width="1.23838" stroke-miterlimit="10"/>
<path d="M116.292 81.3867L117.141 78.1924L119.237 77.6933L122.731 76.8947L123.13 76.7949L123.429 81.3867L128.62 157.15L117.39 172.473L112.998 171.724L82.4531 166.483C80.5566 166.184 79.209 164.537 79.209 162.64V148.216C79.209 146.519 79.9077 144.822 81.1056 143.625L101.669 122.762C105.013 119.368 107.408 115.176 108.606 110.584L112.998 94.0139L116.292 81.3867Z" fill="white" stroke="#AAB2C5" stroke-width="1.23838" stroke-miterlimit="10" stroke-linecap="round" stroke-linejoin="round"/>
<path d="M119.186 77.6934V98.6057L116.94 101.101L116.741 99.7537C116.641 99.1048 116.092 98.6057 115.443 98.6057C114.844 98.6057 114.345 99.005 114.145 99.554L108.156 121.664C107.757 123.162 106.958 124.509 105.91 125.607L83.4505 148.117C83.0013 148.566 82.7517 149.165 82.7517 149.764V154.655C82.7517 155.952 83.7998 157.001 85.0975 157.001H113.796L114.445 161.642C114.445 161.942 85.397 161.692 79.1582 161.642V148.117C79.1582 146.42 79.807 144.723 81.0548 143.525L101.618 122.662C104.962 119.269 107.357 115.076 108.555 110.484L117.09 78.1426L119.186 77.6934Z" fill="#AAB2C5"/>
<path opacity="0.2" d="M128.619 157.15L117.389 172.423L112.947 171.674V93.9641L116.291 81.3867H123.428L128.619 157.15Z" fill="#99A8CC"/>
<path d="M99.2217 144.523C99.2716 144.473 99.2716 144.423 99.3215 144.373L99.2217 144.523Z" fill="white"/>
<path d="M99.2217 144.523C99.2716 144.473 99.2716 144.423 99.3215 144.373" stroke="#AAB2C5" stroke-width="1.23838" stroke-miterlimit="10" stroke-linecap="round" stroke-linejoin="round"/>
<path d="M106.11 150.913C105.312 151.611 104.263 152.011 103.115 152.011C100.52 152.011 98.374 149.914 98.374 147.269C98.374 147.169 98.374 147.069 98.374 147.02" fill="white"/>
<path d="M106.11 150.913C105.312 151.611 104.263 152.011 103.115 152.011C100.52 152.011 98.374 149.914 98.374 147.269C98.374 147.169 98.374 147.069 98.374 147.02" stroke="#AAB2C5" stroke-width="1.23838" stroke-miterlimit="10" stroke-linecap="round" stroke-linejoin="round"/>
<path d="M102.417 142.577C102.617 142.527 102.866 142.527 103.066 142.527C105.661 142.527 107.807 144.624 107.807 147.269C107.807 147.768 107.757 148.217 107.608 148.666" fill="white"/>
<path d="M102.417 142.577C102.617 142.527 102.866 142.527 103.066 142.527C105.661 142.527 107.807 144.624 107.807 147.269C107.807 147.768 107.757 148.217 107.608 148.666" stroke="#AAB2C5" stroke-width="1.23838" stroke-miterlimit="10" stroke-linecap="round" stroke-linejoin="round"/>
<path d="M178.18 148.166V162.59C178.18 164.487 176.832 166.134 174.935 166.434L152.027 170.376L139.998 172.423L128.769 157.15L134.259 76.7949L134.658 76.8947L138.152 77.7432L140.248 78.2423L147.884 107.04L148.832 110.584C150.03 115.176 152.426 119.368 155.77 122.762L176.333 143.625C177.531 144.822 178.18 146.47 178.18 148.166Z" fill="white" stroke="#AAB2C5" stroke-width="1.23838" stroke-miterlimit="10" stroke-linecap="round" stroke-linejoin="round"/>
<path d="M159.164 141.527H149.681V148.265H159.164V141.527Z" stroke="#AAB2C5" stroke-width="1.23838" stroke-miterlimit="10" stroke-linecap="round" stroke-linejoin="round"/>
<path d="M154.622 141.527H149.681V145.221H154.622V141.527Z" fill="#AAB2C5"/>
<path d="M138.151 77.6934V98.6057L140.397 101.101L140.597 99.7537C140.697 99.1048 141.246 98.6057 141.895 98.6057C142.494 98.6057 142.993 99.005 143.192 99.554L149.231 121.664C149.631 123.162 150.429 124.509 151.477 125.607L173.937 148.117C174.386 148.566 174.636 149.165 174.636 149.764V154.655C174.636 155.952 173.588 157.001 172.29 157.001H143.641L142.993 161.642C142.993 161.942 172.04 161.692 178.279 161.642V148.117C178.279 146.42 177.63 144.723 176.383 143.525L155.72 122.712C152.376 119.318 149.98 115.126 148.782 110.534L140.248 78.1925L138.151 77.6934Z" fill="#AAB2C5"/>
<path opacity="0.3" d="M152.027 156.452V170.376L139.998 172.423L128.769 157.15L134.259 76.7949L134.658 76.8947L138.152 77.7432L140.248 78.2423L147.884 107.04V150.512C150.28 151.361 152.027 153.706 152.027 156.452Z" fill="#99A8CC"/>
<path d="M140.398 74.0991V170.625H116.591V74.0991C116.591 69.9066 117.489 65.7641 119.286 61.9709C119.635 61.2722 119.985 60.5235 120.384 59.8248V59.7749L125.375 51.4898C126.772 49.144 130.166 49.144 131.614 51.4898L136.605 59.7749V59.8248C137.004 60.5235 137.353 61.2223 137.703 61.921C139.5 65.7641 140.398 69.9066 140.398 74.0991Z" fill="white" stroke="#AAB2C5" stroke-width="1.23838" stroke-miterlimit="10" stroke-linecap="round" stroke-linejoin="round"/>
<path opacity="0.3" d="M140.397 74.0992V170.625H133.26V74.0992C133.26 69.9068 132.911 65.7642 132.162 61.971C132.012 61.2723 131.913 60.5736 131.713 59.8748V59.8249L129.717 51.5398C129.417 50.342 128.968 49.793 128.469 49.793C129.667 49.793 130.864 50.3919 131.563 51.5398L136.554 59.8249V59.8748C136.953 60.5736 137.303 61.2723 137.652 61.971C139.499 65.7642 140.397 69.9068 140.397 74.0992Z" fill="#99A8CC"/>
<path d="M137.703 61.9709C136.854 60.6733 135.407 59.8248 133.81 59.8248H123.279C121.682 59.8248 120.184 60.6733 119.336 61.9709C119.685 61.2722 120.035 60.5235 120.434 59.8248V59.7749L125.425 51.4898C126.822 49.144 130.216 49.144 131.664 51.4898L136.655 59.7749V59.8248C137.004 60.5235 137.403 61.2223 137.703 61.9709Z" fill="#AAB2C5"/>
<path d="M133.86 72.5518C133.86 72.9511 133.41 73.1008 133.161 72.8014C132.612 72.1026 131.763 71.7034 130.765 71.7034H126.174C125.275 71.7034 124.427 72.1026 123.878 72.7515C123.828 72.8014 123.828 72.8014 123.778 72.8513C123.528 73.1507 123.079 72.9511 123.079 72.6017C123.079 72.3023 123.079 71.903 123.079 71.4039C123.079 69.707 124.477 68.3594 126.174 68.3594H130.765C130.865 68.3594 130.965 68.3594 131.065 68.3594C131.514 68.4093 131.913 68.559 132.312 68.7587C133.211 69.3077 133.86 70.3059 133.86 71.4039C133.86 71.903 133.86 72.2524 133.86 72.5518Z" fill="#AAB2C5"/>
<path d="M128.52 101.301H140.398" stroke="#AAB2C5" stroke-width="1.23838" stroke-miterlimit="10" stroke-linecap="round" stroke-linejoin="round"/>
<path d="M125.924 101.301H126.423" stroke="#AAB2C5" stroke-width="1.23838" stroke-miterlimit="10" stroke-linecap="round" stroke-linejoin="round"/>
<path d="M116.641 101.301H122.181" stroke="#AAB2C5" stroke-width="1.23838" stroke-miterlimit="10" stroke-linecap="round" stroke-linejoin="round"/>
<path d="M124.876 127.854H140.398" stroke="#AAB2C5" stroke-width="1.23838" stroke-miterlimit="10" stroke-linecap="round" stroke-linejoin="round"/>
<path d="M120.783 127.854H122.181" stroke="#AAB2C5" stroke-width="1.23838" stroke-miterlimit="10" stroke-linecap="round" stroke-linejoin="round"/>
<path d="M122.28 150.062H119.386C115.842 150.062 112.997 152.907 112.997 156.451V172.522H128.669V156.451C128.619 152.907 125.774 150.062 122.28 150.062Z" fill="white" stroke="#AAB2C5" stroke-width="1.23838" stroke-miterlimit="10" stroke-linecap="round" stroke-linejoin="round"/>
<path opacity="0.3" d="M128.619 156.451V172.522H122.38V151.66C122.38 150.761 121.682 150.062 120.783 150.062H122.231C125.774 150.062 128.619 152.907 128.619 156.451Z" fill="#99A8CC"/>
<path d="M137.803 150.062H134.908C131.364 150.062 128.52 152.907 128.52 156.451V172.522H144.191V156.451C144.191 152.907 141.346 150.062 137.803 150.062Z" fill="#F1F3FA" stroke="#AAB2C5" stroke-width="1.23838" stroke-miterlimit="10"/>
<path d="M136.156 150.111C135.707 150.211 135.407 150.61 135.407 151.06V172.571H133.96V152.507C133.96 151.209 134.908 150.211 136.156 150.111Z" fill="white"/>
<path opacity="0.3" d="M144.191 156.451V172.522H138.751V152.159C138.751 151.011 137.802 150.062 136.654 150.062H137.802C141.346 150.062 144.191 152.907 144.191 156.451Z" fill="#AAB2C5"/>
<path opacity="0.1" d="M128.469 156.451V172.522H133.909V152.159C133.909 151.011 134.857 150.062 136.005 150.062H134.857C131.364 150.062 128.469 152.907 128.469 156.451Z" fill="#AAB2C5"/>
<path d="M137.803 150.062H134.908C131.364 150.062 128.52 152.907 128.52 156.451V172.522H144.191V156.451C144.191 152.907 141.346 150.062 137.803 150.062Z" stroke="#AAB2C5" stroke-width="1.23838" stroke-miterlimit="10"/>
<path d="M136.754 172.422H120.284L116.89 174.718C116.191 175.217 115.792 175.965 115.792 176.814V179.06H141.745V176.914C141.745 176.015 141.296 175.217 140.547 174.768L136.754 172.422Z" fill="#D6DCE8" stroke="#AAB2C5" stroke-width="1.23838" stroke-miterlimit="10" stroke-linecap="round" stroke-linejoin="round"/>
<path opacity="0.3" d="M141.745 176.964V179.11H133.959V176.964C133.959 176.065 133.76 175.267 133.46 174.768L131.963 172.422H136.754L140.547 174.768C141.296 175.217 141.745 176.065 141.745 176.964Z" fill="#AAB2C5"/>
<path d="M142.843 180.108C142.843 180.657 142.394 181.106 141.845 181.106H115.492C114.943 181.106 114.494 180.657 114.494 180.108C114.494 179.559 114.943 179.109 115.492 179.109H141.845C142.394 179.109 142.843 179.559 142.843 180.108Z" fill="#AAB2C5" stroke="#AAB2C5" stroke-width="1.23838" stroke-miterlimit="10" stroke-linecap="round" stroke-linejoin="round"/>
<path d="M126.922 86.0769H125.824C125.275 86.0769 124.826 85.6277 124.826 85.0786V83.9806C124.826 83.4316 125.275 82.9824 125.824 82.9824H126.922C127.471 82.9824 127.921 83.4316 127.921 83.9806V85.0786C127.921 85.6277 127.471 86.0769 126.922 86.0769Z" fill="#AAB2C5"/>
<path d="M131.564 86.0769H130.466C129.917 86.0769 129.468 85.6277 129.468 85.0786V83.9806C129.468 83.4316 129.917 82.9824 130.466 82.9824H131.564C132.113 82.9824 132.562 83.4316 132.562 83.9806V85.0786C132.562 85.6277 132.113 86.0769 131.564 86.0769Z" fill="#AAB2C5"/>
<path d="M130.116 183.103H126.872V146.169C126.872 145.271 127.621 144.572 128.469 144.572C129.368 144.572 130.066 145.321 130.066 146.169V183.103H130.116Z" fill="white" stroke="#AAB2C5" stroke-width="1.23838" stroke-miterlimit="10" stroke-linecap="round" stroke-linejoin="round"/>
<path d="M104.611 207.11C106.608 205.463 109.203 204.465 112.048 204.465C116.64 204.465 120.583 207.11 122.479 210.953" stroke="#AAB2C5" stroke-width="1.23838" stroke-miterlimit="10" stroke-linecap="round" stroke-linejoin="round"/>
<path opacity="0.3" d="M129.118 68.3105L127.321 71.7044H126.173C125.274 71.7044 124.426 72.1037 123.877 72.7525L126.223 68.3105H129.118Z" fill="white"/>
<path opacity="0.3" d="M132.312 68.7098L130.765 71.7044H129.268L131.064 68.3105C131.514 68.3605 131.913 68.5102 132.312 68.7098Z" fill="white"/>
<path d="M36.8833 237.058C36.7336 235.66 36.6338 234.263 36.6338 232.865C36.6338 212.452 53.154 195.932 73.5673 195.932C90.5867 195.932 104.911 207.411 109.203 223.083" stroke="#AAB2C5" stroke-width="1.23838" stroke-miterlimit="10" stroke-linecap="round" stroke-linejoin="round"/>
<path d="M40.9762 250.233C39.3791 247.239 38.1813 243.945 37.4326 240.551" stroke="#AAB2C5" stroke-width="1.23838" stroke-miterlimit="10" stroke-linecap="round" stroke-linejoin="round"/>
<path d="M109.503 222.933C109.902 216.245 115.492 210.904 122.28 210.904C124.825 210.904 127.171 211.653 129.168 212.901" stroke="#AAB2C5" stroke-width="1.23838" stroke-miterlimit="10" stroke-linecap="round" stroke-linejoin="round"/>
<path d="M134.658 203.868C136.705 202.47 139.2 201.672 141.845 201.672C146.088 201.672 149.781 203.718 152.127 206.863" stroke="#AAB2C5" stroke-width="1.23838" stroke-miterlimit="10" stroke-linecap="round" stroke-linejoin="round"/>
<path d="M209.923 224.68C211.67 228.273 212.618 232.266 212.618 236.508C212.618 238.704 212.368 240.851 211.869 242.897" stroke="#AAB2C5" stroke-width="1.23838" stroke-miterlimit="10" stroke-linecap="round" stroke-linejoin="round"/>
<path d="M162.857 220.936C167.799 213.849 175.984 209.207 185.267 209.207C194.101 209.207 201.987 213.399 206.978 219.938" stroke="#AAB2C5" stroke-width="1.23838" stroke-miterlimit="10" stroke-linecap="round" stroke-linejoin="round"/>
<path d="M212.617 234.611C212.867 234.611 213.116 234.611 213.366 234.611C220.004 234.611 225.394 240.002 225.394 246.64C225.394 249.035 224.695 251.231 223.498 253.078" stroke="#AAB2C5" stroke-width="1.23838" stroke-miterlimit="10" stroke-linecap="round" stroke-linejoin="round"/>
<path opacity="0.3" d="M212.617 236.557C212.617 255.623 193.551 268.799 175.733 262.161C192.803 265.905 208.974 252.928 208.974 235.459C208.974 223.73 201.587 213.699 191.156 209.855C203.434 212.551 212.617 223.481 212.617 236.557Z" fill="#99A8CC"/>
<path d="M197.545 260.963C197.096 261.212 196.646 261.412 196.197 261.612" stroke="#AAB2C5" stroke-width="1.23838" stroke-miterlimit="10" stroke-linecap="round" stroke-linejoin="round"/>
<path d="M211.919 242.598C210.421 249.136 206.628 254.776 201.388 258.619" stroke="#AAB2C5" stroke-width="1.23838" stroke-miterlimit="10" stroke-linecap="round" stroke-linejoin="round"/>
<path d="M79.7568 241.848C82.9511 242.347 85.4965 244.742 86.2452 247.837" stroke="#AAB2C5" stroke-width="1.23838" stroke-miterlimit="10" stroke-linecap="round" stroke-linejoin="round"/>
<path d="M83.001 242.946C85.5464 238.953 90.0383 236.258 95.1291 236.258C98.0239 236.258 100.719 237.106 102.965 238.604" stroke="#AAB2C5" stroke-width="1.23838" stroke-miterlimit="10" stroke-linecap="round" stroke-linejoin="round"/>
<path d="M100.52 237.306C100.47 236.957 100.47 236.607 100.47 236.258C100.47 228.322 106.908 221.934 114.794 221.934C122.68 221.934 129.118 228.372 129.118 236.258C129.118 237.306 129.018 238.304 128.819 239.302" stroke="#AAB2C5" stroke-width="1.23838" stroke-miterlimit="10" stroke-linecap="round" stroke-linejoin="round"/>
<path d="M128.818 239.303C129.916 240.351 130.865 241.599 131.514 242.996" stroke="#AAB2C5" stroke-width="1.23838" stroke-miterlimit="10" stroke-linecap="round" stroke-linejoin="round"/>
<path d="M129.916 246.938C132.312 238.603 139.948 232.514 149.082 232.514C158.564 232.514 166.5 239.152 168.497 247.986" stroke="#AAB2C5" stroke-width="1.23838" stroke-miterlimit="10" stroke-linecap="round" stroke-linejoin="round"/>
<path opacity="0.3" d="M142.793 271.297C134.857 268.651 129.117 261.215 129.117 252.381C129.117 243.147 135.406 235.411 143.891 233.115C127.57 240.252 126.921 263.261 142.793 271.297Z" fill="#99A8CC"/>
<path d="M129.167 251.431C129.167 251.081 129.217 250.782 129.217 250.482" stroke="#AAB2C5" stroke-width="1.23838" stroke-miterlimit="10" stroke-linecap="round" stroke-linejoin="round"/>
<path d="M161.958 263.859C161.908 263.36 161.858 262.911 161.858 262.412C161.858 256.922 166.3 252.43 171.84 252.43C177.331 252.43 181.822 256.872 181.822 262.412" stroke="#AAB2C5" stroke-width="1.23838" stroke-miterlimit="10" stroke-linecap="round" stroke-linejoin="round"/>
<path d="M238.67 236.608C239.369 235.51 240.616 234.762 242.014 234.762C244.16 234.762 245.907 236.509 245.907 238.655" stroke="#AAB2C5" stroke-width="1.23838" stroke-miterlimit="10" stroke-linecap="round" stroke-linejoin="round"/>
<path d="M238.171 239.404C238.171 239.354 238.171 239.304 238.121 239.254" stroke="#AAB2C5" stroke-width="1.23838" stroke-miterlimit="10" stroke-linecap="round" stroke-linejoin="round"/>
<path d="M244.908 241.25C244.21 242.048 243.162 242.547 241.964 242.547C240.616 242.547 239.468 241.899 238.77 240.9" stroke="#AAB2C5" stroke-width="1.23838" stroke-miterlimit="10" stroke-linecap="round" stroke-linejoin="round"/>
<path d="M93.5322 249.935C94.231 248.837 95.4787 248.088 96.8762 248.088C99.0223 248.088 100.769 249.835 100.769 251.981" stroke="#AAB2C5" stroke-width="1.23838" stroke-miterlimit="10" stroke-linecap="round" stroke-linejoin="round"/>
<path d="M93.0333 252.781C93.0333 252.731 93.0333 252.681 92.9834 252.631" stroke="#AAB2C5" stroke-width="1.23838" stroke-miterlimit="10" stroke-linecap="round" stroke-linejoin="round"/>
<path d="M99.7708 254.576C99.072 255.374 98.0239 255.874 96.8261 255.874C95.4785 255.874 94.3306 255.225 93.6318 254.227" stroke="#AAB2C5" stroke-width="1.23838" stroke-miterlimit="10" stroke-linecap="round" stroke-linejoin="round"/>
<path d="M27.0518 253.776C31.893 251.53 37.2833 250.232 42.9232 250.232C43.9713 250.232 45.0194 250.282 46.0176 250.382" stroke="#AAB2C5" stroke-width="1.23838" stroke-miterlimit="10" stroke-linecap="round" stroke-linejoin="round"/>
<path d="M21.0117 257.32C21.9101 256.671 22.8085 256.072 23.7568 255.523" stroke="#AAB2C5" stroke-width="1.23838" stroke-miterlimit="10" stroke-linecap="round" stroke-linejoin="round"/>
<path d="M240.317 256.571C235.476 254.325 230.086 253.027 224.446 253.027C223.398 253.027 222.35 253.077 221.352 253.177" stroke="#AAB2C5" stroke-width="1.23838" stroke-miterlimit="10" stroke-linecap="round" stroke-linejoin="round"/>
<path d="M182.072 127.803C182.072 123.811 185.316 120.566 189.309 120.566C190.108 120.566 190.856 120.716 191.605 120.916" stroke="#AAB2C5" stroke-width="1.23838" stroke-miterlimit="10" stroke-linecap="round" stroke-linejoin="round"/>
<path d="M230.335 128.551H243.112" stroke="#AAB2C5" stroke-width="1.23838" stroke-miterlimit="10" stroke-linecap="round" stroke-linejoin="round"/>
<path d="M208.725 123.561C211.47 123.561 213.666 125.757 213.666 128.502H224.446" stroke="#AAB2C5" stroke-width="1.23838" stroke-miterlimit="10" stroke-linecap="round" stroke-linejoin="round"/>
<path d="M191.655 120.916C192.753 117.472 195.997 114.977 199.841 114.977C204.582 114.977 208.425 118.82 208.425 123.561" stroke="#AAB2C5" stroke-width="1.23838" stroke-miterlimit="10" stroke-linecap="round" stroke-linejoin="round"/>
<path d="M75.0143 138.185C75.0143 136.338 73.517 134.791 71.6204 134.791C71.271 134.791 70.8717 134.841 70.5723 134.941" stroke="#AAB2C5" stroke-width="1.23838" stroke-miterlimit="10" stroke-linecap="round" stroke-linejoin="round"/>
<path d="M52.5048 138.484H46.5156" stroke="#AAB2C5" stroke-width="1.23838" stroke-miterlimit="10" stroke-linecap="round" stroke-linejoin="round"/>
<path d="M62.5868 136.189C61.2891 136.189 60.2909 137.238 60.2909 138.485H55.25" stroke="#AAB2C5" stroke-width="1.23838" stroke-miterlimit="10" stroke-linecap="round" stroke-linejoin="round"/>
<path d="M70.5223 134.941C70.0232 133.344 68.476 132.146 66.7291 132.146C64.5331 132.146 62.7363 133.943 62.7363 136.139" stroke="#AAB2C5" stroke-width="1.23838" stroke-miterlimit="10" stroke-linecap="round" stroke-linejoin="round"/>
<path d="M9.53223 165.136C9.53223 162.99 11.2791 161.193 13.4751 161.193C13.9243 161.193 14.3236 161.243 14.7229 161.393" stroke="#AAB2C5" stroke-width="1.23838" stroke-miterlimit="10" stroke-linecap="round" stroke-linejoin="round"/>
<path d="M23.9561 162.84C25.4534 162.84 26.6512 164.038 26.6512 165.535H32.4907" stroke="#AAB2C5" stroke-width="1.23838" stroke-miterlimit="10" stroke-linecap="round" stroke-linejoin="round"/>
<path d="M14.7227 161.443C15.3216 159.597 17.0684 158.199 19.1647 158.199C21.7101 158.199 23.8063 160.295 23.8063 162.841" stroke="#AAB2C5" stroke-width="1.23838" stroke-miterlimit="10" stroke-linecap="round" stroke-linejoin="round"/>
<path opacity="0.3" d="M183.619 209.257C189.109 197.328 201.188 189.043 215.212 189.043C234.428 189.043 250 204.615 250 223.83C250 233.213 246.306 241.748 240.267 247.987" stroke="#AAB2C5" stroke-width="1.23838" stroke-miterlimit="10" stroke-linecap="round" stroke-linejoin="round"/>
<path opacity="0.3" d="M3.04438 243.993C-0.499237 231.316 3.34385 217.191 14.0246 208.158C24.8052 199.024 39.5287 197.577 51.5071 203.266" stroke="#AAB2C5" stroke-width="1.23838" stroke-miterlimit="10" stroke-linecap="round" stroke-linejoin="round"/>
<path d="M43.3721 180.859H47.5146V180.61C47.5146 178.464 49.2615 176.717 51.4076 176.717C52.4058 176.717 53.3042 177.116 54.0029 177.715V177.665C55.051 174.471 58.0457 172.125 61.5893 172.125C65.9814 172.125 69.5749 175.719 69.5749 180.111C69.5749 180.51 69.525 180.959 69.4751 181.358L69.5749 181.458H71.721" stroke="#AAB2C5" stroke-width="1.23838" stroke-miterlimit="10" stroke-linecap="round" stroke-linejoin="round"/>
<path d="M231.284 153.556H227.341V153.306C227.341 151.26 225.694 149.613 223.648 149.613C222.699 149.613 221.851 149.962 221.152 150.561V150.511C220.154 147.467 217.309 145.221 213.865 145.221C209.673 145.221 206.229 148.615 206.229 152.857C206.229 153.256 206.279 153.656 206.329 154.055L206.229 154.155H204.183" stroke="#AAB2C5" stroke-width="1.23838" stroke-miterlimit="10" stroke-linecap="round" stroke-linejoin="round"/>
<path d="M31.1934 41.5082C31.1934 41.5582 31.1934 41.6082 31.1934 41.6582V41.4082C31.1934 41.4082 31.1934 41.4582 31.1934 41.5082Z" fill="#F1F3FA" stroke="#AAB2C5" stroke-width="1.23838" stroke-miterlimit="10"/>
<path d="M213.903 66.5067C219.653 60.7569 219.653 51.4345 213.903 45.6847C208.153 39.9349 198.831 39.9349 193.081 45.6847C187.331 51.4345 187.331 60.7569 193.081 66.5067C198.831 72.2565 208.153 72.2565 213.903 66.5067Z" fill="#F1F3FA" stroke="#AAB2C5" stroke-width="1.23838" stroke-miterlimit="10"/>
<path d="M206.578 70.5068C200.689 65.1664 194.5 58.9776 189.109 53.0383C191.505 41.7087 205.63 37.3665 213.965 45.6516C222.2 53.9366 217.908 68.1111 206.578 70.5068Z" fill="#F1F3FA" stroke="#AAB2C5" stroke-width="1.23838" stroke-miterlimit="10"/>
<path d="M194.6 44.354C184.418 35.3202 176.333 29.9299 174.735 31.527C173.088 33.1741 179.127 42.108 189.06 53.0383C205.43 71.1557 225.444 87.4763 228.089 84.8311C230.834 82.086 213.066 60.6746 194.6 44.354ZM210.471 69.0595C192.653 55.5338 177.58 32.9744 193.751 45.0028C205.131 53.4376 219.804 70.457 217.708 72.5532C216.959 73.3018 214.214 71.9044 210.471 69.0595Z" fill="#F1F3FA" stroke="#AAB2C5" stroke-width="1.23838" stroke-miterlimit="10"/>
<path opacity="0.3" d="M181.573 37.3663C179.726 39.2129 187.312 49.7939 198.542 61.0237C209.772 72.2535 220.353 79.8398 222.2 77.9931C226.542 73.651 185.965 32.9742 181.573 37.3663ZM187.013 41.8582C188.361 40.5106 196.346 46.2503 204.831 54.735C213.316 63.2197 219.055 71.1555 217.708 72.5529C214.464 75.7971 183.769 45.1023 187.013 41.8582Z" fill="#AAB2C5"/>
<path d="M210.471 69.0585C203.933 64.1174 195.448 55.6326 190.507 49.0944C195.049 40.6097 206.778 38.5134 213.915 45.6506C221.002 52.7378 219.006 64.4667 210.471 69.0585Z" fill="#F1F3FA" stroke="#AAB2C5" stroke-width="1.23838" stroke-miterlimit="10"/>
<path opacity="0.3" d="M213.865 66.5641C212.817 67.5623 211.669 68.4107 210.471 69.0596C203.933 64.1185 195.448 55.6337 190.507 49.0955C191.106 47.9476 191.954 46.9494 192.903 45.9512C191.854 50.0438 210.97 68.7601 213.865 66.5641Z" fill="#AAB2C5"/>
<path opacity="0.3" d="M213.566 60.5747C214.696 60.5747 215.612 59.0775 215.612 57.2307C215.612 55.3839 214.696 53.8867 213.566 53.8867C212.436 53.8867 211.52 55.3839 211.52 57.2307C211.52 59.0775 212.436 60.5747 213.566 60.5747Z" fill="#AAB2C5"/>
<path opacity="0.3" d="M208.475 50.442C209.385 50.442 210.122 49.5482 210.122 48.4456C210.122 47.343 209.385 46.4492 208.475 46.4492C207.566 46.4492 206.828 47.343 206.828 48.4456C206.828 49.5482 207.566 50.442 208.475 50.442Z" fill="#AAB2C5"/>
<path opacity="0.3" d="M198.329 48.8821C199.173 48.7455 199.767 48.0834 199.657 47.4032C199.547 46.723 198.774 46.2822 197.931 46.4188C197.087 46.5553 196.493 47.2174 196.603 47.8977C196.713 48.5779 197.486 49.0186 198.329 48.8821Z" fill="#AAB2C5"/>
<path opacity="0.3" d="M203.806 54.4134C205.167 54.1932 206.119 53.0882 205.934 51.9454C205.749 50.8027 204.497 50.0548 203.136 50.275C201.776 50.4953 200.823 51.6002 201.008 52.743C201.193 53.8858 202.446 54.6337 203.806 54.4134Z" fill="#AAB2C5"/>
<path d="M70.6725 81.3369C70.6725 97.2583 54.6014 108.239 39.7781 102.399C35.8851 100.852 32.5412 98.3064 30.0457 95.0123C18.8159 80.2389 29.2471 58.6777 48.0632 58.6777C50.6585 58.6777 53.1041 59.1269 55.4 59.8756C64.3339 63.0199 70.6725 71.5046 70.6725 81.3369Z" fill="#F1F3FA" stroke="#AAB2C5" stroke-width="1.23838" stroke-miterlimit="10"/>
<path opacity="0.5" d="M45.2188 83.4829C45.2188 86.6772 42.6235 89.2725 39.4292 89.2725C38.5308 89.2725 37.6824 89.0729 36.8838 88.6736C34.9373 87.7253 33.6396 85.7788 33.6396 83.4829C33.6396 80.2887 36.235 77.6934 39.4292 77.6934C41.0763 77.6934 42.6235 78.3921 43.6716 79.54C44.6199 80.5382 45.2188 81.9357 45.2188 83.4829Z" fill="#AAB2C5"/>
<path d="M45.2181 83.4832C45.2181 86.6775 42.6228 89.2728 39.4286 89.2728C38.5302 89.2728 37.6817 89.0732 36.8832 88.6739C35.9349 87.6258 35.3359 86.2782 35.3359 84.731C35.3359 81.5367 37.9313 78.9414 41.1255 78.9414C42.0239 78.9414 42.8724 79.1411 43.6709 79.5403C44.6192 80.5385 45.2181 81.936 45.2181 83.4832Z" fill="#DCDFEA"/>
<path opacity="0.5" d="M53.9532 73.7495C53.9532 75.9456 52.2063 77.6924 50.0103 77.6924C49.611 77.6924 49.2616 77.6425 48.9123 77.5427C47.2652 77.0935 46.0674 75.5463 46.0674 73.7495C46.0674 71.5535 47.8142 69.8066 50.0103 69.8066C51.1083 69.8066 52.0566 70.2558 52.7553 70.9047C53.504 71.6533 53.9532 72.6515 53.9532 73.7495Z" fill="#AAB2C5"/>
<path d="M53.9526 73.7513C53.9526 75.9474 52.2058 77.6942 50.0097 77.6942C49.6105 77.6942 49.2611 77.6443 48.9117 77.5445C48.1631 76.8458 47.7139 75.8476 47.7139 74.7495C47.7139 72.5535 49.4607 70.8066 51.6568 70.8066C52.0561 70.8066 52.4054 70.8565 52.7548 70.9564C53.5034 71.6551 53.9526 72.6533 53.9526 73.7513Z" fill="#DCDFEA"/>
<path opacity="0.5" d="M57.1973 89.9214C57.1973 92.1175 55.4505 93.8643 53.2544 93.8643C53.0548 93.8643 52.8052 93.8643 52.6056 93.8144C50.709 93.5149 49.3115 91.8679 49.3115 89.9214C49.3115 87.7254 51.0584 85.9785 53.2544 85.9785C54.053 85.9785 54.8016 86.2281 55.4505 86.6273C56.4986 87.3261 57.1973 88.5239 57.1973 89.9214Z" fill="#AAB2C5"/>
<path d="M57.197 89.9221C57.197 92.1182 55.4501 93.865 53.2541 93.865C53.0544 93.865 52.8049 93.865 52.6053 93.8151C51.5571 93.1164 50.8584 91.9185 50.8584 90.521C50.8584 88.325 52.6053 86.5781 54.8013 86.5781C55.0009 86.5781 55.2006 86.5781 55.4501 86.628C56.4982 87.3268 57.197 88.5246 57.197 89.9221Z" fill="#DCDFEA"/>
<path opacity="0.5" d="M61.5892 80.8386C61.5892 82.286 60.4413 83.4339 58.9939 83.4339C58.8441 83.4339 58.6944 83.4339 58.5447 83.384C57.2969 83.1844 56.3486 82.0864 56.3486 80.7887C56.3486 79.3413 57.5465 78.1934 58.944 78.1934C59.5429 78.1934 60.0919 78.393 60.5411 78.7424C61.1899 79.2914 61.5892 80.04 61.5892 80.8386Z" fill="#AAB2C5"/>
<path d="M61.5886 80.8384C61.5886 82.2858 60.4407 83.4337 58.9933 83.4337C58.8436 83.4337 58.6938 83.4337 58.5441 83.3838C57.9452 82.8847 57.5459 82.1361 57.5459 81.3375C57.5459 79.8901 58.6938 78.7422 60.1412 78.7422C60.291 78.7422 60.4407 78.7422 60.5904 78.7921C61.1893 79.2912 61.5886 80.0399 61.5886 80.8384Z" fill="#DCDFEA"/>
<path opacity="0.3" d="M70.6727 81.3363C70.6727 97.2576 54.6016 108.238 39.7783 102.398C40.1277 102.099 40.5769 101.899 40.9762 101.7C48.7122 97.9064 55.8494 101.001 58.8939 95.6106C60.2914 93.1151 59.4928 89.8709 60.7905 87.3255C61.3894 86.0777 62.4375 85.0795 63.0365 83.8817C65.1826 79.4896 60.7905 70.0067 61.639 67.3614C61.9883 66.3133 63.0365 65.6645 64.1345 65.4648C68.1772 69.5575 70.6727 75.1474 70.6727 81.3363Z" fill="#AAB2C5"/>
<path d="M55.9491 63.3693C54.7014 66.5136 49.5107 65.5653 47.2149 65.6152C42.5732 65.6652 41.9244 68.0109 40.9761 69.2587C39.4788 71.2052 36.7337 72.0037 34.4379 71.2052C36.4343 80.7879 32.2917 79.9395 31.5431 82.984C30.6946 86.5775 37.0831 88.7736 35.8852 92.3172C35.1865 94.3635 32.1919 94.8626 29.9958 95.0123C18.7661 80.2389 29.1973 58.6777 48.0134 58.6777C50.6087 58.6777 53.0543 59.1269 55.3502 59.8756C56.049 60.9736 56.3983 62.2713 55.9491 63.3693Z" fill="white"/>
<path opacity="0.3" d="M37.8813 73.3505C38.7634 73.3505 39.4784 72.6354 39.4784 71.7534C39.4784 70.8713 38.7634 70.1562 37.8813 70.1562C36.9992 70.1562 36.2842 70.8713 36.2842 71.7534C36.2842 72.6354 36.9992 73.3505 37.8813 73.3505Z" fill="#AAB2C5"/>
<path d="M70.6725 81.3369C70.6725 97.2583 54.6014 108.239 39.7781 102.399C35.8851 100.852 32.5412 98.3064 30.0457 95.0123C18.8159 80.2389 29.2471 58.6777 48.0632 58.6777C50.6585 58.6777 53.1041 59.1269 55.4 59.8756C64.3339 63.0199 70.6725 71.5046 70.6725 81.3369Z" stroke="#AAB2C5" stroke-width="1.23838" stroke-miterlimit="10"/>
</svg>
