<svg width="84" height="70" viewBox="0 0 84 70" fill="none" xmlns="http://www.w3.org/2000/svg">
<rect width="27.7253" height="24.1617" transform="matrix(0.97455 -0.224172 0.224159 0.974553 29.457 17.1376)" fill="#F1F3F9" stroke="#D6DCE8" stroke-width="1.05161" stroke-miterlimit="10"/>
<rect width="22.1802" height="2.37656" transform="matrix(0.97455 -0.224172 0.224159 0.974553 32.6875 18.8319)" fill="#D6DCE8"/>
<path d="M28.0517 14.23C27.4784 12.896 28.0951 11.3498 29.4291 10.7764L50.0706 1.90465C51.4045 1.3313 52.9507 1.94792 53.524 3.28191L54.8319 6.32512L29.3596 17.2732L28.0517 14.23Z" fill="white" stroke="#D6DCE8" stroke-width="1.05161" stroke-miterlimit="10"/>
<path d="M29.2531 10.8534L28.8359 11.0327C28.1148 11.3426 27.672 12.0298 27.6389 12.7646L32.022 16.1302L34.6527 14.9995L29.2531 10.8534Z" fill="#D6DCE8"/>
<path d="M39.7009 12.8298L37.0702 13.9604L31.6705 9.81432L34.3012 8.68363L39.7009 12.8298Z" fill="#D6DCE8"/>
<path d="M44.7491 10.66L42.1184 11.7907L36.7187 7.64458L39.3494 6.51389L44.7491 10.66Z" fill="#D6DCE8"/>
<path d="M49.7973 8.49028L47.1666 9.62097L41.7669 5.47484L44.3977 4.34415L49.7973 8.49028Z" fill="#D6DCE8"/>
<path d="M54.8263 6.30584L54.8346 6.32521L52.2148 7.45124L46.8151 3.30512L49.4458 2.17443L54.8263 6.30584Z" fill="#D6DCE8"/>
<path d="M66.278 64.6073L41.7799 51.1198L58.3726 20.9796C58.9128 19.9984 60.1435 19.6327 61.1291 20.1753L78.7439 29.8732L81.0299 37.8109L66.278 64.6073Z" fill="#F1F3F9" stroke="#D6DCE8" stroke-width="1.05161" stroke-miterlimit="10"/>
<path d="M52.5238 50.3898L48.8181 48.3496C48.6798 48.2735 48.7057 47.9646 48.8696 47.667C49.0334 47.3694 49.2805 47.1823 49.4188 47.2584L53.1245 49.2986C53.2628 49.3747 53.2369 49.6836 53.073 49.9812C52.8819 50.3284 52.6621 50.4659 52.5238 50.3898Z" fill="#D5DDEA"/>
<path d="M69.6663 32.6662L60.4403 27.5868C60.2258 27.4687 60.1805 27.1156 60.3422 26.8218C60.504 26.5281 60.8265 26.3775 61.041 26.4956L70.267 31.575C70.4816 31.6931 70.5269 32.0462 70.3652 32.34C70.2034 32.6338 69.8809 32.7843 69.6663 32.6662Z" fill="#D6DCE8"/>
<path d="M62.1505 31.8478L58.9916 30.1086C58.801 30.0037 58.7762 29.6619 58.9379 29.3681C59.0997 29.0743 59.4017 28.9125 59.5923 29.0174L62.724 30.7416C62.9146 30.8465 62.9394 31.1883 62.7777 31.4821C62.616 31.7759 62.3139 31.9377 62.1505 31.8478Z" fill="#D6DCE8"/>
<path d="M68.2314 50.9826L57.1716 44.8936L55.9527 44.2225L52.2661 42.1928C52.1174 42.111 51.8436 42.2564 51.6684 42.5747C51.5182 42.8475 51.487 43.1858 51.6653 43.284L55.3519 45.3137L56.5709 45.9848L67.6307 52.0738C67.7794 52.1556 68.0532 52.0101 68.2284 51.6918C68.3739 51.3572 68.3801 51.0644 68.2314 50.9826Z" fill="#D6DCE8"/>
<path d="M69.8325 48.0724L65.7223 45.8095L64.3224 45.0388L53.8682 39.2832C53.7192 39.2012 53.4452 39.3465 53.27 39.6648C53.1198 39.9376 53.0887 40.276 53.2674 40.3744L63.7217 46.13L65.1215 46.9007L69.2318 49.1635C69.3807 49.2455 69.6547 49.1002 69.83 48.7819C69.9754 48.4473 69.9814 48.1543 69.8325 48.0724Z" fill="#D6DCE8"/>
<path d="M71.2618 45.541L70.1937 44.9529L69.1255 44.3649L55.2694 36.7363C55.121 36.6547 54.8475 36.8003 54.6723 37.1186C54.5221 37.3914 54.4906 37.7295 54.6686 37.8275L68.5248 45.4561L69.7116 46.1095L70.6314 46.6159C70.7798 46.6975 71.0533 46.5519 71.2285 46.2336C71.4083 45.9772 71.4102 45.6227 71.2618 45.541Z" fill="#D6DCE8"/>
<path d="M72.8401 42.6185L69.3987 40.7238L68.5457 40.2542L56.8684 33.8253C56.7213 33.7443 56.4491 33.8907 56.2739 34.2089C56.1237 34.4817 56.0912 34.8193 56.2676 34.9165L67.9449 41.3454L68.7979 41.815L72.2099 43.6935C72.4158 43.8069 72.6586 43.6443 72.8339 43.3261C72.984 43.0533 73.0166 42.7157 72.8401 42.6185Z" fill="#D6DCE8"/>
<path d="M78.623 30.0872L77.3228 32.4491C76.4825 33.9754 77.0386 35.894 78.565 36.7344L80.909 38.0249" fill="#F1F3F9"/>
<path d="M78.623 30.0872L77.3228 32.4491C76.4825 33.9754 77.0386 35.894 78.565 36.7344L80.909 38.0249" stroke="#D6DCE8" stroke-width="1.05161" stroke-miterlimit="10"/>
<path d="M39.0485 53.6924L12.833 63.4294L0.854615 31.1759C0.464675 30.1259 0.991876 28.9552 2.04652 28.5635L20.8962 21.5623L28.399 25.0172L39.0485 53.6924Z" fill="#F1F3F9" stroke="#D6DCE8" stroke-width="1.05161" stroke-miterlimit="10"/>
<path d="M20.9746 21.791L21.9133 24.3186C22.5199 25.9519 24.3357 26.7842 25.9691 26.1776L28.4774 25.2459" fill="#F1F3F9"/>
<path d="M20.9746 21.791L21.9133 24.3186C22.5199 25.9519 24.3357 26.7842 25.9691 26.1776L28.4774 25.2459" stroke="#D6DCE8" stroke-width="1.05161" stroke-miterlimit="10"/>
<path d="M29.348 42.9038L23.5948 39.8319C22.5049 39.2499 21.1488 39.7662 20.6888 40.9383L18.6603 46.1068L17.5536 45.5201C16.4571 44.9388 15.0967 45.4665 14.6456 46.648L13.7791 48.9176C13.1304 50.6169 14.7495 52.2771 16.4268 51.6324L23.7637 48.8122L29.0899 46.7408C30.764 46.0898 30.9218 43.7442 29.348 42.9038Z" fill="#D6DCE8"/>
<path d="M14.3676 42.0592C15.7231 41.346 16.2863 39.779 15.6476 38.498C15.0089 37.2169 13.442 36.7707 12.0865 37.4838C10.731 38.197 10.1679 39.764 10.8066 41.045C11.4453 42.3261 13.0121 42.7724 14.3676 42.0592Z" fill="#D6DCE8"/>
<path d="M59.9199 64.2934C59.9199 66.6166 58.0366 68.4999 55.7134 68.4999H32.4525C30.1294 68.4999 28.2461 66.6166 28.2461 64.2934V29.531C28.2461 28.2625 29.2675 27.2273 30.5417 27.2273H53.3161L59.9199 33.8543V64.2934Z" fill="white" stroke="#D6DCE8" stroke-width="1.05161" stroke-miterlimit="10"/>
<path d="M53.3203 27.5035V30.9757C53.3203 32.7181 54.7328 34.1306 56.4752 34.1306H59.9241" fill="#F1F3F9"/>
<path d="M53.3203 27.5035V30.9757C53.3203 32.7181 54.7328 34.1306 56.4752 34.1306H59.9241" stroke="#D6DCE8" stroke-width="1.05161" stroke-miterlimit="10"/>
<path d="M39.6883 40.2751C41.0264 39.4052 42.5653 38.9368 44.3049 38.9368C48.9215 38.9368 52.6684 42.6839 52.6684 47.3007C52.6684 51.9176 48.9215 55.6646 44.3049 55.6646C39.6883 55.6646 35.9414 51.9176 35.9414 47.3007C35.9414 44.3566 37.4134 41.814 39.6883 40.2751Z" fill="#D6DCE8" stroke="#AAB2C5" stroke-width="1.05161" stroke-miterlimit="10"/>
<path d="M45.6198 46.7925L45.8778 47.0454C46.421 47.5777 47.2225 47.5777 47.7657 47.0454C48.025 46.7913 48.1775 46.4606 48.1775 46.1054C48.1775 45.7502 48.025 45.4196 47.7657 45.1655L45.2587 42.7087C45.0578 42.5117 44.7825 42.4646 44.6455 42.4466C44.4841 42.4256 44.3199 42.4256 44.222 42.4256C44.219 42.4256 44.216 42.4256 44.2132 42.4256C43.9085 42.4256 43.56 42.5233 43.3031 42.7751L40.7962 45.2319C40.5379 45.485 40.4351 45.832 40.4351 46.1386C40.4351 46.4452 40.5379 46.7922 40.7962 47.0454C41.3394 47.5777 42.1408 47.5777 42.6841 47.0454L42.9421 46.7925V50.8531C42.9421 51.6458 43.623 52.1757 44.2809 52.1757C45.0638 52.1757 45.6198 51.5234 45.6198 50.8531V46.7925Z" fill="white" stroke="#AAB2C5" stroke-width="1.05161"/>
</svg>
