<svg width="31" height="20" viewBox="0 0 31 20" fill="none" xmlns="http://www.w3.org/2000/svg">
<g clip-path="url(#clip0_83_2794)">
<path d="M0.000244141 0.0192871H31.0002V19.9223H0.000244141V0.0192871Z" fill="#F0F0F0"/>
<path d="M0.000244141 2.50708H31.0002V4.99472H0.000244141V2.50708ZM0.000244141 7.483H31.0002V9.97064H0.000244141V7.483ZM0.000244141 12.4583H31.0002V14.9459H0.000244141V12.4583ZM0.000244141 17.4342H31.0002V19.9218H0.000244141V17.4342Z" fill="#D80027"/>
<path d="M0.000244141 0.0192871H15.5002V10.7363H0.000244141V0.0192871Z" fill="#2E52B2"/>
<path d="M6.04419 4.40952L5.79455 5.14911H4.9871L5.64046 5.60596L5.39082 6.34549L6.04419 5.88864L6.69712 6.34549L6.44755 5.60596L7.10091 5.14911H6.2934L6.04419 4.40952ZM6.2934 7.81803L6.04419 7.0785L5.79455 7.81803H4.9871L5.64046 8.27494L5.39082 9.01447L6.04419 8.55756L6.69712 9.01447L6.44755 8.27494L7.10091 7.81803H6.2934ZM2.88091 7.81803L2.63164 7.0785L2.38201 7.81803H1.57455L2.22792 8.27494L1.97828 9.01447L2.63164 8.55756L3.28464 9.01447L3.03507 8.27494L3.68831 7.81803H2.88091ZM2.63164 4.40952L2.38201 5.14911H1.57455L2.22792 5.60596L1.97828 6.34549L2.63164 5.88864L3.28464 6.34549L3.03507 5.60596L3.68831 5.14911H2.88091L2.63164 4.40952ZM6.04419 1.74048L5.79455 2.48013H4.9871L5.64046 2.93704L5.39082 3.67657L6.04419 3.21966L6.69712 3.67657L6.44755 2.93704L7.10091 2.48013H6.2934L6.04419 1.74048ZM2.63164 1.74048L2.38201 2.48013H1.57455L2.22792 2.93704L1.97828 3.67657L2.63164 3.21966L3.28464 3.67657L3.03507 2.93704L3.68831 2.48013H2.88091L2.63164 1.74048ZM9.45667 4.40952L9.20709 5.14911H8.39964L9.05294 5.60596L8.80343 6.34549L9.45667 5.88864L10.1097 6.34549L9.86009 5.60596L10.5135 5.14911H9.706L9.45667 4.40952ZM9.706 7.81803L9.45667 7.0785L9.20709 7.81803H8.39964L9.05294 8.27494L8.80343 9.01447L9.45667 8.55756L10.1097 9.01447L9.86009 8.27494L10.5135 7.81803H9.706ZM13.1185 7.81803L12.8693 7.0785L12.6196 7.81803H11.8122L12.4655 8.27494L12.2159 9.01447L12.8693 8.55756L13.5223 9.01447L13.2726 8.27494L13.926 7.81803H13.1185ZM12.8693 4.40952L12.6196 5.14911H11.8122L12.4655 5.60596L12.2159 6.34549L12.8693 5.88864L13.5223 6.34549L13.2726 5.60596L13.926 5.14911H13.1185L12.8693 4.40952ZM9.45667 1.74048L9.20709 2.48013H8.39964L9.05294 2.93704L8.80343 3.67657L9.45667 3.21966L10.1097 3.67657L9.86009 2.93704L10.5135 2.48013H9.706L9.45667 1.74048ZM12.8693 1.74048L12.6196 2.48013H11.8122L12.4655 2.93704L12.2159 3.67657L12.8693 3.21966L13.5223 3.67657L13.2726 2.93704L13.926 2.48013H13.1185L12.8693 1.74048Z" fill="#F0F0F0"/>
</g>
<defs>
<clipPath id="clip0_83_2794">
<rect width="31" height="20" rx="4" fill="white"/>
</clipPath>
</defs>
</svg>
