<svg width="20" height="20" viewBox="0 0 20 20" fill="none" xmlns="http://www.w3.org/2000/svg">
<path d="M17.9534 9.20417C18.2067 9.55942 18.3334 9.73709 18.3334 10C18.3334 10.2629 18.2067 10.4406 17.9534 10.7958C16.815 12.3922 13.9077 15.8333 10.0001 15.8333C6.0924 15.8333 3.18516 12.3922 2.04678 10.7958C1.79342 10.4406 1.66675 10.2629 1.66675 10C1.66675 9.73709 1.79342 9.55942 2.04678 9.20417C3.18516 7.60787 6.0924 4.16667 10.0001 4.16667C13.9077 4.16667 16.815 7.60787 17.9534 9.20417Z" stroke="#BFBEC0" stroke-width="1.5"/>
<path d="M12.5 10C12.5 8.61925 11.3807 7.5 10 7.5C8.61925 7.5 7.5 8.61925 7.5 10C7.5 11.3807 8.61925 12.5 10 12.5C11.3807 12.5 12.5 11.3807 12.5 10Z" stroke="#BFBEC0" stroke-width="1.5"/>
</svg>
